<?xml version="1.0" encoding="UTF-8"?>
<svg width="150px" height="99px" viewBox="0 0 150 99" version="1.1" xmlns="http://www.w3.org/2000/svg" xmlns:xlink="http://www.w3.org/1999/xlink">
    <title>A3404BA9-25D7-4BAF-93B0-4512109ED781</title>
    <g id="Page-1" stroke="none" stroke-width="1" fill="none" fill-rule="evenodd">
        <g id="FF-Home---01---rev1" transform="translate(-52.000000, -4324.000000)">
            <g id="footer" transform="translate(-23.000000, 3862.000000)">
                <g id="Group-28" transform="translate(75.000000, 462.000000)">
                    <path d="M128.472222,96.8440939 C128.889588,96.8701259 129.303899,96.9084507 129.727781,96.9084507 C140.923749,96.9084507 150,87.7002646 150,76.3415493 C150,64.9827307 140.923749,55.7746479 129.727781,55.7746479 L129.727679,96.8440939 L128.472222,96.8440939 Z" id="Fill-1" fill="#008CA8"></path>
                    <path d="M127.904769,96.9084507 C117.243062,96.246389 108.792106,87.319575 108.792106,76.3737781 C108.792106,64.99716 117.914075,55.7746479 129.166667,55.7746479 L107.638889,55.7746479 L107.638889,96.9084507 L127.904769,96.9084507 Z" id="Fill-3" fill="#DD2E2A"></path>
                    <path d="M109.027778,76.3738298 C109.027778,87.3195992 117.66898,96.2462872 128.570702,96.9084507 L129.861111,96.9084507 L129.861111,55.7746479 C118.355099,55.7746479 109.027778,64.9971368 109.027778,76.3738298" id="Fill-5" fill="#EDF1F2"></path>
                    <polygon id="Fill-7" fill="#008CA8" points="0 97.6056338 21.5197244 97.6056338 21.5197244 78.835281 27.7777778 78.835281 27.7777778 74.7813865 21.5197244 74.7813865 21.5197244 71.8098592 0 71.8098592"></polygon>
                    <polygon id="Fill-9" fill="#DD2E2A" points="21.601488 71.8098592 34.7222222 71.8098592 34.7222222 56.471831 0 56.471831 21.601488 56.471933"></polygon>
                    <polygon id="Fill-11" fill="#EDF1F2" points="21.5277778 71.8098592 21.5277778 56.471933 0 56.471831 0 71.8098592"></polygon>
                    <polygon id="Fill-13" fill="#008CA8" points="0 50.8943662 26.8996329 50.8943662 26.8996329 28.0655298 34.7222222 28.0655298 34.7222222 23.1351592 26.8997363 23.1351592 26.8997363 19.5211268 0 19.5211268"></polygon>
                    <polygon id="Fill-15" fill="#DD2E2A" points="27.0833333 19.5211268 43.0555556 19.5211268 43.0555556 0 27.0833333 0"></polygon>
                    <polygon id="Fill-17" fill="#EDF1F2" points="0 19.5211268 27.0833333 19.5211268 27.0833333 0 0 0"></polygon>
                    <path d="M60.6067122,30.8377673 C57.7412125,30.8377673 55.0697059,30.0271331 52.7777778,28.6423385 L52.7777778,50.8943662 L83.3281041,50.8943662 C91.7687526,50.8943662 98.6111111,43.9880899 98.6111111,35.4687208 C98.6111111,28.7305116 94.3233712,23.0164357 88.3571602,20.915493 L88.3571602,30.8378708 L60.6067122,30.8377673 Z" id="Fill-18" fill="#008CA8"></path>
                    <path d="M45.1388889,15.3872345 C45.1388889,21.0003672 48.1353095,25.8968639 52.5968566,28.584507 L52.5968566,20.0065535 L83.162727,20.0065535 C84.9283265,20.0065535 86.6166791,20.3228561 88.1944444,20.8767986 L88.1944444,0 L60.429877,0 C51.9848314,0 45.1388889,6.88907927 45.1388889,15.3872345" id="Fill-19" fill="#DD2E2A"></path>
                    <path d="M52.7777778,20.2183099 L52.7777778,28.5490961 C55.0592176,29.8906401 57.7184989,30.6760563 60.5708856,30.6760563 L88.1944444,30.6760563 L88.1944444,21.0634795 C86.6246979,20.5254985 84.9449262,20.2183099 83.1883002,20.2183099 L52.7777778,20.2183099 Z" id="Fill-20" fill="#EDF1F2"></path>
                    <polygon id="Fill-21" fill="#008CA8" points="109.722222 50.8943662 131.944444 50.8943662 131.944444 19.5211268 109.722222 19.5211268"></polygon>
                    <polygon id="Fill-22" fill="#DD2E2A" points="131.944444 19.5211268 150 19.5211268 150 0 131.944444 0"></polygon>
                    <polygon id="Fill-23" fill="#DD2E2A" points="91.6666667 19.5211268 109.722222 19.5211268 109.722222 0 91.6666667 0"></polygon>
                    <polygon id="Fill-24" fill="#EDF1F2" points="109.722222 19.5211268 131.944444 19.5211268 131.944444 0 109.722222 0"></polygon>
                    <polygon id="Fill-25" fill="#008CA8" points="70.8333333 83.0850757 80.0374107 99 89.8891398 80.9711061 104.861111 55.7746479 86.9604669 55.7746479 71.9884955 80.9711061"></polygon>
                    <polygon id="Fill-26" fill="#DD2E2A" points="70.8333333 83.0851141 54.8830137 55.7746479 36.8055556 55.7746479 62.050866 99"></polygon>
                    <polygon id="Fill-27" fill="#EDF1F2" points="72.5172412 80.860146 87.5 55.7747517 79.7450106 55.7747517 74.7040103 55.7747517 61.8314687 55.7747517 57.2318762 55.7746479 55.5555556 55.7746479 71.3612467 82.9647887"></polygon>
                </g>
            </g>
        </g>
    </g>
</svg>