<svg width="103" height="68" viewBox="0 0 103 68" fill="none" xmlns="http://www.w3.org/2000/svg">
<path fill-rule="evenodd" clip-rule="evenodd" d="M87.9795 66.7872C88.2695 66.8051 88.5575 66.8314 88.852 66.8314C96.6327 66.8314 102.94 60.4971 102.94 52.6833C102.94 44.8695 96.6327 38.5352 88.852 38.5352L88.852 66.7872H87.9795Z" fill="#008CA8"/>
<path fill-rule="evenodd" clip-rule="evenodd" d="M87.9799 66.7872C80.6077 66.3324 74.7642 60.2012 74.7642 52.6833C74.7642 44.8695 81.0717 38.5352 88.8525 38.5352H73.9668V66.7872H87.9799Z" fill="#DD2E2A"/>
<path fill-rule="evenodd" clip-rule="evenodd" d="M74.7637 52.6834C74.7637 60.2013 80.6072 66.3324 87.9794 66.7872H88.8519L88.852 38.5352C81.0712 38.5352 74.7637 44.8695 74.7637 52.6834Z" fill="#1E2142"/>
<path fill-rule="evenodd" clip-rule="evenodd" d="M0 66.7872H14.8856V54.004H19.2144V51.2432H14.8856V49.2195H0V66.7872Z" fill="#008CA8"/>
<path fill-rule="evenodd" clip-rule="evenodd" d="M14.8856 49.2195H23.9271V38.5352H0L14.8856 38.5352V49.2195Z" fill="#DD2E2A"/>
<path fill-rule="evenodd" clip-rule="evenodd" d="M14.8856 49.2195V38.5352L0 38.5352V49.2195H14.8856Z" fill="#1E2142"/>
<path fill-rule="evenodd" clip-rule="evenodd" d="M0 34.9563H18.4179V19.1396H23.774V15.7237H18.418V13.2197H0V34.9563Z" fill="#008CA8"/>
<path fill-rule="evenodd" clip-rule="evenodd" d="M18.418 13.2196H29.605V0H18.418V13.2196Z" fill="#DD2E2A"/>
<path fill-rule="evenodd" clip-rule="evenodd" d="M0 13.2196H18.418V0H0V13.2196Z" fill="#1E2142"/>
<path fill-rule="evenodd" clip-rule="evenodd" d="M41.7067 21.1843C39.7291 21.1843 37.8854 20.6277 36.3037 19.6768V34.9563H57.3874C63.2125 34.9563 67.9346 30.2141 67.9346 24.3642C67.9346 19.7373 64.9755 15.8137 60.858 14.3711V21.1844L41.7067 21.1843Z" fill="#008CA8"/>
<path fill-rule="evenodd" clip-rule="evenodd" d="M31.1592 10.5921C31.1592 14.4561 33.226 17.8267 36.3035 19.6768V13.7719H57.3872C58.605 13.7719 59.7696 13.9897 60.8579 14.371V0H41.7066C35.8814 0 31.1592 4.74225 31.1592 10.5921Z" fill="#DD2E2A"/>
<path fill-rule="evenodd" clip-rule="evenodd" d="M36.3037 13.772V19.6768C37.8854 20.6277 39.7291 21.1843 41.7067 21.1843L60.8581 21.1844V14.371C59.7698 13.9897 58.6052 13.772 57.3874 13.772H36.3037Z" fill="#1E2142"/>
<path fill-rule="evenodd" clip-rule="evenodd" d="M75.2002 34.9563H90.6562V13.2197H75.2002V34.9563Z" fill="#008CA8"/>
<path fill-rule="evenodd" clip-rule="evenodd" d="M90.6562 13.2196H103V0H90.6562V13.2196Z" fill="#DD2E2A"/>
<path fill-rule="evenodd" clip-rule="evenodd" d="M62.8574 13.2196H75.2009V0H62.8574V13.2196Z" fill="#DD2E2A"/>
<path fill-rule="evenodd" clip-rule="evenodd" d="M75.2002 13.2196H90.6562V0H75.2002V13.2196Z" fill="#1E2142"/>
<path fill-rule="evenodd" clip-rule="evenodd" d="M48.7627 57.1516L55.0971 68.0001L61.8772 55.7106L72.1812 38.5354H59.8617L49.5577 55.7106L48.7627 57.1516Z" fill="#008CA8"/>
<path fill-rule="evenodd" clip-rule="evenodd" d="M48.7627 57.1515L37.8928 38.5352H25.5732L42.7775 67.9999L48.7627 57.1515Z" fill="#DD2E2A"/>
<path fill-rule="evenodd" clip-rule="evenodd" d="M49.5575 55.7105L59.8614 38.5352H54.5282H51.0614H42.2087L39.0454 38.5352H37.8926L48.7625 57.1515L49.5575 55.7105Z" fill="#1E2142"/>
</svg>
