<?xml version="1.0" encoding="UTF-8"?>
<svg width="1440px" height="812px" viewBox="0 0 1440 812" version="1.1" xmlns="http://www.w3.org/2000/svg" xmlns:xlink="http://www.w3.org/1999/xlink">
    <title>DE3F154C-0B62-4AD7-91D1-7B620BAE5755</title>
    <defs>
        <polygon id="path-1" points="0 0 1440 0 1440 812 0 812"></polygon>
    </defs>
    <g id="Page-1" stroke="none" stroke-width="1" fill="none" fill-rule="evenodd">
        <g id="FF-Home---02---rev1" transform="translate(0.000000, -1002.000000)">
            <g id="Group-10" transform="translate(0.000000, 1001.000000)">
                <g id="Group-3" transform="translate(0.000000, 1.000000)">
                    <mask id="mask-2" fill="white">
                        <use xlink:href="#path-1"></use>
                    </mask>
                    <g id="Clip-2"></g>
                    <path d="M-468,-195.820114 L-468,-322 L-470.826351,-322 L-470.826351,-195.820114 L-470.826351,-183.81093 L-506,-183.81093 L-506,-181 L-468,-181 L-468,-195.820114 Z M-489,-141 C-401.751331,-140.239411 -331,-69.2054262 -331,18 C-331,105.205426 -401.751331,176.239411 -489,177 L-489,-141 Z M-497.810923,179.652103 C-495.323759,179.823748 -492.751268,180 -490.15341,180 C-400.741188,180 -328,107.32763 -328,18 C-328,-70.8576244 -399.980165,-143.222417 -488.745516,-143.98272 L-488.745516,-144 L-490.15341,-144 L-491.561304,-144 L-506,-144 L-506,-143.225873 L-506,-140.393165 C-505.665611,-140.426572 -505.331222,-140.45998 -504.995679,-140.491083 C-504.359187,-140.549834 -503.723847,-140.609736 -503.086201,-140.661575 C-502.392056,-140.71687 -501.69445,-140.764101 -500.996845,-140.811332 C-500.343057,-140.856259 -499.689268,-140.900034 -499.033173,-140.936897 C-498.345946,-140.973761 -497.656412,-141.003712 -496.966878,-141.032511 C-496.2981,-141.061311 -495.630475,-141.088958 -494.960543,-141.109694 C-494.277928,-141.129277 -493.593006,-141.140797 -492.908085,-141.153469 C-492.459542,-141.160381 -492.010999,-141.16614 -491.561304,-141.169596 L-491.561304,176.684615 L-500.060555,176.684615 C-502.051901,176.562505 -504.02941,176.392013 -506,176.197329 L-506,179.017365 L-506,179.497739 L-500.152801,179.497739 C-499.371022,179.546122 -498.591549,179.599113 -497.810923,179.652103 L-497.810923,179.652103 Z M120.438598,-181 L288.448613,-181 L355.490589,-181 C376.522193,-181 396.321314,-186.375529 413.591027,-195.820114 C451.33882,-216.463525 477,-256.560134 477,-302.541047 C477,-309.134415 476.456833,-315.635696 475.421134,-322 L472.564905,-322 C473.625921,-315.63915 474.190953,-309.137868 474.190953,-302.541047 C474.190953,-255.71179 446.942851,-215.13288 407.475797,-195.820114 C391.767689,-188.133223 374.125124,-183.81093 355.490589,-183.81093 L288.448613,-183.81093 L120.438598,-183.81093 C118.438548,-183.81093 116.810198,-185.438552 116.810198,-187.440275 L116.810198,-195.820114 L116.810198,-322 L114,-322 L114,-195.820114 L114,-187.440275 C114,-183.889203 116.888451,-181 120.438598,-181 L120.438598,-181 Z M-294.548635,-181 L-94.4525185,-181 C-90.8946955,-181 -88,-183.889203 -88,-187.440275 L-88,-195.820114 L-88,-322 L-90.8162735,-322 L-90.8162735,-195.820114 L-90.8162735,-187.440275 C-90.8162735,-185.438552 -92.4481437,-183.81093 -94.4525185,-183.81093 L-294.548635,-183.81093 C-296.55301,-183.81093 -298.183727,-185.438552 -298.183727,-187.440275 L-298.183727,-195.820114 L-298.183727,-322 L-301,-322 L-301,-195.820114 L-301,-187.440275 C-301,-183.889203 -298.105304,-181 -294.548635,-181 L-294.548635,-181 Z M-297,-20 L-130.295967,-20 L-130.295967,-3.43981015 C-130.295967,0.121334818 -127.407374,3.01757881 -123.857052,3.01757881 L-84.628579,3.01757881 C-82.6284299,3.01757881 -81,4.65097269 -81,6.65721903 L-81,27.9617544 C-81,29.969155 -82.6284299,31.6013946 -84.628579,31.6013946 L-123.857052,31.6013946 C-127.407374,31.6013946 -130.295967,34.4987929 -130.295967,38.0599379 L-130.295967,173.36036 C-130.295967,175.36776 -131.923246,177 -133.923395,177 L-293.372572,177 C-295.372721,177 -297,175.36776 -297,173.36036 L-297,-20 Z M-298,-137.382065 C-298,-139.376347 -296.369832,-141 -294.366132,-141 L-131,-141 L-131,-23 L-298,-23 L-298,-137.382065 Z M-128,-141 L-31.6230135,-141 C-29.6247831,-141 -28,-139.376347 -28,-137.382065 L-28,-26.6179354 C-28,-24.6236532 -29.6247831,-23 -31.6230135,-23 L-128,-23 L-128,-141 Z M-294.545547,180 L-134.683018,180 C-131.124646,180 -128.229718,177.112991 -128.229718,173.564614 L-128.229718,38.7493234 C-128.229718,36.7491204 -126.597067,35.1227334 -124.590579,35.1227334 L-85.2604115,35.1227334 C-81.7008854,35.1227334 -78.805958,32.235724 -78.805958,28.6873478 L-78.805958,7.45920162 C-78.805958,3.91082544 -81.7008854,1.02496617 -85.2604115,1.02496617 L-124.590579,1.02496617 C-126.597067,1.02496617 -128.229718,-0.602571042 -128.229718,-2.60162382 L-128.229718,-19.1024357 L-31.4544535,-19.1024357 C-27.8960812,-19.1024357 -25,-21.988295 -25,-25.5366712 L-25,-136.565765 C-25,-140.114141 -27.8960812,-143 -31.4544535,-143 L-294.545547,-143 L-299.591189,-143 L-299.591189,-140.567321 C-300.470398,-139.466576 -301,-138.078281 -301,-136.565765 L-301,-21.9100812 L-301,-19.1024357 L-301,173.564614 C-301,177.112991 -298.103919,180 -294.545547,180 L-294.545547,180 Z M-506,835.551712 L-456.232891,921 L-453,921 L-506,830 L-506,835.551712 Z M-336.942561,850.762618 L-336.962106,850.798318 L-336.967855,850.806379 L-341.251719,858.552123 L-344.820456,865 L-440.846383,700.967805 L-466,658 L-221,658 L-336.942561,850.762618 Z M-87.4387181,655 L-216.392597,655 L-468.36178,655 L-471.620051,655 L-506,655 L-506,657.807615 L-469.971343,657.807615 L-443.67375,702.613294 L-346.946828,867.408015 L-376.669636,921 L-373.456266,921 L-345.294665,870.222532 L-315.490113,921 L-312.23069,921 L-343.710432,867.368909 L-335.05356,851.759671 L-218.086207,657.808766 L-87.4387181,657.808766 C-86.1331067,657.808766 -84.9219046,658.514983 -84.2794609,659.651371 C-83.6370172,660.78776 -83.6554385,662.188692 -84.3301196,663.306677 L-197.146918,850.375991 L-236.31526,921 L-233.10189,921 L-194.713,851.781524 L-81.9215314,664.755917 C-80.7252966,662.771838 -80.6919079,660.286276 -81.8317274,658.269992 C-82.9738495,656.253708 -85.1222365,655 -87.4387181,655 L-87.4387181,655 Z M272,364.374914 C272,366.373772 270.369825,368 268.366115,368 L134,368 L134,221 L268.366115,221 C270.369825,221 272,222.626228 272,224.625086 L272,364.374914 Z M-42,368 L131,368 L131,221 L-42,221 L-42,368 Z M131,615 L-38.3744718,615 C-40.3723056,615 -42,613.3694 -42,611.366585 L-42,371 L131,371 L131,615 Z M-45,368 L-179.366115,368 C-181.369825,368 -183,366.373772 -183,364.374914 L-183,224.625086 C-183,222.626228 -181.369825,221 -179.366115,221 L-45,221 L-45,368 Z M267.56154,218 L133.419667,218 L130.609027,218 L-42.610178,218 L-45.4196669,218 L-179.56154,218 C-183.111095,218 -186,220.893228 -186,224.450664 L-186,364.570994 C-186,368.128431 -183.111095,371.021659 -179.56154,371.021659 L-45.4196669,371.021659 L-45.4196669,611.549336 C-45.4196669,615.106772 -42.5307619,618 -38.9800559,618 L133.419667,618 L133.419667,371.021659 L267.56154,371.021659 C271.111095,371.021659 274,368.128431 274,364.570994 L274,224.450664 C274,220.893228 271.111095,218 267.56154,218 L267.56154,218 Z M-486,444.640234 L-486,444.611467 C-467.589092,455.11727 -446.821919,460.658995 -425.775776,460.658995 L-212.357488,460.660146 C-208.801189,460.660146 -205.907733,457.771913 -205.907733,454.223184 L-205.907733,384 C-159.22396,401.131479 -128,445.610266 -128,495.308585 C-128,560.755253 -181.341027,614 -246.906039,614 L-482.365313,614 C-484.368829,614 -486,612.371773 -486,610.371873 L-486,444.640234 Z M-486,380.617721 C-486,378.62241 -484.37046,377 -482.368946,377 L-247.145067,377 C-234.309124,377 -221.482395,379.159388 -209,383.388668 L-209,454.383427 C-209,456.37759 -210.62954,458 -212.631054,458 L-425.835984,457.998853 C-446.907151,457.998853 -467.689263,452.306651 -486,441.547574 L-486,380.617721 Z M-488.65415,611.549336 C-488.65415,615.106772 -485.761637,618 -482.205081,618 L-246.728764,618 C-179.607264,618 -125,563.379224 -125,496.241116 C-125,444.914861 -157.403284,399.02912 -205.727491,381.717031 L-205.727491,224.450664 C-205.727491,220.893228 -208.621156,218 -212.177712,218 L-425.611449,218 C-456.394972,218 -484.540764,229.494498 -506,248.410604 L-506,252.194056 C-484.81745,232.722137 -456.579429,220.815968 -425.611449,220.815968 L-212.177712,220.815968 C-210.174051,220.815968 -208.542762,222.446507 -208.542762,224.450664 L-208.542762,380.713799 L-208.542762,380.729943 C-221.04547,376.583252 -233.881353,374.481078 -246.728764,374.481078 L-482.205081,374.481078 C-485.761637,374.481078 -488.65415,377.375459 -488.65415,380.932896 L-488.65415,440.468354 C-494.903774,436.553444 -500.692257,432.136918 -506,427.301803 L-506,431.071417 C-500.664589,435.733561 -494.8738,439.986341 -488.65415,443.764027 L-488.65415,611.549336 Z M113.450069,655.017253 L113.450069,655 L112.045039,655 L110.638858,655 L-52.5564436,655 C-56.109325,655 -59,657.886979 -59,661.434167 L-59,921 L-56.1876381,921 L-56.1876381,661.434167 C-56.1876381,659.435135 -54.5580345,657.807615 -52.5564436,657.807615 L81.9037064,657.807615 C81.4073395,657.901931 80.9144276,658.006598 80.420364,658.104365 C79.9412721,658.19983 79.4621801,658.292996 78.9853915,658.391912 C78.1538906,658.565591 77.3258446,658.748471 76.4989504,658.933652 C76.0855032,659.026818 75.6709044,659.115382 75.2586089,659.210848 C74.1921687,659.459289 73.1291834,659.720383 72.0708048,659.989527 C71.9049653,660.032084 71.7379741,660.070041 71.5721346,660.112598 C70.3363998,660.4312 69.107575,660.764756 67.8845086,661.112113 C67.5816211,661.197227 67.2821886,661.290393 66.9804528,661.377807 C66.0706388,661.641201 65.1619764,661.909195 64.2579207,662.188692 C63.8375636,662.318663 63.4206615,662.454386 63.0026077,662.587808 C62.2206283,662.836249 61.4386489,663.086991 60.6624278,663.348084 C60.2063691,663.499909 59.7526137,663.657485 59.2988584,663.813911 C58.5606422,664.069254 57.822426,664.328046 57.0876648,664.593741 C56.6269994,664.760518 56.1674857,664.928446 55.7091237,665.099824 C54.9789692,665.371269 54.2511179,665.648465 53.5244184,665.930262 C53.0787247,666.103941 52.6318793,666.27647 52.1861856,666.454749 C51.4353011,666.753799 50.6867199,667.06205 49.9404421,667.372601 C49.5339049,667.541679 49.1262161,667.708457 48.7208306,667.880986 C47.8858747,668.236394 47.0566771,668.602155 46.2297828,668.971366 C45.9199853,669.109389 45.6078846,669.242811 45.2992388,669.383135 C43.0177937,670.418306 40.7651402,671.504086 38.5412783,672.639324 C38.2326325,672.796901 37.9285934,672.960228 37.6210993,673.120104 C36.8264516,673.533023 36.0341072,673.948241 35.2475212,674.372662 C34.8651689,674.579696 34.48512,674.791331 34.1039195,675.000666 C33.3956465,675.390581 32.6885252,675.783946 31.9871622,676.184212 C31.5840801,676.41425 31.1844529,676.646589 30.783674,676.880077 C30.106496,677.273443 29.4327729,677.671409 28.7625049,678.075126 C28.3594227,678.316666 27.9574922,678.560506 27.5567134,678.806647 C26.8852936,679.218415 26.2173289,679.635934 25.5528192,680.056904 C25.1681636,680.299594 24.7846597,680.542285 24.4023075,680.788425 C23.7043995,681.2393 23.0110982,681.697076 22.3201002,682.158303 C21.9838145,682.38259 21.6452254,682.604577 21.3100914,682.831164 C20.4958654,683.384406 19.6873978,683.945699 18.8835367,684.512743 C18.680844,684.656517 18.4746963,684.79569 18.2731552,684.939464 C17.2527815,685.665234 16.241621,686.401356 15.2396739,687.15013 C15.1233559,687.236394 15.0116446,687.324959 14.8964783,687.412374 C14.0269724,688.064532 13.1643766,688.724741 12.3086907,689.394152 C12.0104099,689.627641 11.7155841,689.866881 11.418455,690.10267 C10.7504902,690.632908 10.0848288,691.165446 9.42607739,691.706035 C9.08403338,691.986682 8.7442927,692.271929 8.40455201,692.556026 C7.7953221,693.06326 7.18954719,693.573945 6.58837892,694.090381 C6.23481828,694.392881 5.88471262,694.698832 5.53460696,695.004782 C4.94956199,695.515467 4.36912366,696.029602 3.79214033,696.549488 C3.44548966,696.86119 3.098839,697.172892 2.75449166,697.488044 C2.17175001,698.021733 1.59476668,698.560022 1.01893501,699.101762 C0.695317607,699.406562 0.371700208,699.709062 0.0503861358,700.016163 C-0.566905415,700.607361 -1.17728699,701.20546 -1.78421357,701.80586 C-2.05139946,702.070404 -2.32088868,702.330347 -2.58692291,702.596041 C-3.37350898,703.385072 -4.15203339,704.181004 -4.92249617,704.986137 C-5.00196094,705.067801 -5.08257737,705.148314 -5.16089048,705.229978 C-6.02233466,706.132877 -6.87226221,707.046129 -7.71297644,707.968582 C-7.89493925,708.166414 -8.07114374,708.369998 -8.25080322,708.568981 C-8.89343137,709.280949 -9.53260452,709.997518 -10.1625644,710.720988 C-10.4332053,711.031539 -10.6992395,711.346692 -10.9687287,711.659544 C-11.5019488,712.281797 -12.0328656,712.9052 -12.5568725,713.535505 C-12.8493949,713.887463 -13.1396141,714.242872 -13.4298333,714.598281 C-13.9215935,715.19983 -14.4098988,715.803681 -14.8935974,716.412131 C-15.1884232,716.783643 -15.4809457,717.156305 -15.7723165,717.530117 C-16.2468018,718.138568 -16.7166804,718.751619 -17.1831041,719.366971 C-17.4652616,719.739633 -17.7474191,720.112295 -18.0272733,720.487257 C-18.5029103,721.127913 -18.9727889,721.77317 -19.4392126,722.419577 C-19.6948818,722.774986 -19.9540061,723.128095 -20.207372,723.485804 C-20.7187106,724.206974 -21.2219874,724.936195 -21.7218093,725.666566 C-21.9187438,725.952963 -22.1179815,726.23706 -22.3126126,726.524608 C-23.6992153,728.576548 -25.0397514,730.662994 -26.3319177,732.780495 C-26.5184871,733.085296 -26.6992983,733.394697 -26.8835644,733.701798 C-27.3361681,734.452872 -27.7853168,735.206247 -28.2252522,735.964223 C-28.4498266,736.351837 -28.6686426,736.742902 -28.8909136,737.132817 C-29.2813275,737.819481 -29.669438,738.508445 -30.0494869,739.20201 C-30.2821229,739.62413 -30.5101523,740.04855 -30.7381816,740.472971 C-31.0998039,741.144682 -31.4568195,741.819844 -31.8092285,742.497306 C-32.0349545,742.932078 -32.2595289,743.368 -32.4817999,743.805073 C-32.8296022,744.489436 -33.1716463,745.17725 -33.5090836,745.867365 C-33.719838,746.297536 -33.9317441,746.726557 -34.1390435,747.159029 C-34.4868458,747.884799 -34.8265865,748.616321 -35.1640238,749.347842 C-35.3471383,749.746958 -35.5337078,750.143774 -35.7145189,750.54404 C-36.0968711,751.391731 -36.4688584,752.246322 -36.8373907,753.102064 C-36.9617703,753.390762 -37.0907566,753.676009 -37.2128329,753.965857 C-37.6999865,755.117198 -38.1756235,756.27544 -38.6362888,757.439433 C-38.7169052,757.640717 -38.7906117,757.845451 -38.8700765,758.047884 C-39.2455187,759.005993 -39.614051,759.968703 -39.9710666,760.936013 C-40.1196312,761.33743 -40.2612858,761.742297 -40.4063954,762.144863 C-40.6850979,762.918942 -40.9614971,763.69417 -41.228683,764.474 C-41.3864609,764.934076 -41.5384804,765.396453 -41.6928033,765.857679 C-41.9358043,766.590351 -42.1765019,767.324172 -42.4102896,768.061444 C-42.5634608,768.544524 -42.7120254,769.028755 -42.8605899,769.512985 C-43.0840126,770.239906 -43.3005253,770.967976 -43.5135831,771.698347 C-43.6552376,772.188329 -43.7968922,772.67831 -43.9350918,773.170591 C-44.1435429,773.914765 -44.345084,774.661239 -44.5431701,775.408863 C-44.6687014,775.886192 -44.7976877,776.362371 -44.919764,776.842 C-45.1236084,777.641383 -45.3170878,778.444216 -45.508264,779.247049 C-45.6119137,779.67722 -45.7190184,780.106241 -45.8180614,780.537563 C-46.0495457,781.54513 -46.2683618,782.558448 -46.4814195,783.574066 C-46.5286377,783.801804 -46.5816142,784.028392 -46.6288324,784.257279 C-46.8845017,785.504086 -47.1251993,786.756644 -47.3509253,788.013802 C-47.4131151,788.358859 -47.4672433,788.706217 -47.5271298,789.052424 C-47.6860593,789.965676 -47.8415339,790.878927 -47.9843401,791.796779 C-48.0568949,792.266057 -48.1225397,792.737635 -48.1916395,793.208063 C-48.3091092,794.008596 -48.4242755,794.809129 -48.5302286,795.613112 C-48.597025,796.126097 -48.6592149,796.641383 -48.7214047,797.156668 C-48.8146894,797.926146 -48.9045192,798.696773 -48.9862873,799.468551 C-49.0438704,799.999939 -49.0968469,800.531328 -49.1486718,801.062716 C-49.2235299,801.831043 -49.291478,802.601671 -49.3548195,803.373449 C-49.3985827,803.903687 -49.4423459,804.432774 -49.4803508,804.965313 C-49.537934,805.761245 -49.5863039,806.559477 -49.6323704,807.358859 C-49.661162,807.863793 -49.6934085,808.368727 -49.7175935,808.873661 C-49.760205,809.754707 -49.7901483,810.638053 -49.8189398,811.5214 C-49.8327598,811.949271 -49.8523381,812.374841 -49.8627031,812.802712 C-49.893798,814.113929 -49.9122246,815.429748 -49.9122246,816.749016 C-49.9122246,818.025728 -49.8961013,819.298989 -49.866158,820.5688 C-49.8557931,820.988619 -49.8373665,821.406138 -49.8235465,821.825958 C-49.7970582,822.673649 -49.77057,823.522489 -49.7302618,824.366729 C-49.7072285,824.867062 -49.6749819,825.365095 -49.6461903,825.863127 C-49.6035788,826.626854 -49.5609673,827.390581 -49.5068391,828.150857 C-49.4699859,828.678794 -49.425071,829.204431 -49.3824594,829.731219 C-49.3248763,830.456989 -49.2649898,831.183909 -49.1970416,831.907379 C-49.1452168,832.450269 -49.089937,832.989709 -49.0335054,833.530298 C-48.959799,834.238816 -48.8826376,834.946183 -48.7985661,835.6524 C-48.7352246,836.19529 -48.6684282,836.73703 -48.5993284,837.27877 C-48.508347,837.980386 -48.4139106,838.680852 -48.3148675,839.379018 C-48.2388577,839.916157 -48.1616963,840.453296 -48.0810799,840.989285 C-47.9739752,841.693202 -47.8599605,842.394818 -47.7436425,843.095284 C-47.6572678,843.620921 -47.570893,844.145408 -47.4787599,844.669895 C-47.3532286,845.387614 -47.218484,846.103033 -47.0825877,846.817301 C-46.9881514,847.316484 -46.8960183,847.816817 -46.7958236,848.31485 C-46.6449557,849.070525 -46.4837228,849.82275 -46.3224899,850.574974 C-46.2245986,851.028149 -46.1324655,851.482475 -46.0311191,851.9345 C-45.8318814,852.823597 -45.621127,853.706944 -45.4069176,854.59144 C-45.3320595,854.899691 -45.2641113,855.209093 -45.1869499,855.516193 C-44.8921241,856.707791 -44.5834783,857.892487 -44.2610126,859.072583 C-44.1850028,859.350929 -44.1032347,859.625825 -44.0249216,859.903021 C-43.7750106,860.80362 -43.520493,861.703069 -43.2544588,862.597918 C-43.1277758,863.021188 -42.9941829,863.442158 -42.8651966,863.865428 C-42.6360156,864.610751 -42.4068346,865.356075 -42.1672886,866.097948 C-42.018724,866.559174 -41.8632495,867.01695 -41.7100783,867.477026 C-41.4774423,868.175192 -41.2448063,868.872208 -41.002957,869.565773 C-40.8382691,870.040802 -40.6678229,870.51353 -40.4973768,870.987408 C-40.2555275,871.66142 -40.0113748,872.334282 -39.7614639,873.003693 C-39.5829561,873.479872 -39.4021449,873.9549 -39.2190305,874.428779 C-38.9622095,875.09589 -38.7019336,875.7607 -38.4370511,876.42436 C-38.2516333,876.887887 -38.0639121,877.351414 -37.8738877,877.81264 C-37.5974885,878.486652 -37.315331,879.157213 -37.0297184,879.826624 C-36.839694,880.270597 -36.6508212,880.713421 -36.4573418,881.155094 C-36.1544543,881.847509 -35.8446569,882.535323 -35.5314044,883.223137 C-35.344835,883.634905 -35.1594172,884.047824 -34.9682411,884.458442 C-34.6273487,885.192263 -34.2772431,885.922635 -33.9248341,886.650705 C-33.7532362,887.006114 -33.5850934,887.362673 -33.4111922,887.715782 C-32.9919868,888.568073 -32.5624163,889.414613 -32.1282393,890.258853 C-32.0119213,890.483141 -31.9013616,890.709728 -31.7838919,890.932865 C-30.6518069,893.110176 -29.4702003,895.259883 -28.2413755,897.379684 C-28.1665174,897.509656 -28.0882043,897.637327 -28.0121945,897.767298 C-27.4778227,898.68285 -26.9365409,899.592651 -26.3860459,900.496701 C-26.2386329,900.738241 -26.087765,900.97633 -25.9392005,901.21672 C-25.4520469,902.005751 -24.9602866,902.792481 -24.4593131,903.573461 C-24.2808053,903.851807 -24.0988425,904.127853 -23.9180313,904.406199 C-23.436636,905.146922 -22.9506341,905.885344 -22.4577222,906.619166 C-22.2653944,906.903263 -22.0707633,907.18621 -21.8772839,907.470307 C-21.3820686,908.196077 -20.8822467,908.918397 -20.3743632,909.636116 C-20.1820354,909.909861 -19.9874043,910.181306 -19.7927732,910.453902 C-19.2699181,911.184273 -18.7401529,911.911193 -18.2057811,912.632363 C-18.0226667,912.879654 -17.8395522,913.126945 -17.6541344,913.373086 C-17.0863644,914.131061 -16.509381,914.884436 -15.9277911,915.63206 C-15.7723165,915.832193 -15.6179936,916.032326 -15.4625191,916.230159 C-14.8187393,917.050245 -14.1668978,917.86343 -13.5069947,918.669714 C-13.4079517,918.791634 -13.3100603,918.914704 -13.2098656,919.036624 C-12.6685838,919.696834 -12.1192404,920.348992 -11.5675936,921 L-11.5606837,921 L-7.86154102,921 C-32.3263254,893.01356 -47.1010144,856.474302 -47.1010144,816.749016 C-47.1010144,815.38374 -47.0837394,814.021914 -47.0491895,812.663539 C-47.0376729,812.235668 -47.0146396,811.811248 -46.999668,811.383377 C-46.9697247,810.455173 -46.9409332,809.526969 -46.893715,808.603366 C-46.8672267,808.071978 -46.8257668,807.54519 -46.7935203,807.016103 C-46.7439987,806.200617 -46.7002355,805.383982 -46.6380457,804.571947 C-46.5908275,803.953145 -46.5286377,803.338943 -46.4745095,802.723591 C-46.411168,802.004722 -46.3547365,801.283552 -46.2821817,800.568134 C-46.2165369,799.925177 -46.1347688,799.286821 -46.062214,798.645015 C-45.9839009,797.960651 -45.9136495,797.272837 -45.826123,796.590774 C-45.7420516,795.928264 -45.6418569,795.269205 -45.5497238,794.608996 C-45.4575908,793.955687 -45.3735194,793.298929 -45.2733246,792.64677 C-45.1696749,791.964707 -45.049902,791.288395 -44.9358873,790.608632 C-44.8322376,789.984079 -44.7354979,789.356075 -44.6237865,788.732671 C-44.4994069,788.035656 -44.3600556,787.345541 -44.2264627,786.651977 C-44.1101447,786.052727 -44.0018883,785.450027 -43.879812,784.853078 C-43.7335508,784.13996 -43.5734696,783.432593 -43.417995,782.722925 C-43.2924637,782.15128 -43.1738424,781.576185 -43.0425527,781.006841 C-42.8778649,780.293722 -42.6982054,779.586355 -42.5231526,778.876687 C-42.3861046,778.315394 -42.254815,777.751801 -42.1108571,777.192808 C-41.926591,776.476239 -41.7273532,775.764271 -41.5327221,775.051153 C-41.3841575,774.507113 -41.2425029,773.960772 -41.0893317,773.419033 C-40.883184,772.693262 -40.6620646,771.973243 -40.4455519,771.252073 C-40.2889257,770.728737 -40.1392095,770.203099 -39.9768249,769.682063 C-39.7487956,768.950542 -39.508098,768.225922 -39.2697036,767.499001 C-39.1050158,766.994067 -38.9460862,766.486833 -38.7767917,765.9842 C-38.5280325,765.251529 -38.2666049,764.525758 -38.0086323,763.797688 C-37.8335795,763.307706 -37.6665883,762.813124 -37.4880805,762.325443 C-37.2185912,761.590472 -36.9364337,760.862401 -36.6565795,760.13318 C-36.4746167,759.658151 -36.2995639,759.180822 -36.1141461,758.709244 C-35.8227753,757.969671 -35.5164328,757.237 -35.214697,756.503178 C-35.0269759,756.047703 -34.8461648,755.588777 -34.653837,755.135601 C-34.3417362,754.397179 -34.0169671,753.665658 -33.6933497,752.932986 C-33.4987186,752.491313 -33.3098459,752.045039 -33.1106081,751.604516 C-32.7777774,750.866094 -32.4299751,750.135723 -32.0856277,749.403051 C-31.8852383,748.97518 -31.6894555,748.546159 -31.4856111,748.120588 C-31.1332021,747.389067 -30.7681249,746.665597 -30.4053509,745.940977 C-30.1957482,745.520007 -29.9907521,745.096737 -29.7765427,744.678068 C-29.4057071,743.952297 -29.0210516,743.233428 -28.6386993,742.513409 C-28.421035,742.105091 -28.2102806,741.694473 -27.9903129,741.288456 C-27.596444,740.561535 -27.1887552,739.842666 -26.7845214,739.122647 C-26.563402,738.731582 -26.348041,738.335916 -26.1246183,737.946002 C-25.7111711,737.224832 -25.283904,736.511714 -24.8589403,735.797445 C-24.6320626,735.415582 -24.4109432,735.031418 -24.1806106,734.651855 C-23.7452818,733.935287 -23.2984364,733.225619 -22.8527427,732.515951 C-22.6212584,732.14789 -22.3955324,731.777529 -22.1617447,731.411768 C-21.705686,730.69865 -21.2381107,729.994733 -20.7705354,729.289666 C-20.5355961,728.934258 -20.3052634,728.575398 -20.0668691,728.222289 C-19.5912321,727.516072 -19.1029269,726.817907 -18.6157733,726.119741 C-18.3762273,725.775834 -18.141288,725.428476 -17.8994387,725.08687 C-17.4030718,724.387554 -16.8951883,723.696289 -16.3873047,723.005025 C-16.1431521,722.672619 -15.9047578,722.336764 -15.6583018,722.006659 C-15.1435083,721.316545 -14.6183498,720.636782 -14.0931914,719.955869 C-13.8432804,719.631515 -13.5968245,719.302561 -13.3446102,718.980507 C-12.8125417,718.301895 -12.2701083,717.631334 -11.7265232,716.960772 C-11.4708539,716.64562 -11.2197913,716.325867 -10.9618187,716.011865 C-10.410172,715.342454 -9.84931194,714.682245 -9.28845189,714.022035 C-9.02817598,713.716085 -8.77250672,713.407833 -8.50992748,713.104183 C-7.94330911,712.446274 -7.36517412,711.798717 -6.78819078,711.151159 C-6.52100489,710.85211 -6.25842565,710.54961 -5.99008809,710.25286 C-5.40734644,709.609904 -4.81423982,708.974998 -4.2211332,708.341243 C-3.94818898,708.049095 -3.67869976,707.753496 -3.40345222,707.463648 C-2.80573895,706.834494 -2.19881237,706.214541 -1.59188579,705.595738 C-1.31087993,705.309341 -1.03332907,705.019493 -0.750019886,704.735396 C-0.139638315,704.121194 0.481108225,703.517344 1.10300643,702.913494 C1.39092226,702.632847 1.67538311,702.3499 1.96560227,702.071554 C2.5898038,701.473455 3.2243703,700.884557 3.8589368,700.29566 C4.15491428,700.021914 4.44743677,699.744718 4.74456591,699.472123 C5.38373907,698.888976 6.03097386,698.316181 6.67820866,697.742236 C6.98109612,697.475392 7.28052859,697.203947 7.58571937,696.939403 C8.23640916,696.372359 8.89516059,695.815667 9.55506369,695.260125 C9.86601279,694.997881 10.1735069,694.732187 10.4867593,694.473394 C11.1512691,693.921303 11.8238405,693.380713 12.4964119,692.840123 C12.8131193,692.585931 13.1275234,692.328289 13.4465341,692.075247 C14.1191055,691.543859 14.8008902,691.020522 15.4838266,690.499485 C15.8120506,690.248744 16.1368197,689.994552 16.4661954,689.746111 C17.1491318,689.233125 17.8389781,688.729342 18.5288244,688.227859 C18.8674135,687.981718 19.2025475,687.732127 19.5434398,687.488286 C20.2332862,686.993704 20.9323458,686.509474 21.6325571,686.025244 C21.9792078,685.784854 22.3247068,685.541013 22.6736608,685.302924 C23.3738721,684.826745 24.0809934,684.360918 24.7892664,683.896241 C25.146282,683.660452 25.5009943,683.423512 25.8603133,683.191174 C26.5662829,682.734548 27.2803142,682.288274 27.9943454,681.84315 C28.3628777,681.613112 28.7291066,681.380774 29.0999422,681.153036 C29.8128219,680.717114 30.5326114,680.290393 31.2535527,679.863672 C31.6324499,679.640535 32.0090438,679.412797 32.3902444,679.191961 C33.1111857,678.774442 33.8378852,678.367274 34.5657365,677.960107 C34.953847,677.742721 35.3408059,677.523034 35.7312198,677.309099 C36.455616,676.911133 37.1880739,676.523518 37.9193801,676.137054 C38.3213106,675.925419 38.7209378,675.710334 39.12402,675.502149 C39.8518712,675.126037 40.5854807,674.760276 41.3190903,674.394515 C41.7348408,674.188631 42.1482879,673.979297 42.56519,673.775713 C43.2953446,673.420304 44.0312575,673.075247 44.768322,672.730189 C45.1967408,672.530056 45.6217045,672.327623 46.0524266,672.13094 C46.7848845,671.796235 47.5231007,671.471881 48.2613169,671.147527 C48.702404,670.954295 49.1423394,670.757612 49.5845781,670.567831 C50.3193393,670.253829 51.0575555,669.950179 51.7969234,669.647678 C52.252982,669.460197 52.7067374,669.271566 53.1639477,669.088686 C53.898709,668.795387 54.6392285,668.51244 55.379748,668.229493 C55.8473233,668.051214 56.313747,667.869484 56.7836256,667.695805 C57.5183868,667.42321 58.256603,667.160966 58.9959709,666.898723 C59.4808212,666.727344 59.9645198,666.553665 60.4505217,666.385738 C61.1829796,666.134996 61.9200441,665.893456 62.6571087,665.653066 C63.1557789,665.489739 63.6521458,665.325262 64.1531193,665.166536 C64.8855772,664.935347 65.6237934,664.71336 66.360858,664.492524 C66.8721965,664.338398 67.3823834,664.183122 67.8960252,664.034748 C68.6284831,663.824263 69.3655476,663.621829 70.1014605,663.420546 C70.626619,663.277922 71.1506258,663.131848 71.676936,662.993825 C72.4070905,662.802894 73.1395484,662.621164 73.8731579,662.440584 C74.4144397,662.307161 74.9557215,662.171439 75.5004582,662.043768 C76.2225512,661.872389 76.9504024,661.712513 77.677102,661.551486 C78.2368103,661.428416 78.7953671,661.303045 79.3573788,661.185726 C80.0760167,661.035051 80.7992613,660.893577 81.5225059,660.753254 C82.0960342,660.640535 82.6695625,660.527816 83.2453942,660.421999 C83.9617288,660.290877 84.6803667,660.168957 85.3990047,660.047037 C85.989808,659.94812 86.5783079,659.846904 87.1714145,659.753738 C87.8808392,659.64217 88.5925671,659.539803 89.3065984,659.437436 C89.9123733,659.350021 90.5181482,659.262607 91.1273781,659.182093 C91.8321961,659.088928 92.540469,659.004964 93.2475903,658.92215 C93.8683369,658.848538 94.4890834,658.773776 95.1121333,658.708215 C95.8134962,658.633452 96.5171626,658.569042 97.2208289,658.503481 C97.8553954,658.444821 98.4899619,658.385011 99.1268317,658.333253 C99.8212847,658.278043 100.518041,658.230886 101.214797,658.183728 C101.86779,658.13887 102.520784,658.095163 103.17608,658.059507 C103.862471,658.021551 104.551166,657.991646 105.239861,657.962891 C105.906674,657.934136 106.574639,657.906532 107.243755,657.886979 C107.92554,657.866275 108.609628,657.854773 109.293716,657.842121 C109.741713,657.83522 110.18971,657.829469 110.638858,657.826019 L110.637707,921 L113.450069,921 L113.450069,832.296144 L113.450069,657.814517 C200.554974,658.574793 271.187638,729.579514 271.187638,816.749016 C271.187638,856.603124 256.416404,893.07222 232.063331,921 L235.765929,921 C259.604208,892.826079 274,856.437496 274,816.749016 C274,728.029057 202.107416,655.775229 113.450069,655.017253 L113.450069,655.017253 Z M258,68.560666 L266.653295,52.9628055 L287.576462,18.2831291 L308.637841,-16.6288877 L383.672607,-141 L514.369262,-141 C515.676528,-141 516.888196,-140.293777 517.530887,-139.15853 C518.173578,-138.022133 518.15515,-136.620039 517.480209,-135.502045 L404.619961,51.5687633 L331.626143,183.130925 C330.997273,184.268473 329.797122,184.983897 328.496767,185 L328.453,185 C327.166466,185 325.96977,184.316781 325.319016,183.207989 L287.576462,118.930219 L258,68.560666 Z M257.179544,66 L160.280978,-99.5223813 L136,-141 L288.354255,-141 L381,-141 L288.354255,13.0304426 L265.057439,51.7626177 L265.037894,51.797166 L265.032145,51.8063789 L260.748281,59.5509714 L257.179544,66 Z M191.335947,183.130326 C190.704731,184.267868 189.503457,184.983288 188.19948,185 C186.934738,185.023545 185.676921,184.327678 185.016855,183.207389 L-2.50187921,-135.540031 C-3.15963723,-136.656869 -3.166561,-138.050903 -2.51918863,-139.175793 C-1.87412419,-140.300682 -0.663618639,-141 0.636895902,-141 L131.694604,-141 L157.214462,-97.6192957 L255,68.5997918 L191.335947,183.130326 Z M328.777602,188 C328.802923,188 328.828245,188 328.854717,188 C331.162399,187.971212 333.290532,186.698775 334.406967,184.678998 L407.323984,53.0100273 L520.078165,-134.232754 C521.274017,-136.219137 521.308546,-138.707585 520.169092,-140.727362 C519.027335,-142.745988 516.879637,-144 514.562746,-144 L385.651334,-144 L287.929892,-144 L133.762878,-144 L130.50565,-144 L1.43655569,-144 C-0.865372162,-144 -3.00616507,-142.759806 -4.15022321,-140.760757 C-5.29428135,-138.761707 -5.28277171,-136.287077 -4.11799622,-134.299543 L182.912491,184.81603 C184.065757,186.78514 186.189285,188 188.468194,188 C188.494666,188 188.519987,188 188.546459,188 C190.854142,187.971212 192.982274,186.698775 194.098709,184.678998 L256.790563,71.4712968 L287.929892,124.600417 L323.220748,184.81603 C324.374014,186.78514 326.497543,188 328.777602,188 L328.777602,188 Z M563.445396,-181 L736,-181 L736,-195.820114 L736,-322 L733.186835,-322 L733.186835,-195.820114 L733.186835,-183.81093 L563.445396,-183.81093 C561.442082,-183.81093 559.812013,-185.438552 559.812013,-187.440275 L559.812013,-195.820114 L559.812013,-322 L557,-322 L557,-195.820114 L557,-187.440275 C557,-183.889203 559.8915,-181 563.445396,-181 L563.445396,-181 Z M546,-137.366366 C546,-139.369302 547.629663,-141 549.629913,-141 L684,-141 C683.503966,-140.9055 683.011384,-140.800628 682.517651,-140.702671 C682.03888,-140.607019 681.560109,-140.513672 681.08364,-140.414562 C680.252696,-140.240544 679.425205,-140.057307 678.598864,-139.871764 C678.185694,-139.778417 677.771373,-139.689679 677.359353,-139.594027 C676.292477,-139.345101 675.232505,-139.083497 674.173685,-138.813827 C674.007956,-138.771187 673.841077,-138.733156 673.675348,-138.690516 C672.440441,-138.371291 671.21244,-138.037085 669.990192,-137.689049 C669.687508,-137.603768 669.388276,-137.510421 669.086742,-137.422836 C668.176387,-137.158928 667.268333,-136.89041 666.366034,-136.610368 C665.945958,-136.480142 665.529335,-136.344155 665.111561,-136.210472 C664.328955,-135.961546 663.54865,-135.710314 662.772949,-135.448711 C662.317196,-135.296589 661.863744,-135.138706 661.410293,-134.981974 C660.67142,-134.726133 659.93485,-134.466835 659.20058,-134.200622 C658.740224,-134.033519 658.281018,-133.865263 657.822963,-133.694702 C657.093297,-133.421574 656.365934,-133.143837 655.639721,-132.86149 C655.193175,-132.687472 654.74778,-132.514607 654.302384,-132.335979 C653.552003,-132.036345 652.803923,-131.727492 652.058145,-131.416334 C651.65188,-131.246926 651.244464,-131.079823 650.83935,-130.906957 C650.004954,-130.550854 649.176312,-130.184379 648.349971,-129.814447 C648.040381,-129.676154 647.72849,-129.542472 647.420051,-129.401874 C645.140134,-128.364681 642.888989,-127.276781 640.666617,-126.139325 C640.358178,-125.981441 640.053191,-125.817795 639.747054,-125.657607 C638.952939,-125.243882 638.161125,-124.829004 637.375066,-124.402603 C636.99297,-124.195164 636.613175,-123.983116 636.23223,-123.773372 C635.524431,-123.382696 634.817784,-122.988563 634.116891,-122.587515 C633.714078,-122.357027 633.314719,-122.124235 632.914209,-121.89029 C632.237484,-121.496157 631.564212,-121.097414 630.893242,-120.692908 C630.491581,-120.450896 630.08992,-120.20658 629.689409,-119.961111 C629.018439,-119.547386 628.350922,-119.129051 627.686857,-118.707259 C627.302459,-118.464095 626.919212,-118.220931 626.537116,-117.974309 C625.839676,-117.522554 625.146839,-117.063884 624.456304,-116.601757 C624.120243,-116.377032 623.781881,-116.154611 623.446971,-115.927581 C622.63214,-115.373259 621.825365,-114.81087 621.022042,-114.242718 C620.819485,-114.099816 620.613475,-113.959219 620.412069,-113.815164 C619.392379,-113.087977 618.381896,-112.350417 617.379469,-111.60018 C617.26438,-111.513748 617.151592,-111.42501 617.037654,-111.338577 C616.168731,-110.683993 615.306713,-110.022494 614.4516,-109.351776 C614.153519,-109.117831 613.858891,-108.878124 613.561961,-108.641875 C612.894443,-108.110601 612.229228,-107.577023 611.570917,-107.035378 C611.229103,-106.754183 610.889589,-106.468379 610.550076,-106.183727 C609.941254,-105.675502 609.335885,-105.16382 608.73512,-104.646376 C608.381796,-104.343285 608.031925,-104.036737 607.682054,-103.731341 C607.0974,-103.218506 606.517351,-102.703367 605.940754,-102.182466 C605.594336,-101.870155 605.247917,-101.557845 604.9038,-101.242077 C604.321449,-100.707346 603.743701,-100.168006 603.169406,-99.6252079 C602.846006,-99.3198121 602.522605,-99.0167212 602.201506,-98.7090205 C601.584628,-98.1166679 600.974655,-97.5174007 600.368135,-96.9146762 C600.101128,-96.6507681 599.830669,-96.3903174 599.565964,-96.1241044 C598.779904,-95.3335327 598.001901,-94.5360463 597.230804,-93.7293404 C597.152543,-93.6475174 597.071981,-93.5668468 596.99372,-93.4850238 C596.132853,-92.5803607 595.283495,-91.6653258 594.443344,-90.7422238 C594.261503,-90.5428522 594.085416,-90.3388708 593.905877,-90.1394992 C593.262528,-89.4249883 592.624934,-88.7081725 591.995396,-87.9832897 C591.723786,-87.6721317 591.459081,-87.356364 591.189772,-87.0429011 C590.656909,-86.4194327 590.126348,-85.7948119 589.602692,-85.1632764 C589.310366,-84.8106307 589.020341,-84.4545277 588.730316,-84.0984246 C588.238885,-83.4957001 587.750907,-82.8906707 587.267532,-82.2810315 C586.972904,-81.9087944 586.680577,-81.5354048 586.389402,-81.1608628 C585.915234,-80.5512236 585.44452,-79.9381272 584.979559,-79.320421 C584.697591,-78.9470314 584.414471,-78.5736418 584.135955,-78.1979474 C583.659486,-77.55604 583.191073,-76.9095228 582.724962,-76.2618532 C582.469464,-75.9057502 582.210513,-75.5519521 581.957317,-75.1935442 C581.446321,-74.4709662 580.943381,-73.7403212 580.442743,-73.0085237 C580.247091,-72.7215669 580.046836,-72.4369149 579.853486,-72.1488057 C578.467813,-70.0928582 577.128174,-68.0023375 575.836874,-65.880701 C575.650429,-65.5753052 575.469739,-65.2652997 575.285596,-64.957599 C574.833296,-64.2050577 574.384448,-63.4502115 573.944807,-62.6907555 C573.720383,-62.3023842 573.501714,-61.9105557 573.279592,-61.5198795 C572.889439,-60.8318747 572.501589,-60.1415649 572.121794,-59.4466454 C571.889314,-59.0237011 571.661438,-58.5984518 571.433561,-58.1732026 C571.072181,-57.5001794 570.715404,-56.8236989 570.363232,-56.1449135 C570.137657,-55.7092923 569.913233,-55.2725187 569.691111,-54.8345927 C569.343541,-54.1488927 569.001726,-53.4597354 568.664515,-52.7682732 C568.453902,-52.3372618 568.242138,-51.9074028 568.034977,-51.4740865 C567.687408,-50.7468987 567.347895,-50.0139488 567.010683,-49.2809989 C566.827691,-48.8811033 566.641247,-48.4835125 566.460557,-48.0824645 C566.078461,-47.2331184 565.706723,-46.3768578 565.338437,-45.5194447 C565.214141,-45.230183 565.085241,-44.9443786 564.963247,-44.6539645 C564.476419,-43.5003751 564.001101,-42.3398711 563.540744,-41.1736048 C563.460182,-40.9719284 563.386525,-40.7667946 563.307113,-40.5639657 C562.931922,-39.6028333 562.563637,-38.6393959 562.20686,-37.6701965 C562.058395,-37.267996 561.916836,-36.8623381 561.771823,-36.4589852 C561.493307,-35.6833951 561.217093,-34.9066526 560.950086,-34.1253003 C560.792414,-33.6643256 560.640496,-33.2010459 560.486277,-32.7389187 C560.243439,-32.0048163 560.002902,-31.2695615 559.769271,-30.5308494 C559.616203,-30.0468259 559.467737,-29.5616499 559.319272,-29.076474 C559.095999,-28.3481338 558.879632,-27.6186412 558.666717,-26.8868437 C558.525157,-26.3959056 558.383597,-25.9049674 558.24549,-25.4117244 C558.037179,-24.6672501 557.835773,-23.9181661 557.637819,-23.1690821 C557.511221,-22.6908207 557.383472,-22.2137118 557.261478,-21.7331456 C557.05777,-20.9322019 556.86442,-20.1289533 556.672221,-19.3233999 C556.569792,-18.8923885 556.462759,-18.4625295 556.363782,-18.0303656 C556.132453,-17.0208308 555.913783,-16.0055339 555.700868,-14.987932 C555.653682,-14.7597495 555.600741,-14.5327194 555.553554,-14.3033845 C555.298056,-13.0541428 555.05752,-11.7991389 554.831945,-10.5395253 C554.769797,-10.1937942 554.715705,-9.84575827 554.655858,-9.49887474 C554.497035,-8.58383979 554.341665,-7.66880484 554.198954,-6.74916013 C554.126448,-6.27896585 554.060847,-5.80646669 553.991794,-5.33511997 C553.874403,-4.53302384 553.759313,-3.73092771 553.653431,-2.92537427 C553.58668,-2.41138738 553.524532,-1.89509562 553.462383,-1.37880386 C553.369161,-0.607823525 553.279392,0.164309245 553.196527,0.937594451 C553.140134,1.47002033 553.087193,2.00244621 553.035402,2.53487209 C552.960594,3.30469999 552.892692,4.07683276 552.829393,4.85011796 C552.785659,5.3813914 552.741925,5.91151241 552.703946,6.44509073 C552.646401,7.24257711 552.598063,8.04236837 552.552028,8.8444645 C552.522105,9.34923189 552.491031,9.85515172 552.466862,10.3610715 C552.424279,11.2438383 552.393205,12.1289099 552.365583,13.0139815 C552.351773,13.442688 552.332207,13.8690897 552.321849,14.2977962 C552.290775,15.6115744 552.272361,16.9299623 552.272361,18.2518075 C552.272361,19.5310125 552.288474,20.8067602 552.318397,22.0790507 C552.328755,22.4996901 552.347169,22.9180248 552.36098,23.3386643 C552.38745,24.1880103 552.413921,25.0385088 552.454202,25.8843975 C552.47722,26.3857076 552.509445,26.8847128 552.537066,27.383718 C552.5808,28.1489362 552.623383,28.9141543 552.677475,29.6759152 C552.714304,30.2048837 552.759188,30.7315474 552.80062,31.2593636 C552.859316,31.9865513 552.919162,32.7148914 552.987065,33.4397743 C553.037704,33.9837245 553.094098,34.5242175 553.150492,35.0658629 C553.224149,35.775764 553.301258,36.4845128 553.385274,37.1921091 C553.448573,37.7360593 553.515324,38.2788571 553.584378,38.8216549 C553.674147,39.5246415 553.769671,40.2264756 553.868648,40.9260048 C553.944607,41.4641929 554.021717,42.002381 554.102279,42.5394166 C554.209312,43.244708 554.323251,43.9476946 554.439491,44.6495287 C554.525808,45.1761924 554.612124,45.7017036 554.704196,46.2272149 C554.829643,46.9463356 554.964297,47.6608465 555.100103,48.3765099 C555.194476,48.8778199 555.286547,49.3802825 555.386675,49.8792877 C555.537442,50.6364388 555.698566,51.3889801 555.859691,52.1426739 C555.956366,52.596734 556.049588,53.0530991 556.150867,53.5060068 C556.34882,54.3945357 556.560584,55.2784549 556.773499,56.162374 C556.848307,56.473532 556.917361,56.7858424 556.994471,57.095848 C557.289099,58.2874678 557.597538,59.4756303 557.918637,60.6568782 C557.995747,60.9380728 558.079762,61.2169626 558.156872,61.4970048 C558.407766,62.397058 558.659811,63.2959589 558.925667,64.1890975 C559.052266,64.6154992 559.185769,65.0372911 559.31582,65.4613879 C559.543696,66.2081671 559.772724,66.9537938 560.010958,67.6948108 C560.160574,68.1580904 560.315945,68.6179128 560.469013,69.0788876 C560.700343,69.7784168 560.933974,70.4767936 561.175661,71.1728655 C561.340239,71.6476696 561.510571,72.1201687 561.679752,72.5926679 C561.921439,73.2703008 562.166579,73.9456289 562.417474,74.6186521 C562.59356,75.0934561 562.77425,75.5659553 562.956091,76.037302 C563.213891,76.7103252 563.475143,77.3798911 563.74215,78.0483045 C563.926293,78.5104317 564.112737,78.9714065 564.300333,79.4312289 C564.578849,80.1077094 564.861968,80.7830374 565.14854,81.4560606 C565.337286,81.8985964 565.524882,82.3411322 565.717081,82.7825156 C566.020916,83.4762826 566.331657,84.1677448 566.643549,84.8580546 C566.829993,85.2683221 567.015287,85.6808946 567.205184,86.0911621 C567.546999,86.8287218 567.89687,87.5605192 568.250194,88.2923167 C568.420526,88.6472673 568.588556,89.0033703 568.762341,89.3571685 C569.181265,90.2111243 569.610548,91.0581655 570.044434,91.9040542 C570.159524,92.1287794 570.27116,92.3558095 570.3874,92.5805347 C571.519878,94.7620979 572.700693,96.9160026 573.928695,99.0387915 C574.003503,99.1690168 574.081763,99.2969373 574.157722,99.4271627 C574.690585,100.344503 575.231504,101.257233 575.782782,102.163048 C575.928945,102.403907 576.079712,102.640157 576.227026,102.879864 C576.715004,103.672741 577.207586,104.463312 577.708224,105.246969 C577.885461,105.524707 578.066151,105.798987 578.24569,106.074419 C578.729065,106.820046 579.215892,107.563368 579.710776,108.300927 C579.900673,108.582122 580.092872,108.863317 580.28392,109.143359 C580.781105,109.875156 581.284045,110.602344 581.792739,111.324922 C581.983787,111.595745 582.175986,111.865415 582.368185,112.133933 C582.892992,112.869188 583.423553,113.59868 583.959869,114.324715 C584.14171,114.571337 584.323551,114.816806 584.506543,115.062275 C585.076234,115.822883 585.652831,116.57773 586.235182,117.329119 C586.389402,117.52849 586.543621,117.727862 586.698992,117.926081 C587.343491,118.750073 587.997198,119.567151 588.65781,120.377314 C588.754485,120.497168 588.850009,120.617021 588.947835,120.736875 C590.845655,123.053273 592.824039,125.301678 594.846156,127.508594 C597.847682,130.786125 600.965448,133.955327 604.224774,136.977016 C604.230529,136.982779 604.236283,136.987388 604.242038,136.993151 C605.144337,137.828667 606.055843,138.654965 606.976557,139.469738 C606.997273,139.489329 607.01914,139.507768 607.039856,139.526207 C607.959419,140.339828 608.889339,141.143076 609.827316,141.937105 C609.833071,141.941715 609.837674,141.946325 609.843429,141.950934 C610.969001,142.901695 612.111837,143.831712 613.26388,144.752509 C613.546999,144.978386 613.828967,145.205416 614.113238,145.428989 C615.222698,146.303689 616.342515,147.168017 617.474993,148.013905 C617.745453,148.215582 618.019365,148.412649 618.290976,148.613173 C619.2255,149.30233 620.169231,149.982268 621.119868,150.651834 C621.459381,150.89154 621.796592,151.133552 622.138407,151.369802 C623.231755,152.129258 624.336611,152.873732 625.450674,153.60553 C625.877655,153.886724 626.308089,154.162157 626.737371,154.439894 C627.602842,154.996521 628.472917,155.545081 629.348745,156.086726 C629.882759,156.416323 630.416773,156.743615 630.95424,157.06745 C631.877255,157.622925 632.807176,158.16918 633.7417,158.706216 C634.288373,159.020831 634.837349,159.331989 635.387475,159.639689 C636.265606,160.130628 637.14834,160.612346 638.035678,161.08715 C638.790663,161.490503 639.550251,161.885789 640.312142,162.27877 C640.984263,162.624501 641.657535,162.966775 642.33541,163.303287 C642.98106,163.623664 643.626711,163.945194 644.276965,164.257504 C645.301258,164.749595 646.331307,165.231314 647.36826,165.701508 C648.07721,166.02419 648.791914,166.337653 649.506618,166.649964 C650.070555,166.895433 650.635643,167.137444 651.203032,167.378304 C652.398809,167.884224 653.603793,168.376314 654.814531,168.854576 C655.358903,169.068929 655.900973,169.285587 656.447647,169.494178 C657.23831,169.797269 658.033576,170.093445 658.831144,170.383859 C659.330631,170.565944 659.833571,170.741115 660.33536,170.919743 C661.665791,171.388784 663.005429,171.842845 664.350822,172.278466 C664.845705,172.438654 665.340589,172.598843 665.837774,172.754422 C666.668718,173.014873 667.500813,173.270714 668.336361,173.518488 C668.810528,173.657933 669.288148,173.789311 669.763467,173.924146 C671.14799,174.319432 672.538267,174.697431 673.937752,175.056991 C674.485576,175.196436 675.033401,175.333576 675.583527,175.468411 C676.786209,175.763435 677.994646,176.043477 679.208837,176.310843 C679.923541,176.468727 680.639396,176.62661 681.357552,176.775275 C681.706272,176.846726 682.049238,176.930854 682.397958,177 L549.629913,177 C547.629663,177 546,175.370454 546,173.366366 L546,-137.366366 Z M686.718523,-138.774515 C687.310301,-138.87363 687.899771,-138.975051 688.492703,-139.068404 C689.204451,-139.180197 689.917352,-139.282769 690.631408,-139.385342 C691.239335,-139.472932 691.846109,-139.560523 692.456343,-139.641198 C693.162324,-139.734551 693.871765,-139.818684 694.580052,-139.901664 C695.201822,-139.975424 695.823593,-140.050337 696.44767,-140.11603 C697.150189,-140.190942 697.855016,-140.255483 698.559843,-140.321175 C699.195456,-140.379953 699.831069,-140.439883 700.468989,-140.491746 C701.164587,-140.547066 701.862492,-140.594319 702.560398,-140.641571 C703.214468,-140.686519 703.868538,-140.730314 704.523761,-140.767194 C705.212438,-140.804074 705.902268,-140.834039 706.592099,-140.862852 C707.260012,-140.891665 707.929078,-140.919325 708.599298,-140.94007 C709.282207,-140.959662 709.967423,-140.971187 710.652639,-140.983865 C711.101375,-140.99078 711.550111,-140.996542 712,-141 L712,177 L703.495937,177 C619.663087,171.834478 554,102.107998 554,18.242602 C554,16.87458 554.017303,15.5100155 554.05191,14.1489086 C554.063446,13.7201772 554.086517,13.2949033 554.101514,12.8673243 C554.131506,11.9361013 554.160345,11.0060307 554.207641,10.0805702 C554.234173,9.54811341 554.275701,9.02026667 554.308001,8.49011492 C554.357604,7.67298973 554.40144,6.85471204 554.463732,6.04104436 C554.511028,5.42099731 554.573321,4.80556029 554.627538,4.18897076 C554.690984,3.46865588 554.747509,2.746036 554.820183,2.02917864 C554.885936,1.38492902 554.966685,0.745289413 555.040513,0.102192294 C555.118956,-0.583547465 555.189323,-1.27274473 555.276994,-1.95617949 C555.361204,-2.62002167 555.461564,-3.28040635 555.553849,-3.94194353 C555.646134,-4.59656568 555.730344,-5.25464535 555.830704,-5.908115 C555.934524,-6.59154976 556.054495,-7.26922199 556.168698,-7.95035173 C556.272518,-8.57616129 556.369417,-9.20658087 556.481313,-9.83008542 C556.605898,-10.5285027 556.745479,-11.220005 556.879292,-11.9149648 C556.994648,-12.5154193 557.104237,-13.1193313 557.226514,-13.7174807 C557.371863,-14.4320331 557.533362,-15.1408229 557.689093,-15.8519178 C557.814831,-16.4247121 557.933648,-17.000964 558.065154,-17.5714534 C558.230114,-18.2860058 558.41007,-18.9947956 558.585411,-19.7058905 C558.722685,-20.2671598 558.854191,-20.8330392 558.998386,-21.393156 C559.182956,-22.1123184 559.382523,-22.8245657 559.577475,-23.5391181 C559.726284,-24.0842524 559.868173,-24.6316917 560.021596,-25.174521 C560.228084,-25.9017509 560.449568,-26.6232182 560.666438,-27.3458381 C560.823322,-27.8702273 560.973286,-28.3969216 561.135938,-28.9190058 C561.36319,-29.6519982 561.605438,-30.3780756 561.844225,-31.106458 C562.009185,-31.6124072 562.168376,-32.1206613 562.33795,-32.6243055 C562.585966,-33.3584504 562.848978,-34.0856803 563.107376,-34.8152152 C563.282718,-35.3061818 563.449984,-35.8017585 563.628786,-36.2904201 C563.89872,-37.02687 564.181343,-37.7564049 564.461659,-38.4870923 C564.643922,-38.9630764 564.819263,-39.4413655 565.004987,-39.913892 C565.296838,-40.654952 565.602532,-41.3890969 565.905919,-42.1243943 C566.09395,-42.5807858 566.275059,-43.0406348 566.46655,-43.4947213 C566.779166,-44.2346288 567.105624,-44.9676212 567.429775,-45.7017661 C567.624727,-46.1443275 567.813911,-46.591499 568.013478,-47.032908 C568.346857,-47.7728154 568.695233,-48.5046553 569.040148,-49.2388002 C569.240868,-49.6675316 569.43582,-50.0974156 569.641154,-50.523842 C569.994145,-51.2568344 570.359824,-51.9817593 570.723196,-52.7078367 C570.933144,-53.1296531 571.138479,-53.5537744 571.353041,-53.9732858 C571.724488,-54.7005157 572.109778,-55.4208306 572.492761,-56.142298 C572.710784,-56.5514368 572.921886,-56.9628807 573.142217,-57.3697145 C573.536735,-58.0980969 573.943943,-58.8184118 574.349997,-59.5398792 C574.571481,-59.9317305 574.787197,-60.3281918 575.010988,-60.7188906 C575.425117,-61.4415104 575.851935,-62.1560628 576.278753,-62.8717676 C576.506005,-63.2543989 576.727489,-63.6393352 576.958202,-64.0196614 C577.394248,-64.7376713 577.841831,-65.4487661 578.288259,-66.159861 C578.520125,-66.5286622 578.746224,-66.8997684 578.980397,-67.2662646 C579.437208,-67.980817 579.905554,-68.6861493 580.372747,-69.3926341 C580.609227,-69.7487578 580.83994,-70.108339 581.078727,-70.4621576 C581.555148,-71.169795 582.043105,-71.8693648 582.532216,-72.5689346 C582.772157,-72.9135332 583.007484,-73.2615894 583.249732,-73.603883 C583.746917,-74.3046053 584.255638,-74.9972601 584.764359,-75.6899149 C585.007761,-76.0229885 585.247702,-76.3595196 585.494564,-76.6902882 C586.010207,-77.3817904 586.536231,-78.0629202 587.062256,-78.7452024 C587.312579,-79.0702085 587.558288,-79.3998246 587.812072,-79.7225257 C588.345017,-80.4036554 588.888345,-81.0744126 589.431673,-81.7463223 C589.688918,-82.0621084 589.940394,-82.3825044 590.198792,-82.6971379 C590.751349,-83.3678952 591.313134,-84.0294323 591.874919,-84.6909695 C592.135624,-84.9975355 592.391715,-85.307559 592.653573,-85.6106675 C593.22228,-86.2698997 593.801368,-86.9187594 594.379303,-87.567619 C594.64693,-87.86727 594.909942,-88.1703785 595.178722,-88.4677245 C595.762425,-89.1131266 596.356509,-89.7481562 596.950594,-90.3831858 C597.223988,-90.6759217 597.493922,-90.9721152 597.769623,-91.2625462 C598.368322,-91.8929657 598.97625,-92.5141653 599.584177,-93.1342123 C599.865646,-93.4211858 600.143655,-93.7116167 600.426278,-93.9962852 C601.03882,-94.6117222 601.66059,-95.2167867 602.283514,-95.8218512 C602.571904,-96.1030621 602.856834,-96.386578 603.147532,-96.665484 C603.772763,-97.2647859 604.408376,-97.8548679 605.043989,-98.4449498 C605.340454,-98.7192457 605.633459,-98.9969991 605.931078,-99.2701425 C606.571305,-99.854462 607.219608,-100.429561 607.86791,-101.003508 C608.171297,-101.270889 608.471223,-101.54288 608.775764,-101.807956 C609.427526,-102.37614 610.088518,-102.933952 610.749509,-103.490611 C611.060971,-103.753382 611.368972,-104.019611 611.682741,-104.278924 C612.347193,-104.832126 613.020874,-105.373803 613.695708,-105.915479 C614.012937,-106.170183 614.32786,-106.428344 614.647397,-106.680742 C615.321077,-107.214351 616.003986,-107.73874 616.688049,-108.260825 C617.016814,-108.51207 617.342119,-108.766774 617.672038,-109.015715 C618.3561,-109.529731 619.047084,-110.034528 619.738068,-110.538172 C620.077216,-110.783655 620.412902,-111.033749 620.754357,-111.27808 C621.445341,-111.773656 622.145553,-112.25886 622.846919,-112.744064 C623.194142,-112.984938 623.54021,-113.229269 623.88974,-113.467837 C624.591106,-113.944973 625.299393,-114.411737 626.008834,-114.877349 C626.366439,-115.113612 626.721736,-115.351028 627.080494,-115.583834 C627.788781,-116.041378 628.50399,-116.488549 629.219199,-116.934568 C629.588339,-117.165069 629.955172,-117.397875 630.326619,-117.626071 C631.040674,-118.062869 631.761651,-118.490448 632.483781,-118.918027 C632.863303,-119.141613 633.240518,-119.369809 633.622347,-119.591089 C634.344477,-120.009448 635.072375,-120.417435 635.801427,-120.825421 C636.190177,-121.043244 636.577774,-121.263372 636.968832,-121.477738 C637.694423,-121.876505 638.428089,-122.263746 639.160601,-122.65214 C639.563194,-122.8642 639.96348,-123.079718 640.367227,-123.288322 C641.096279,-123.66519 641.831098,-124.031687 642.565917,-124.398183 C642.982353,-124.604481 643.395329,-124.814237 643.814072,-125.01823 C644.545431,-125.374354 645.282557,-125.720105 646.020837,-126.065856 C646.448809,-126.266391 646.875627,-126.469232 647.307059,-126.66631 C648.040725,-127.001689 648.780159,-127.326695 649.519592,-127.651701 C649.961407,-127.845322 650.402068,-128.0424 650.845036,-128.232563 C651.579855,-128.547196 652.320442,-128.851457 653.061029,-129.154566 C653.51784,-129.342424 653.972344,-129.531435 654.430308,-129.714683 C655.166281,-130.008571 655.908022,-130.292087 656.649762,-130.575603 C657.118109,-130.754241 657.585302,-130.936337 658.055955,-131.110365 C658.790774,-131.383508 659.531362,-131.646279 660.271949,-131.90905 C660.757599,-132.080773 661.240941,-132.254801 661.728898,-132.423067 C662.462564,-132.674313 663.200844,-132.916338 663.939124,-133.157212 C664.437463,-133.320867 664.935802,-133.485675 665.437602,-133.644721 C666.171268,-133.876374 666.910701,-134.098807 667.648981,-134.320088 C668.161163,-134.474524 668.672191,-134.630112 669.18668,-134.778785 C669.920346,-134.989693 670.658626,-135.192533 671.395752,-135.394222 C671.921777,-135.537132 672.446648,-135.6835 672.973826,-135.8218 C673.705184,-136.013116 674.43885,-136.195212 675.17367,-136.376155 C675.715844,-136.509845 676.258018,-136.645841 676.8025,-136.773769 C677.526937,-136.945492 678.254835,-137.10569 678.983887,-137.26704 C679.544518,-137.390358 680.103996,-137.515981 680.666934,-137.633536 C681.386757,-137.784514 682.111195,-137.926272 682.835632,-138.066878 C683.410106,-138.178671 683.98458,-138.292769 684.561361,-138.398799 C685.278877,-138.530184 685.9987,-138.65235 686.718523,-138.774515 L686.718523,-138.774515 Z M715,33.5535349 L715,-141 C802.25034,-140.239411 873,-69.2054262 873,18 C873,105.205426 802.249186,176.239411 715,177 L715,33.5535349 Z M549.443556,179.497739 L704.056663,179.497739 C704.836339,179.546122 705.616015,179.599113 706.395691,179.652103 C708.879829,179.823748 711.44919,180 714.045039,180 C803.347318,180 876,107.32763 876,18 C876,-70.8576244 804.107416,-143.222417 715.450069,-143.98272 L715.450069,-144 L714.045039,-144 L712.638858,-144 L549.443556,-144 C545.890675,-144 543,-141.109694 543,-137.555849 L543,173.052436 C543,176.60628 545.890675,179.497739 549.443556,179.497739 L549.443556,179.497739 Z M1468.03844,51.797166 L1468.03269,51.8063789 L1463.7477,59.5509714 L1460.18013,66 L1363.28201,-99.5223813 L1339,-141 L1491.35469,-141 L1584,-141 L1491.35469,13.0304426 L1468.05683,51.7626177 L1468.03844,51.797166 Z M1395.33595,183.130326 C1394.70473,184.267868 1393.50346,184.983288 1392.19948,185 C1390.94974,185.023545 1389.67577,184.327678 1389.0157,183.207389 L1201.49812,-135.540031 C1200.84036,-136.656869 1200.83344,-138.050903 1201.48081,-139.175793 C1202.12588,-140.300682 1203.33638,-141 1204.6369,-141 L1335.69345,-141 L1361.21446,-97.6192957 L1459,68.5997918 L1395.33595,183.130326 Z M1492.02383,18.2788428 L1513.07708,-16.6734348 L1588.0829,-141.187973 L1706,-141.187973 L1706,-144 L1589.77535,-144 L1492.02383,-144 L1337.80753,-144 L1334.54926,-144 L1205.43891,-144 C1203.13625,-144 1200.99477,-142.759806 1199.85034,-140.760757 C1198.70477,-138.760555 1198.71743,-136.285925 1199.88373,-134.299543 L1386.97285,184.81603 C1388.12649,186.78514 1390.2507,188 1392.53033,188 C1392.55681,188 1392.58214,188 1392.60747,188 C1394.91589,187.971212 1397.04586,186.698775 1398.16265,184.678998 L1460.87454,71.4712968 L1492.02383,124.600417 L1527.32596,184.81603 C1528.4796,186.78514 1530.6038,188 1532.88344,188 C1532.90992,188 1532.93525,188 1532.96173,188 C1535.27015,187.971212 1537.39897,186.698775 1538.51576,184.678998 L1611.45493,53.0100273 L1706,-103.943006 L1706,-109.390877 L1609.02217,51.6028622 L1536.05651,183.316743 C1535.42673,184.455602 1534.2282,185.171851 1532.92719,185.187973 C1531.59971,185.212155 1530.40923,184.515481 1529.75182,183.393895 L1492.02383,119.041999 L1462.45762,68.6143601 L1471.10873,52.998512 L1492.02383,18.2788428 Z M1323.4386,-181 L1491.44861,-181 L1558.49059,-181 C1579.52219,-181 1599.32131,-186.375529 1616.59103,-195.820114 C1654.33882,-216.463525 1680,-256.560134 1680,-302.541047 C1680,-309.134415 1679.45683,-315.635696 1678.42113,-322 L1675.5649,-322 C1676.62592,-315.63915 1677.1898,-309.137868 1677.1898,-302.541047 C1677.1898,-255.71179 1649.94285,-215.13288 1610.4758,-195.820114 C1594.76654,-188.133223 1577.12512,-183.81093 1558.49059,-183.81093 L1491.44861,-183.81093 L1323.4386,-183.81093 C1321.43855,-183.81093 1319.8102,-185.438552 1319.8102,-187.440275 L1319.8102,-195.820114 L1319.8102,-322 L1317,-322 L1317,-195.820114 L1317,-187.440275 C1317,-183.889203 1319.88845,-181 1323.4386,-181 L1323.4386,-181 Z M909.4514,-181 L1109.5486,-181 C1113.10644,-181 1116,-183.889203 1116,-187.440275 L1116,-195.820114 L1116,-322 L1113.18486,-322 L1113.18486,-195.820114 L1113.18486,-187.440275 C1113.18486,-185.438552 1111.55299,-183.81093 1109.5486,-183.81093 L909.4514,-183.81093 C907.445861,-183.81093 905.815135,-185.438552 905.815135,-187.440275 L905.815135,-195.820114 L905.815135,-322 L903,-322 L903,-195.820114 L903,-187.440275 C903,-183.889203 905.894711,-181 909.4514,-181 L909.4514,-181 Z M906,-20 L1072.7043,-20 L1072.7043,-3.43981015 C1072.7043,0.121334818 1075.59287,3.01757881 1079.14318,3.01757881 L1118.37029,3.01757881 C1120.37158,3.01757881 1122,4.65097269 1122,6.65721903 L1122,27.9617544 C1122,29.969155 1120.37158,31.6013946 1118.37029,31.6013946 L1079.14318,31.6013946 C1075.59287,31.6013946 1072.7043,34.4987929 1072.7043,38.0599379 L1072.7043,173.36036 C1072.7043,175.36776 1071.07703,177 1069.07574,177 L909.62856,177 C907.62727,177 906,175.36776 906,173.36036 L906,-20 Z M906,-137.382065 C906,-139.376347 907.630157,-141 909.634996,-141 L1073,-141 L1073,-23 L906,-23 L906,-137.382065 Z M1076,-141 L1172.37699,-141 C1174.37522,-141 1176,-139.376347 1176,-137.382065 L1176,-26.6179354 C1176,-24.6236532 1174.37522,-23 1172.37699,-23 L1076,-23 L1076,-141 Z M909.454453,180 L1069.31583,180 C1072.8742,180 1075.77028,177.112991 1075.77028,173.564614 L1075.77028,38.7493234 C1075.77028,36.7491204 1077.40293,35.1227334 1079.40942,35.1227334 L1118.73843,35.1227334 C1122.29796,35.1227334 1125.19404,32.235724 1125.19404,28.6873478 L1125.19404,7.45920162 C1125.19404,3.91082544 1122.29796,1.02496617 1118.73843,1.02496617 L1079.40942,1.02496617 C1077.40293,1.02496617 1075.77028,-0.602571042 1075.77028,-2.60162382 L1075.77028,-19.1024357 L1172.54555,-19.1024357 C1176.10392,-19.1024357 1179,-21.988295 1179,-25.5366712 L1179,-136.565765 C1179,-140.114141 1176.10392,-143 1172.54555,-143 L909.454453,-143 L904.408811,-143 L904.408811,-140.567321 C903.529602,-139.466576 903,-138.078281 903,-136.565765 L903,-21.9100812 L903,-19.1024357 L903,173.564614 C903,177.112991 905.896081,180 909.454453,180 L909.454453,180 Z M866.057439,850.762618 L866.037894,850.798318 L866.032145,850.806379 L861.747132,858.552123 L858.179544,865 L762.153617,700.967805 L737,658 L982,658 L866.057439,850.762618 Z M1116.56275,655 L987.650183,655 L735.762878,655 L732.50565,655 L603.436556,655 C601.134628,655 598.993835,656.239906 597.849777,658.235486 C596.705719,660.232217 596.717228,662.705127 597.882004,664.689206 L748.277309,921 L751.535688,921 L600.304783,663.268721 C599.649884,662.150736 599.642979,660.756704 600.288669,659.631818 C600.932058,658.506931 602.139419,657.807615 603.436556,657.807615 L734.15268,657.807615 L760.442998,702.613294 L857.13893,867.408015 L827.425645,921 L830.637986,921 L858.790563,870.222532 L888.585567,921 L891.843945,921 L860.373139,867.368909 L869.028388,851.759671 L985.958266,657.808766 L1116.56275,657.808766 C1117.86909,657.808766 1119.0799,658.514983 1119.72214,659.651371 C1120.36438,660.78776 1120.34596,662.188692 1119.6715,663.306677 L1006.89085,850.375991 L967.735054,921 L970.947394,921 L1009.32398,851.781524 L1122.07817,664.755917 C1123.27402,662.771838 1123.30855,660.286276 1122.16909,658.269992 C1121.02734,656.253708 1118.87964,655 1116.56275,655 L1116.56275,655 Z M1476,364.374914 C1476,366.373772 1474.36982,368 1472.36612,368 L1338,368 L1338,221 L1472.36612,221 C1474.36982,221 1476,222.626228 1476,224.625086 L1476,364.374914 Z M1162,368 L1335,368 L1335,221 L1162,221 L1162,368 Z M1335,615 L1165.62553,615 C1163.62654,615 1162,613.3694 1162,611.366585 L1162,371 L1335,371 L1335,615 Z M1159,368 L1024.63504,368 C1022.63133,368 1021,366.373772 1021,364.374914 L1021,224.625086 C1021,222.626228 1022.63133,221 1024.63504,221 L1159,221 L1159,368 Z M1471.56267,218 L1337.42047,218 L1334.60982,218 L1161.39018,218 L1158.58068,218 L1024.43963,218 C1020.88891,218 1018,220.893228 1018,224.450664 L1018,364.570994 C1018,368.128431 1020.88891,371.021659 1024.43963,371.021659 L1158.58068,371.021659 L1158.58068,611.549336 C1158.58068,615.106772 1161.4696,618 1165.02031,618 L1337.42047,618 L1337.42047,371.021659 L1471.56267,371.021659 C1475.11224,371.021659 1478,368.128431 1478,364.570994 L1478,224.450664 C1478,220.893228 1475.11224,218 1471.56267,218 L1471.56267,218 Z M1076,495.308585 C1076,560.755253 1022.65995,614 957.09473,614 L721.634699,614 C719.631176,614 718,612.371773 718,610.371873 L718,444.640234 L718,444.611467 C736.410967,455.11727 757.178207,460.658995 778.224418,460.658995 L991.644546,460.660146 C995.199704,460.660146 998.092016,457.771913 998.092016,454.223184 L998.092016,384 C1044.77709,401.131479 1076,445.610266 1076,495.308585 L1076,495.308585 Z M995,383.388668 L995,454.383427 C995,456.37759 993.371611,458 991.370098,458 L778.164016,457.998853 C757.095152,457.998853 736.311889,452.306651 718,441.547574 L718,380.617721 C718,378.62241 719.62954,377 721.631054,377 L956.854933,377 C969.690876,377 982.517605,379.159388 995,383.388668 L995,383.388668 Z M714.873564,380.641368 L714.873564,440 C679.838881,418.118625 659,380.767836 659,339.589646 C659,274.19846 712.347534,221 777.920545,221 L991.366022,221 C993.369783,221 995,222.625697 995,224.623901 L995,380.422922 L995,380.439018 C982.496672,376.304643 969.660152,374.208713 956.812103,374.208713 L721.324105,374.208713 C717.767373,374.208713 714.873564,377.094497 714.873564,380.641368 L714.873564,380.641368 Z M991.893665,218 L778.630707,218 C711.563275,218 657,272.620776 657,339.758884 C657,382.622246 678.909631,421.43578 715.637637,443.764027 L715.637637,611.549336 C715.637637,615.106772 718.528971,618 722.082663,618 L957.369293,618 C1024.43672,618 1079,563.379224 1079,496.241116 C1079,444.914861 1046.62167,399.02912 998.336387,381.717031 L998.336387,224.450664 C998.336387,220.893228 995.446205,218 991.893665,218 L991.893665,218 Z M568.371549,399.431212 C570.372262,399.431212 572,401.061812 572,403.064627 L572,431.772407 C572,433.775222 570.372262,435.40467 568.371549,435.40467 L510.989764,435.40467 L510.989764,611.366585 C510.989764,613.3694 509.360875,615 507.360162,615 L307.629602,615 C305.628889,615 304,613.3694 304,611.366585 L304,371 L510.990915,371 L510.990915,399.431212 L568.371549,399.431212 Z M304,224.625086 C304,222.626228 305.62896,221 307.629761,221 L511,221 L511,368 L304,368 L304,224.625086 Z M514,221 L635.359358,221 C637.366156,221 639,222.626228 639,224.625086 L639,368 L514,368 L514,221 Z M642,371.021659 L642,224.450664 C642,220.893228 639.110958,218 635.560083,218 L514.584024,218 L511.774401,218 L308.438766,218 C304.889042,218 302,220.893228 302,224.450664 L302,368.205691 L302,371.021659 L302,611.549336 C302,615.105619 304.889042,618 308.438766,618 L508.144107,618 C511.694982,618 514.582873,615.105619 514.582873,611.549336 L514.582873,438.28546 L569.14779,438.28546 C572.697514,438.28546 575.585405,435.392232 575.585405,431.834795 L575.585405,403.107775 C575.585405,399.550339 572.697514,396.657111 569.14779,396.657111 L514.584024,396.657111 L514.584024,371.021659 L642,371.021659 Z M574,772.382065 C574,774.377494 572.375217,776 570.376986,776 L474,776 L474,658 L570.376986,658 C572.375217,658 574,659.623653 574,661.617935 L574,772.382065 Z M471,776 L304,776 L304,661.617935 C304,659.623653 305.63131,658 307.634996,658 L471,658 L471,776 Z M570.545547,655 L307.454453,655 L302.408811,655 L302.408811,657.433803 C301.529602,658.533386 301,659.922816 301,661.434167 L301,776.088625 L301,778.896241 L301,921 L303.816468,921 L303.816468,778.896241 L470.953814,778.896241 L470.953814,795.396876 C470.953814,798.945215 473.849895,801.831043 477.409421,801.831043 L516.739588,801.831043 C518.744923,801.831043 520.377574,803.458563 520.377574,805.457594 L520.377574,826.686664 C520.377574,828.685695 518.744923,830.313215 516.739588,830.313215 L477.409421,830.313215 C473.849895,830.313215 470.953814,833.199044 470.953814,836.747382 L470.953814,921 L473.770282,921 L473.770282,836.747382 C473.770282,834.74835 475.402933,833.120831 477.409421,833.120831 L516.739588,833.120831 C520.299115,833.120831 523.194042,830.235002 523.194042,826.686664 L523.194042,805.457594 C523.194042,801.909256 520.299115,799.023428 516.739588,799.023428 L477.409421,799.023428 C475.402933,799.023428 473.770282,797.395908 473.770282,795.396876 L473.770282,778.896241 L570.545547,778.896241 C574.103919,778.896241 577,776.010412 577,772.462074 L577,661.434167 C577,657.886979 574.103919,655 570.545547,655 L570.545547,655 Z M1317.45067,655.017253 L1317.45067,655 L1316.04563,655 L1314.63945,655 L1151.44358,655 C1147.89068,655 1145,657.886979 1145,661.434167 L1145,921 L1147.81122,921 L1147.81122,661.434167 C1147.81122,659.435135 1149.44083,657.807615 1151.44358,657.807615 L1285.90419,657.807615 C1285.40783,657.901931 1284.91491,658.006598 1284.42085,658.104365 C1283.94175,658.19983 1283.46266,658.292996 1282.98472,658.391912 C1282.15436,658.565591 1281.32632,658.748471 1280.49942,658.933652 C1280.08597,659.026818 1279.67137,659.115382 1279.25907,659.210848 C1278.19148,659.459289 1277.12964,659.720383 1276.07126,659.989527 C1275.90542,660.032084 1275.73843,660.070041 1275.57143,660.112598 C1274.33685,660.4312 1273.10802,660.764756 1271.88495,661.112113 C1271.58206,661.197227 1271.28263,661.290393 1270.98089,661.377807 C1270.06992,661.641201 1269.16241,661.909195 1268.25835,662.188692 C1267.83799,662.318663 1267.42108,662.454386 1267.00303,662.587808 C1266.2199,662.836249 1265.43907,663.086991 1264.66284,663.348084 C1264.20678,663.499909 1263.75302,663.657485 1263.29927,663.813911 C1262.5599,664.069254 1261.82283,664.328046 1261.08807,664.593741 C1260.6274,664.760518 1260.16788,664.928446 1259.70952,665.099824 C1258.97821,665.371269 1258.25036,665.648465 1257.52481,665.930262 C1257.07796,666.103941 1256.63111,666.27647 1256.18657,666.454749 C1255.43568,666.753799 1254.6871,667.06205 1253.94082,667.372601 C1253.53428,667.541679 1253.12659,667.708457 1252.7212,667.880986 C1251.88624,668.236394 1251.05704,668.602155 1250.23015,668.971366 C1249.92035,669.109389 1249.60825,669.242811 1249.29845,669.383135 C1247.01815,670.418306 1244.76433,671.504086 1242.54162,672.639324 C1242.23297,672.796901 1241.92778,672.960228 1241.62028,673.120104 C1240.82678,673.533023 1240.03444,673.948241 1239.2467,674.372662 C1238.86434,674.579696 1238.48544,674.791331 1238.10424,675.000666 C1237.39597,675.390581 1236.68884,675.783946 1235.98748,676.184212 C1235.58439,676.41425 1235.18476,676.646589 1234.78398,676.880077 C1234.1068,677.273443 1233.43308,677.671409 1232.76166,678.075126 C1232.35857,678.316666 1231.95779,678.560506 1231.55701,678.806647 C1230.88559,679.218415 1230.21762,679.635934 1229.55196,680.056904 C1229.16845,680.299594 1228.7838,680.542285 1228.4026,680.788425 C1227.70469,681.2393 1227.01138,681.697076 1226.32038,682.158303 C1225.98409,682.38259 1225.6455,682.604577 1225.31037,682.831164 C1224.49499,683.384406 1223.68767,683.945699 1222.88381,684.512743 C1222.68111,684.656517 1222.47496,684.79569 1222.27342,684.939464 C1221.25305,685.665234 1220.24188,686.401356 1219.23878,687.15013 C1219.12361,687.236394 1219.01075,687.324959 1218.89673,687.412374 C1218.02723,688.064532 1217.16463,688.724741 1216.30894,689.394152 C1216.01066,689.627641 1215.71583,689.866881 1215.4187,690.10267 C1214.75073,690.632908 1214.08507,691.165446 1213.42631,691.706035 C1213.08427,691.986682 1212.74453,692.271929 1212.40479,692.556026 C1211.79555,693.06326 1211.18978,693.573945 1210.58745,694.090381 C1210.23504,694.392881 1209.88494,694.698832 1209.53483,695.004782 C1208.94978,695.515467 1208.36934,696.029602 1207.79236,696.549488 C1207.44571,696.86119 1207.09905,697.172892 1206.75471,697.488044 C1206.17196,698.021733 1205.59382,698.560022 1205.01914,699.101762 C1204.69552,699.406562 1204.37075,699.709062 1204.05059,700.016163 C1203.4333,700.607361 1202.82291,701.20546 1202.21483,701.80586 C1201.9488,702.070404 1201.67816,702.330347 1201.41327,702.596041 C1200.62668,703.385072 1199.84816,704.181004 1199.07654,704.986137 C1198.99823,705.067801 1198.91761,705.148314 1198.8393,705.229978 C1197.97785,706.132877 1197.12677,707.046129 1196.28605,707.968582 C1196.10524,708.166414 1195.92903,708.369998 1195.74822,708.568981 C1195.10559,709.280949 1194.46757,709.997518 1193.8376,710.720988 C1193.56581,711.031539 1193.29978,711.346692 1193.03144,711.659544 C1192.49822,712.281797 1191.9673,712.9052 1191.44329,713.535505 C1191.15076,713.887463 1190.86054,714.242872 1190.57032,714.598281 C1190.07856,715.19983 1189.59026,715.803681 1189.10656,716.412131 C1188.81173,716.783643 1188.5192,717.156305 1188.22783,717.530117 C1187.75335,718.138568 1187.28231,718.751619 1186.81704,719.366971 C1186.53373,719.739633 1186.25157,720.112295 1185.97287,720.487257 C1185.49608,721.127913 1185.02735,721.77317 1184.56092,722.419577 C1184.3041,722.774986 1184.04613,723.128095 1183.79276,723.485804 C1183.28142,724.206974 1182.77814,724.936195 1182.27717,725.666566 C1182.08138,725.952963 1181.88099,726.23706 1181.68636,726.524608 C1180.30091,728.576548 1178.96037,730.662994 1177.66704,732.780495 C1177.48163,733.085296 1177.30081,733.394697 1177.11655,733.701798 C1176.66394,734.452872 1176.21479,735.206247 1175.77485,735.964223 C1175.55028,736.351837 1175.33146,736.742902 1175.10919,737.132817 C1174.71878,737.819481 1174.33066,738.508445 1173.95061,739.20201 C1173.71798,739.62413 1173.48995,740.04855 1173.26192,740.472971 C1172.90029,741.144682 1172.54328,741.819844 1172.19087,742.497306 C1171.96514,742.932078 1171.74056,743.368 1171.51829,743.805073 C1171.17049,744.489436 1170.82844,745.17725 1170.491,745.867365 C1170.28025,746.297536 1170.06834,746.726557 1169.86104,747.159029 C1169.51324,747.884799 1169.1735,748.616321 1168.83606,749.347842 C1168.65294,749.746958 1168.46522,750.143774 1168.28556,750.54404 C1167.90206,751.391731 1167.53122,752.246322 1167.16269,753.102064 C1167.03831,753.390762 1166.90932,753.676009 1166.78724,753.965857 C1166.30009,755.117198 1165.82445,756.27544 1165.36378,757.439433 C1165.28316,757.640717 1165.20946,757.845451 1165.12999,758.047884 C1164.75455,759.005993 1164.38602,759.968703 1164.02785,760.936013 C1163.88043,761.33743 1163.73878,761.742297 1163.59367,762.144863 C1163.31497,762.918942 1163.03857,763.69417 1162.77138,764.474 C1162.6136,764.934076 1162.46158,765.396453 1162.30726,765.857679 C1162.06425,766.590351 1161.82356,767.324172 1161.58977,768.061444 C1161.4366,768.544524 1161.28803,769.028755 1161.13947,769.512985 C1160.91604,770.239906 1160.69953,770.967976 1160.48647,771.698347 C1160.34366,772.188329 1160.20316,772.67831 1160.06496,773.170591 C1159.85651,773.914765 1159.65497,774.661239 1159.45688,775.408863 C1159.3302,775.886192 1159.20236,776.362371 1159.08028,776.842 C1158.87644,777.641383 1158.68296,778.444216 1158.49063,779.247049 C1158.38813,779.67722 1158.28103,780.106241 1158.18198,780.537563 C1157.9505,781.54513 1157.73168,782.558448 1157.51862,783.574066 C1157.47141,783.801804 1157.41728,784.028392 1157.37121,784.257279 C1157.11554,785.504086 1156.87484,786.756644 1156.64796,788.013802 C1156.58692,788.358859 1156.53164,788.706217 1156.47176,789.052424 C1156.31398,789.965676 1156.1585,790.878927 1156.0157,791.796779 C1155.94199,792.266057 1155.8775,792.737635 1155.8084,793.208063 C1155.69093,794.008596 1155.57576,794.809129 1155.46981,795.613112 C1155.40301,796.126097 1155.34082,796.641383 1155.27863,797.156668 C1155.18535,797.926146 1155.09552,798.696773 1155.0126,799.468551 C1154.95616,799.999939 1154.90319,800.531328 1154.85136,801.062716 C1154.7765,801.831043 1154.70856,802.601671 1154.64521,803.373449 C1154.60145,803.903687 1154.55769,804.432774 1154.51968,804.965313 C1154.4621,805.761245 1154.41373,806.559477 1154.36766,807.358859 C1154.33772,807.863793 1154.30662,808.368727 1154.28244,808.873661 C1154.23983,809.754707 1154.20873,810.638053 1154.18109,811.5214 C1154.16727,811.949271 1154.14769,812.374841 1154.13733,812.802712 C1154.10623,814.113929 1154.08781,815.429748 1154.08781,816.749016 C1154.08781,818.025728 1154.10393,819.298989 1154.13387,820.5688 C1154.14424,820.988619 1154.16267,821.406138 1154.17649,821.825958 C1154.20297,822.673649 1154.22946,823.522489 1154.26977,824.366729 C1154.2928,824.867062 1154.32505,825.365095 1154.35269,825.863127 C1154.39645,826.626854 1154.43907,827.390581 1154.49319,828.150857 C1154.53005,828.678794 1154.57381,829.204431 1154.61642,829.731219 C1154.67516,830.456989 1154.73504,831.183909 1154.80299,831.907379 C1154.85367,832.450269 1154.9101,832.989709 1154.96653,833.530298 C1155.04024,834.238816 1155.1174,834.946183 1155.20032,835.6524 C1155.26481,836.19529 1155.33161,836.73703 1155.40071,837.27877 C1155.49054,837.980386 1155.58613,838.680852 1155.68517,839.379018 C1155.76003,839.916157 1155.83834,840.453296 1155.91896,840.989285 C1156.02606,841.693202 1156.14008,842.394818 1156.25524,843.095284 C1156.34277,843.620921 1156.42915,844.145408 1156.52013,844.669895 C1156.64681,845.387614 1156.78156,846.103033 1156.91745,846.817301 C1157.01189,847.316484 1157.10402,847.816817 1157.20307,848.31485 C1157.35509,849.070525 1157.51632,849.82275 1157.67755,850.574974 C1157.77545,851.028149 1157.86758,851.482475 1157.96893,851.9345 C1158.16816,852.823597 1158.37892,853.706944 1158.59313,854.59144 C1158.66799,854.899691 1158.73594,855.209093 1158.8131,855.516193 C1159.10792,856.707791 1159.41657,857.892487 1159.73904,859.072583 C1159.81505,859.350929 1159.89682,859.625825 1159.97398,859.903021 C1160.22504,860.80362 1160.47956,861.703069 1160.7456,862.597918 C1160.87113,863.021188 1161.00587,863.442158 1161.13486,863.865428 C1161.36404,864.610751 1161.59322,865.356075 1161.83162,866.097948 C1161.98133,866.559174 1162.13681,867.01695 1162.28998,867.477026 C1162.52147,868.175192 1162.75526,868.872208 1162.99595,869.565773 C1163.16179,870.040802 1163.33224,870.51353 1163.50269,870.987408 C1163.74454,871.66142 1163.98869,872.334282 1164.2386,873.003693 C1164.41711,873.479872 1164.59792,873.9549 1164.78104,874.428779 C1165.03671,875.09589 1165.29814,875.7607 1165.56302,876.42436 C1165.74844,876.887887 1165.93616,877.351414 1166.12619,877.81264 C1166.40259,878.486652 1166.68474,879.157213 1166.97036,879.826624 C1167.16038,880.270597 1167.34926,880.713421 1167.54274,881.155094 C1167.84562,881.847509 1168.15542,882.535323 1168.46753,883.223137 C1168.65525,883.634905 1168.84067,884.047824 1169.03069,884.458442 C1169.37274,885.192263 1169.72284,885.922635 1170.0741,886.650705 C1170.2457,887.006114 1170.41384,887.362673 1170.5889,887.715782 C1171.0081,888.568073 1171.43768,889.414613 1171.87185,890.258853 C1171.98702,890.483141 1172.09873,890.709728 1172.21505,890.932865 C1173.34829,893.110176 1174.5299,895.259883 1175.75873,897.379684 C1175.83359,897.509656 1175.9119,897.637327 1175.98791,897.767298 C1176.52229,898.68285 1177.06242,899.592651 1177.61407,900.496701 C1177.76148,900.738241 1177.91235,900.97633 1178.06091,901.21672 C1178.54807,902.005751 1179.03983,902.792481 1179.53965,903.573461 C1179.71816,903.851807 1179.90128,904.127853 1180.08094,904.406199 C1180.56349,905.146922 1181.04949,905.885344 1181.5424,906.619166 C1181.73473,906.903263 1181.92821,907.18621 1182.12169,907.470307 C1182.61806,908.196077 1183.11789,908.918397 1183.62577,909.636116 C1183.8181,909.909861 1184.01273,910.181306 1184.20736,910.453902 C1184.73022,911.184273 1185.25999,911.911193 1185.79436,912.632363 C1185.97748,912.879654 1186.16059,913.126945 1186.34486,913.373086 C1186.91378,914.131061 1187.49077,914.884436 1188.07236,915.63206 C1188.22783,915.832193 1188.381,916.032326 1188.53763,916.230159 C1189.18141,917.050245 1189.83326,917.86343 1190.49201,918.669714 C1190.59221,918.791634 1190.6901,918.914704 1190.79029,919.036624 C1191.33158,919.696834 1191.88092,920.348992 1192.43257,921 L1192.43833,921 L1196.13864,921 C1171.67377,893.01356 1156.89903,856.474302 1156.89903,816.749016 C1156.89903,815.38374 1156.9163,814.021914 1156.95085,812.663539 C1156.96237,812.235668 1156.9854,811.811248 1156.99922,811.383377 C1157.03032,810.455173 1157.05911,809.526969 1157.10518,808.603366 C1157.13282,808.071978 1157.17428,807.54519 1157.20652,807.016103 C1157.25604,806.200617 1157.29981,805.383982 1157.362,804.571947 C1157.40922,803.953145 1157.47141,803.338943 1157.52553,802.723591 C1157.58888,802.004722 1157.64531,801.283552 1157.71786,800.568134 C1157.78351,799.925177 1157.86412,799.286821 1157.93783,798.645015 C1158.01614,797.960651 1158.0864,797.272837 1158.17392,796.590774 C1158.25799,795.928264 1158.35819,795.269205 1158.45032,794.608996 C1158.54246,793.955687 1158.62653,793.298929 1158.72557,792.64677 C1158.83037,791.964707 1158.95015,791.288395 1159.06301,790.608632 C1159.16781,789.984079 1159.26455,789.356075 1159.37511,788.732671 C1159.50064,788.035656 1159.64,787.345541 1159.77359,786.651977 C1159.88876,786.052727 1159.99701,785.450027 1160.11909,784.853078 C1160.26535,784.13996 1160.42658,783.432593 1160.58206,782.722925 C1160.70759,782.15128 1160.82621,781.576185 1160.9575,781.006841 C1161.12219,780.293722 1161.30185,779.586355 1161.4769,778.876687 C1161.61395,778.315394 1161.74524,777.751801 1161.8892,777.192808 C1162.07347,776.476239 1162.27271,775.764271 1162.46734,775.051153 C1162.6159,774.507113 1162.75641,773.960772 1162.91073,773.419033 C1163.11688,772.693262 1163.338,771.973243 1163.55451,771.252073 C1163.71114,770.728737 1163.86086,770.203099 1164.02324,769.682063 C1164.25012,768.950542 1164.49197,768.225922 1164.73036,767.499001 C1164.89505,766.994067 1165.05398,766.486833 1165.22328,765.9842 C1165.47089,765.251529 1165.73347,764.525758 1165.99144,763.797688 C1166.16534,763.307706 1166.33349,762.813124 1166.51199,762.325443 C1166.78148,761.590472 1167.06364,760.862401 1167.3435,760.13318 C1167.52546,759.658151 1167.70051,759.180822 1167.88593,758.709244 C1168.1773,757.969671 1168.4825,757.237 1168.78539,756.503178 C1168.97311,756.047703 1169.15392,755.588777 1169.3451,755.135601 C1169.6572,754.397179 1169.98312,753.665658 1170.30674,752.932986 C1170.50137,752.491313 1170.69024,752.045039 1170.88948,751.604516 C1171.22231,750.866094 1171.57012,750.135723 1171.91447,749.403051 C1172.11486,748.97518 1172.30949,748.546159 1172.51448,748.120588 C1172.86689,747.389067 1173.23197,746.665597 1173.59475,745.940977 C1173.80435,745.520007 1174.00935,745.096737 1174.22356,744.678068 C1174.5944,743.952297 1174.97905,743.233428 1175.36141,742.513409 C1175.57907,742.105091 1175.78983,741.694473 1176.00979,741.288456 C1176.40366,740.561535 1176.8102,739.842666 1177.21559,739.122647 C1177.43671,738.731582 1177.65207,738.335916 1177.8755,737.946002 C1178.28894,737.224832 1178.71506,736.511714 1179.14118,735.797445 C1179.36806,735.415582 1179.58918,735.031418 1179.81951,734.651855 C1180.25484,733.935287 1180.70169,733.225619 1181.14738,732.515951 C1181.37887,732.14789 1181.60459,731.777529 1181.83838,731.411768 C1182.29444,730.69865 1182.76202,729.994733 1183.22845,729.289666 C1183.46454,728.934258 1183.69487,728.575398 1183.93327,728.222289 C1184.4089,727.516072 1184.89606,726.817907 1185.38321,726.119741 C1185.62276,725.775834 1185.85885,725.428476 1186.1007,725.08687 C1186.59707,724.387554 1187.10496,723.696289 1187.61169,723.005025 C1187.85584,722.672619 1188.09539,722.336764 1188.34185,722.006659 C1188.85664,721.316545 1189.3818,720.636782 1189.90581,719.955869 C1190.15688,719.631515 1190.40218,719.302561 1190.65555,718.980507 C1191.18762,718.301895 1191.73005,717.631334 1192.27249,716.960772 C1192.52931,716.64562 1192.78037,716.325867 1193.03835,716.011865 C1193.58884,715.342454 1194.15086,714.682245 1194.71172,714.022035 C1194.972,713.716085 1195.22767,713.407833 1195.4891,713.104183 C1196.05687,712.446274 1196.63385,711.798717 1197.21199,711.151159 C1197.47918,710.85211 1197.74176,710.54961 1198.0101,710.25286 C1198.59284,709.609904 1199.18595,708.974998 1199.7779,708.341243 C1200.052,708.049095 1200.32149,707.753496 1200.59674,707.463648 C1201.1933,706.834494 1201.80138,706.214541 1202.40831,705.595738 C1202.68932,705.309341 1202.96687,705.019493 1203.24903,704.735396 C1203.86057,704.121194 1204.48131,703.517344 1205.10206,702.913494 C1205.38998,702.632847 1205.67559,702.3499 1205.96581,702.071554 C1206.59002,701.473455 1207.22459,700.884557 1207.85915,700.29566 C1208.15513,700.021914 1208.44766,699.744718 1208.74479,699.472123 C1209.38396,698.888976 1210.0312,698.316181 1210.67844,697.742236 C1210.98132,697.475392 1211.28076,697.203947 1211.5848,696.939403 C1212.23549,696.372359 1212.8954,695.815667 1213.5553,695.260125 C1213.86625,694.997881 1214.17375,694.732187 1214.487,694.473394 C1215.15036,693.921303 1215.82293,693.380713 1216.49666,692.840123 C1216.81337,692.585931 1217.12777,692.328289 1217.44678,692.075247 C1218.11936,691.543859 1218.80115,691.020522 1219.48408,690.499485 C1219.81116,690.248744 1220.13708,689.994552 1220.46646,689.746111 C1221.1494,689.233125 1221.83809,688.729342 1222.52909,688.227859 C1222.86768,687.981718 1223.20282,687.732127 1223.54256,687.488286 C1224.23356,686.993704 1224.93262,686.509474 1225.63168,686.025244 C1225.97949,685.784854 1226.32384,685.541013 1226.67394,685.302924 C1227.37416,684.826745 1228.08128,684.360918 1228.78956,683.896241 C1229.14657,683.660452 1229.50129,683.423512 1229.85946,683.191174 C1230.56658,682.734548 1231.28061,682.288274 1231.99465,681.84315 C1232.36318,681.613112 1232.72941,681.380774 1233.10025,681.153036 C1233.81313,680.717114 1234.53292,680.290393 1235.25386,679.863672 C1235.63276,679.640535 1236.00936,679.412797 1236.39056,679.191961 C1237.11035,678.774442 1237.83821,678.367274 1238.56606,677.960107 C1238.95417,677.742721 1239.33998,677.523034 1239.73155,677.309099 C1240.45595,676.911133 1241.18841,676.523518 1241.91972,676.137054 C1242.32165,675.925419 1242.72128,675.710334 1243.12436,675.502149 C1243.85106,675.126037 1244.58583,674.760276 1245.31944,674.394515 C1245.73404,674.188631 1246.14749,673.979297 1246.56554,673.775713 C1247.2957,673.420304 1248.03161,673.075247 1248.76868,672.730189 C1249.19595,672.530056 1249.62207,672.327623 1250.05279,672.13094 C1250.78525,671.796235 1251.52347,671.471881 1252.26169,671.147527 C1252.70278,670.954295 1253.14271,670.757612 1253.58495,670.567831 C1254.31857,670.253829 1255.05794,669.950179 1255.79731,669.647678 C1256.25337,669.460197 1256.70712,669.271566 1257.16434,669.088686 C1257.8991,668.795387 1258.63962,668.51244 1259.38014,668.229493 C1259.84772,668.051214 1260.31415,667.869484 1260.78403,667.695805 C1261.51764,667.42321 1262.25701,667.160966 1262.99638,666.898723 C1263.48008,666.727344 1263.96378,666.553665 1264.45093,666.385738 C1265.1834,666.134996 1265.92046,665.893456 1266.65753,665.653066 C1267.15505,665.489739 1267.65257,665.325262 1268.15355,665.166536 C1268.88601,664.935347 1269.62422,664.71336 1270.36129,664.492524 C1270.87263,664.338398 1271.38282,664.183122 1271.89646,664.034748 C1272.62892,663.824263 1273.36484,663.621829 1274.10191,663.420546 C1274.62707,663.277922 1275.15108,663.131848 1275.67739,662.993825 C1276.40754,662.802894 1277.14001,662.621164 1277.87362,662.440584 C1278.4149,662.307161 1278.95618,662.171439 1279.49977,662.043768 C1280.22302,661.872389 1280.94972,661.712513 1281.67642,661.551486 C1282.23613,661.428416 1282.79584,661.303045 1283.35786,661.185726 C1284.0765,661.035051 1284.79974,660.893577 1285.52299,660.753254 C1286.09652,660.640535 1286.67005,660.527816 1287.24589,660.421999 C1287.96222,660.290877 1288.68086,660.168957 1289.3995,660.047037 C1289.99031,659.94812 1290.57881,659.846904 1291.17077,659.753738 C1291.88135,659.64217 1292.59308,659.539803 1293.30596,659.437436 C1293.91289,659.350021 1294.51867,659.262607 1295.12675,659.182093 C1295.83272,659.088928 1296.53984,659.004964 1297.24812,658.92215 C1297.86887,658.848538 1298.48961,658.773776 1299.11267,658.708215 C1299.81403,658.633452 1300.5177,658.569042 1301.22137,658.503481 C1301.85594,658.444821 1302.49051,658.385011 1303.12738,658.333253 C1303.82183,658.278043 1304.51859,658.230886 1305.21535,658.183728 C1305.86835,658.13887 1306.52134,658.095163 1307.17549,658.059507 C1307.86303,658.021551 1308.55173,657.991646 1309.24043,657.962891 C1309.90724,657.934136 1310.57521,657.906532 1311.24433,657.886979 C1311.92612,657.866275 1312.61021,657.854773 1313.2943,657.842121 C1313.7423,657.83522 1314.19029,657.829469 1314.63945,657.826019 L1314.63829,921 L1317.44951,921 L1317.45067,832.296144 L1317.45067,657.814517 C1404.55587,658.574793 1475.18878,729.579514 1475.18878,816.749016 C1475.18878,856.603124 1460.41749,893.07222 1436.06434,921 L1439.76695,921 C1463.60531,892.826079 1478,856.437496 1478,816.749016 C1478,728.029057 1406.10717,655.775229 1317.45067,655.017253 L1317.45067,655.017253 Z M1505,224.450664 L1505,368.205691 L1505,371.021659 L1505,611.549336 C1505,615.105619 1507.89657,618 1511.4567,618 L1706,618 L1706,615.185186 L1511.4567,615.185186 C1509.44987,615.185186 1507.81694,613.553493 1507.81694,611.549336 L1507.81694,371.021659 L1706,371.021659 L1706,368.205691 L1507.81694,368.205691 L1507.81694,224.450664 C1507.81694,222.446507 1509.44987,220.815968 1511.4567,220.815968 L1706,220.815968 L1706,218 L1511.4567,218 C1507.89657,218 1505,220.893228 1505,224.450664 L1505,224.450664 Z M1675,776 L1508,776 L1508,661.617935 C1508,659.623653 1509.63131,658 1511.635,658 L1675,658 L1675,776 Z M1506.40905,655 L1506.40905,657.433803 C1505.52969,658.533386 1505,659.922816 1505,661.434167 L1505,776.088625 L1505,778.896241 L1505,921 L1507.81694,921 L1507.81694,778.896241 L1674.98247,778.896241 L1674.98247,795.396876 C1674.98247,798.945215 1677.87904,801.831043 1681.43801,801.831043 L1706,801.831043 L1706,799.023428 L1681.43801,799.023428 C1679.43234,799.023428 1677.79941,797.395908 1677.79941,795.396876 L1677.79941,778.896241 L1706,778.896241 L1706,776.088625 L1677.79941,776.088625 L1677.79941,657.807615 L1706,657.807615 L1706,655 L1511.4567,655 L1506.40905,655 Z M1675,837.456389 L1675,922 L1677.81535,922 L1677.81535,837.456389 C1677.81535,835.450453 1679.44735,833.817312 1681.45189,833.817312 L1706,833.817312 L1706,831 L1681.45189,831 C1677.89493,831 1675,833.895796 1675,837.456389 L1675,837.456389 Z" id="Fill-1" fill="#FFFFFF" opacity="0.80867513" mask="url(#mask-2)"></path>
                </g>
            </g>
        </g>
    </g>
</svg>