<?xml version="1.0" encoding="utf-8"?>
<!-- Generator: Adobe Illustrator 27.6.1, SVG Export Plug-In . SVG Version: 6.00 Build 0)  -->
<svg version="1.1" id="Layer_1" xmlns="http://www.w3.org/2000/svg" xmlns:xlink="http://www.w3.org/1999/xlink" x="0px" y="0px"
	 viewBox="0 0 128 128" style="enable-background:new 0 0 128 128;" xml:space="preserve">
<style type="text/css">
	.st0{fill-rule:evenodd;clip-rule:evenodd;fill:url(#Button_00000130627432140713738680000004465846348558496169_);}
</style>
<g id="Button_container">
	
		<radialGradient id="Button_00000129167940822290456400000013512929838806984625_" cx="-476.8977" cy="-1.4584" r="1" gradientTransform="matrix(53.9209 144.8397 -141.8605 52.8118 25554.0234 69175.9766)" gradientUnits="userSpaceOnUse">
		<stop  offset="0" style="stop-color:#DD2E2A"/>
		<stop  offset="0.1908" style="stop-color:#B81D19"/>
		<stop  offset="0.5912" style="stop-color:#18397F"/>
		<stop  offset="1" style="stop-color:#1E2142"/>
	</radialGradient>
	
		<path id="Button" style="fill-rule:evenodd;clip-rule:evenodd;fill:url(#Button_00000129167940822290456400000013512929838806984625_);" d="
		M64,96.9c-1.2,0-2.2,1-2.2,2.3v9.4c0,1.2,1,2.2,2.2,2.2c1.2,0,2.2-1,2.2-2.2v-9.4C66.2,97.9,65.2,96.9,64,96.9L64,96.9z M64,76.1
		c-1.2,0-2.2,1-2.2,2.3v9.4c0,1.2,1,2.2,2.2,2.2c1.2,0,2.2-1,2.2-2.2v-9.4C66.2,77.2,65.2,76.1,64,76.1L64,76.1z M87.6,47.2
		l-8.9,4.4c-1.1,0.6-1.6,1.9-1,3c0.4,0.8,1.2,1.3,2,1.3c0.3,0,0.7-0.1,1-0.2l8.9-4.5c1.1-0.6,1.6-1.9,1-3
		C90,47.1,88.7,46.6,87.6,47.2L87.6,47.2z M107.1,37.4l-8.9,4.4c-1.1,0.6-1.6,1.9-1,3c0.4,0.8,1.2,1.2,2,1.2c0.3,0,0.7-0.1,1-0.2
		l8.9-4.4c1.1-0.6,1.6-1.9,1-3C109.6,37.3,108.3,36.9,107.1,37.4L107.1,37.4z M68,57l-4,2l-4-2c-1.1-0.6-2.5-0.1-3,1
		c-0.6,1.1-0.1,2.5,1,3l3.8,1.9v4.2c0,1.2,1,2.2,2.2,2.2c1.2,0,2.2-1,2.2-2.2v-4.2L70,61c1.1-0.6,1.6-1.9,1-3
		C70.5,56.9,69.1,56.4,68,57L68,57z M121.6,92.3c0,1.1-0.6,2.1-1.6,2.6l-53.7,26.9v-1.9c0-1.2-1-2.2-2.2-2.2c-1.2,0-2.2,1-2.2,2.2v2
		L8,94.9c-1-0.5-1.6-1.5-1.6-2.6V35.2l1.8,0.9c0.3,0.2,0.7,0.2,1,0.2c0.8,0,1.6-0.5,2-1.2c0.6-1.1,0.1-2.5-1-3l-1-0.5L62.7,4.8
		c0.4-0.2,0.9-0.3,1.3-0.3c0.4,0,0.9,0.1,1.3,0.3l53.5,26.8l-1,0.5c-1.1,0.6-1.6,1.9-1,3c0.4,0.8,1.2,1.2,2,1.2c0.3,0,0.7-0.1,1-0.2
		l1.8-0.9C121.6,35.2,121.6,92.3,121.6,92.3z M125.8,32.7c-0.4-1.3-1.1-2.4-2.1-3.3c-0.5-0.5-1.1-0.9-1.7-1.2L67.3,0.8
		c-2.1-1-4.6-1-6.6,0L6,28.2c-0.6,0.3-1.2,0.7-1.7,1.2c-1,0.9-1.7,2.1-2.1,3.3l0,0C2,33.4,1.9,34,1.9,34.8v57.6
		c0,2.8,1.6,5.4,4.1,6.6l56.7,28.3c0.1,0.1,0.2,0.1,0.3,0.1l0,0c0.1,0,0.2,0.1,0.3,0.1s0.1,0.1,0.2,0.1c0.1,0,0.3,0,0.4,0.1
		c0,0,0,0,0.1,0s0,0,0.1,0s0.3,0,0.4-0.1c0.1,0,0.1-0.1,0.2-0.1s0.2-0.1,0.3-0.1l0,0c0.1,0,0.2-0.1,0.3-0.1L122,99
		c2.5-1.3,4.1-3.8,4.1-6.6V34.8C126.1,34.1,126,33.4,125.8,32.7L125.8,32.7z M49.3,51.6l-8.9-4.4c-1.1-0.6-2.5-0.1-3,1
		c-0.6,1.1-0.1,2.5,1,3l8.9,4.5c0.3,0.2,0.7,0.2,1,0.2c0.8,0,1.6-0.5,2-1.3C50.9,53.6,50.4,52.2,49.3,51.6L49.3,51.6z M29.8,41.9
		l-8.9-4.4c-1.1-0.6-2.5-0.1-3,1c-0.6,1.1-0.1,2.5,1,3l8.9,4.4c0.3,0.2,0.7,0.2,1,0.2c0.8,0,1.6-0.4,2-1.2
		C31.3,43.8,30.9,42.4,29.8,41.9L29.8,41.9z"/>
</g>
</svg>
