<?xml version="1.0" encoding="utf-8"?>
<!-- Generator: Adobe Illustrator 27.6.1, SVG Export Plug-In . SVG Version: 6.00 Build 0)  -->
<svg version="1.1" id="Layer_1" xmlns="http://www.w3.org/2000/svg" xmlns:xlink="http://www.w3.org/1999/xlink" x="0px" y="0px"
	 viewBox="0 0 128 128" style="enable-background:new 0 0 128 128;" xml:space="preserve">
<style type="text/css">
	.st0{fill-rule:evenodd;clip-rule:evenodd;fill:url(#Button_00000124862672340552819160000016525202613354380961_);}
</style>
<g id="Button_container">
	
		<radialGradient id="Button_00000114071090540487760090000005182055789854580400_" cx="-476.833" cy="-1.3956" r="1" gradientTransform="matrix(54.6902 142.8947 -142.8947 54.6902 25924.5488 68239.1406)" gradientUnits="userSpaceOnUse">
		<stop  offset="0" style="stop-color:#DD2E2A"/>
		<stop  offset="0.1908" style="stop-color:#B81D19"/>
		<stop  offset="0.5912" style="stop-color:#18397F"/>
		<stop  offset="1" style="stop-color:#1E2142"/>
	</radialGradient>
	
		<path id="Button" style="fill-rule:evenodd;clip-rule:evenodd;fill:url(#Button_00000114071090540487760090000005182055789854580400_);" d="
		M56.9,103.6c0.2,0,0.4,0.1,0.5,0.1c0.9,0,1.7-0.6,1.9-1.5l13.2-48c0.3-1.1-0.3-2.2-1.4-2.5s-2.2,0.3-2.5,1.4l-13.2,48
		C55.2,102.2,55.8,103.3,56.9,103.6z M82.4,103.1c0.4,0.4,0.9,0.6,1.4,0.6s1-0.2,1.4-0.6l24-24c0.4-0.4,0.6-0.9,0.6-1.4
		s-0.2-1-0.6-1.4l-24-24c-0.8-0.8-2.1-0.8-2.8,0c-0.8,0.8-0.8,2.1,0,2.8L105,77.7l-22.6,22.6C81.6,101.1,81.6,102.3,82.4,103.1z
		 M42.8,103.1c0.4,0.4,0.9,0.6,1.4,0.6s1-0.2,1.4-0.6c0.8-0.8,0.8-2.1,0-2.8L23,77.7l22.6-22.6c0.8-0.8,0.8-2.1,0-2.8
		c-0.8-0.8-2.1-0.8-2.8,0l-24,24c-0.4,0.4-0.6,0.9-0.6,1.4s0.2,1,0.6,1.4L42.8,103.1z M113.8,16.7c-0.1-0.1-0.2-0.2-0.3-0.2
		c-0.1-0.1-0.2-0.1-0.3-0.2c-0.1-0.1-0.3-0.1-0.4-0.1c-0.6-0.1-1.3,0.1-1.8,0.5c-0.2,0.2-0.3,0.4-0.4,0.7c-0.1,0.2-0.1,0.5-0.1,0.8
		s0,0.5,0.1,0.8c0.1,0.2,0.3,0.5,0.4,0.7c0.2,0.2,0.4,0.3,0.7,0.4c0.2,0.1,0.5,0.1,0.8,0.1c0.5,0,1-0.2,1.4-0.6s0.6-0.9,0.6-1.4
		c0-0.3-0.1-0.5-0.2-0.8C114.1,17.1,114,16.9,113.8,16.7z M104.3,16.7c-0.6-0.6-1.5-0.7-2.2-0.4c-0.2,0.1-0.5,0.2-0.7,0.4
		c-0.2,0.2-0.3,0.4-0.4,0.7c-0.1,0.2-0.2,0.5-0.2,0.8s0.1,0.5,0.1,0.8c0.1,0.2,0.3,0.5,0.4,0.7c0.4,0.4,0.9,0.6,1.4,0.6
		s1.1-0.2,1.4-0.6c0.4-0.4,0.6-0.9,0.6-1.4c0-0.3,0-0.5-0.2-0.8C104.7,17.1,104.5,16.9,104.3,16.7z M92.1,16.7
		c-0.4,0.4-0.6,0.9-0.6,1.4c0,0.3,0.1,0.5,0.2,0.8c0.1,0.2,0.2,0.5,0.4,0.7c0.4,0.4,0.9,0.6,1.4,0.6s1-0.2,1.4-0.6
		c0.2-0.2,0.3-0.4,0.4-0.7c0.1-0.2,0.1-0.5,0.1-0.8c0-0.5-0.2-1.1-0.6-1.4C94.1,15.9,92.8,15.9,92.1,16.7z M47.1,16.1H14.6
		c-1.1,0-2,0.9-2,2s0.9,2,2,2h32.5c1.1,0,2-0.9,2-2S48.2,16.1,47.1,16.1z M122.9,30.2H5.1V8.1C5.1,6.4,6.5,5,8.2,5h111.7
		c1.7,0,3.1,1.4,3.1,3.1L122.9,30.2L122.9,30.2z M122.9,119.9c0,1.7-1.4,3.1-3.1,3.1H8.1c-1.7,0-3.1-1.4-3.1-3.1V34.2h117.9V119.9z
		 M119.9,1H8.1C4.2,1,1,4.2,1,8.1v111.7c0,3.9,3.2,7.1,7.1,7.1h111.7c3.9,0,7.1-3.2,7.1-7.1V8.1C127,4.2,123.8,1,119.9,1z"/>
</g>
</svg>
