<?xml version="1.0" encoding="utf-8"?>
<!-- Generator: Adobe Illustrator 27.6.1, SVG Export Plug-In . SVG Version: 6.00 Build 0)  -->
<svg version="1.1" id="Layer_1" xmlns="http://www.w3.org/2000/svg" xmlns:xlink="http://www.w3.org/1999/xlink" x="0px" y="0px"
	 viewBox="0 0 128 128" style="enable-background:new 0 0 128 128;" xml:space="preserve">
<style type="text/css">
	.st0{fill-rule:evenodd;clip-rule:evenodd;fill:url(#Button_00000180359424093482202790000009243627726646175895_);}
</style>
<g id="Button_container">
	
		<radialGradient id="Button_00000037682366051417197000000016273672156611975072_" cx="-238.1799" cy="460.7178" r="1" gradientTransform="matrix(96.2406 107.7399 107.7399 -96.2406 -26683.3398 70034.0547)" gradientUnits="userSpaceOnUse">
		<stop  offset="0" style="stop-color:#DD2E2A"/>
		<stop  offset="0.1908" style="stop-color:#B81D19"/>
		<stop  offset="0.5912" style="stop-color:#18397F"/>
		<stop  offset="1" style="stop-color:#1E2142"/>
	</radialGradient>
	
		<path id="Button" style="fill-rule:evenodd;clip-rule:evenodd;fill:url(#Button_00000037682366051417197000000016273672156611975072_);" d="
		M124,100c0,13.2-10.8,24-24,24H40V76.9c0-4.3,3.5-7.7,7.7-7.7h33.6c6.5,0,11.7-5.2,11.7-11.7V27.9l10.6,10.6
		c0.4,0.4,0.9,0.6,1.4,0.6s1-0.2,1.4-0.6c0.8-0.8,0.8-2,0-2.8l-14-14C92.1,21.3,91.6,21,91,21c-0.5,0-1,0.2-1.3,0.5
		c0,0-0.1,0-0.1,0.1l-14,14c-0.8,0.8-0.8,2,0,2.8c0.8,0.8,2,0.8,2.8,0L89,27.9v29.6c0,4.2-3.5,7.7-7.7,7.7H47.7
		c-6.5,0-11.7,5.3-11.7,11.7V124h-8c-13.2,0-24-10.8-24-24V28C4,14.8,14.8,4,28,4h72c13.2,0,24,10.8,24,24V100z M100,0H28
		C12.6,0,0,12.6,0,28v72c0,15.4,12.6,28,28,28h72c15.4,0,28-12.6,28-28V28C128,12.6,115.4,0,100,0L100,0z M107,78.9
		c-0.8-0.8-2-0.8-2.8,0L91,92.1L77.9,78.9c-0.8-0.8-2-0.8-2.8,0c-0.8,0.8-0.8,2,0,2.8l13.2,13.2L75,108.1c-0.8,0.8-0.8,2,0,2.8
		c0.4,0.4,0.9,0.6,1.4,0.6c0.5,0,1-0.2,1.4-0.6L91,97.7l13.2,13.2c0.4,0.4,0.9,0.6,1.4,0.6s1-0.2,1.4-0.6c0.8-0.8,0.8-2,0-2.8
		L93.9,94.9L107,81.7C107.8,81,107.8,79.7,107,78.9L107,78.9z M38,52c-8.3,0-15-6.7-15-15c0-8.3,6.7-15,15-15c8.2,0,15,6.7,15,15
		C53,45.3,46.3,52,38,52L38,52z M38,18.1c-10.5,0-19,8.5-19,19c0,10.5,8.5,19,19,19c10.5,0,19-8.5,19-19C57,26.6,48.5,18.1,38,18.1
		L38,18.1z"/>
</g>
</svg>
