<?xml version="1.0" encoding="utf-8"?>
<!-- Generator: Adobe Illustrator 27.6.1, SVG Export Plug-In . SVG Version: 6.00 Build 0)  -->
<svg version="1.1" id="Layer_1" xmlns="http://www.w3.org/2000/svg" xmlns:xlink="http://www.w3.org/1999/xlink" x="0px" y="0px"
	 viewBox="0 0 128 128" style="enable-background:new 0 0 128 128;" xml:space="preserve">
<style type="text/css">
	.st0{fill-rule:evenodd;clip-rule:evenodd;fill:url(#Switch_00000052813279634657079890000010279298882126822300_);}
</style>
<g id="Switch_container">
	
		<radialGradient id="Switch_00000149342539006186911250000002894892278138637977_" cx="-476.2058" cy="-1.2809" r="1" gradientTransform="matrix(55.2302 126.4637 -126.4656 55.231 26190.8496 60326.375)" gradientUnits="userSpaceOnUse">
		<stop  offset="0" style="stop-color:#DD2E2A"/>
		<stop  offset="0.1908" style="stop-color:#B81D19"/>
		<stop  offset="0.5912" style="stop-color:#18397F"/>
		<stop  offset="1" style="stop-color:#1E2142"/>
	</radialGradient>
	
		<path id="Switch" style="fill-rule:evenodd;clip-rule:evenodd;fill:url(#Switch_00000149342539006186911250000002894892278138637977_);" d="
		M117,108.4h-8c11.7-11.8,18.3-27.7,18.3-44.4c0-34.9-28.4-63.2-63.2-63.2c-10.4,0-20.8,2.6-29.9,7.5c-1,0.5-1.3,1.7-0.8,2.7
		s1.7,1.3,2.7,0.8c8.5-4.6,18.2-7,28-7c32.7,0,59.2,26.6,59.2,59.2c0,15.9-6.4,31.1-17.7,42.2V97c0-1.1-0.9-2-2-2s-2,0.9-2,2v13.5
		c0,1.1,0.9,2,2,2h0.1c0.1,0,0.1,0,0.2,0l0,0h13.2c1.1,0,2-0.9,2-2C119,109.3,118.1,108.4,117,108.4 M92.2,116.1
		c-8.6,4.7-18.3,7.1-28.2,7.1C31.3,123.2,4.8,96.7,4.8,64c0-15.9,6.4-31.1,17.7-42.2V31c0,1.1,0.9,2,2,2s2-0.9,2-2V17.6
		c0-1.1-0.9-2-2-2h-0.1c-0.1,0-0.1,0-0.2,0H11c-1.1,0-2,0.9-2,2s0.9,2,2,2h8C7.4,31.3,0.8,47.3,0.8,64c0,34.9,28.4,63.2,63.2,63.2
		c10.5,0,20.9-2.6,30.1-7.6c1-0.5,1.3-1.7,0.8-2.7S93.1,115.6,92.2,116.1 M97.9,83.3c-1.7,0-3.5,0.3-5.1,0.9
		c-3.6,1.4-6.5,4.1-8.1,7.6c-1.2,2.6-1.6,5.4-1.2,8.1c-2.5,1.3-5.1,2.4-7.8,3.2c-1.5-2-3.4-3.5-5.7-4.6c-1.9-0.9-3.9-1.3-6-1.3
		c-4.7,0-9,2.2-11.7,5.9c-2.7-0.8-5.3-1.9-7.8-3.2c0.4-2.4,0.1-4.9-0.8-7.2c-2.1-5.7-7.6-9.5-13.6-9.5c-0.7,0-1.4,0.1-2.1,0.2
		c-1.3-2.5-2.4-5.1-3.2-7.8c2-1.5,3.5-3.4,4.6-5.7c2.9-6.4,0.8-13.7-4.6-17.7c0.8-2.7,1.9-5.3,3.2-7.8c0.7,0.1,1.4,0.2,2.1,0.2
		c1.7,0,3.5-0.3,5.1-0.9c6.5-2.5,10.3-9.1,9.3-15.8c2.5-1.3,5.1-2.4,7.8-3.2c1.5,2,3.4,3.5,5.7,4.6c1.9,0.9,3.9,1.3,6,1.3
		c4.7,0,9-2.2,11.7-5.9c2.7,0.8,5.3,1.9,7.8,3.2c-0.4,2.4-0.1,4.9,0.8,7.2c2.1,5.7,7.6,9.5,13.7,9.5c0.7,0,1.4-0.1,2.1-0.2
		c1.3,2.5,2.4,5.1,3.2,7.8c-2,1.5-3.5,3.4-4.6,5.7c-2.9,6.4-0.8,13.7,4.6,17.7c-0.8,2.7-1.9,5.3-3.2,7.8
		C99.3,83.4,98.6,83.3,97.9,83.3 M107.9,73.8c-0.1,0-0.2-0.1-0.3-0.1c-5.3-2.4-7.7-8.7-5.3-14c1.2-2.5,3.2-4.4,5.6-5.4
		c-1.1-5.2-3.2-10-6-14.4c-0.1,0-0.2,0.1-0.3,0.1c-1.2,0.5-2.5,0.7-3.7,0.7c-4.3,0-8.3-2.6-9.9-6.9c-1-2.6-0.9-5.3,0.1-7.7
		c-4.3-2.8-9.2-4.8-14.4-6c0,0.1-0.1,0.2-0.1,0.3c-1.8,3.9-5.6,6.2-9.6,6.2c-1.5,0-2.9-0.3-4.4-0.9c-2.5-1.2-4.4-3.2-5.4-5.6
		c-5.2,1.1-10,3.2-14.4,6c0,0.1,0.1,0.2,0.1,0.3C42,31.9,39.2,38,33.7,40c-1.2,0.5-2.5,0.7-3.7,0.7c-1.4,0-2.8-0.3-4-0.8
		c-2.8,4.3-4.8,9.2-6,14.4c0.1,0,0.2,0.1,0.3,0.1c5.3,2.4,7.7,8.7,5.3,14c-1.2,2.5-3.2,4.4-5.6,5.4c1.1,5.2,3.2,10,6,14.4
		c0.1,0,0.2-0.1,0.3-0.1c1.2-0.5,2.5-0.7,3.7-0.7c4.3,0,8.3,2.6,9.9,6.9c1,2.6,0.9,5.3-0.1,7.7c4.3,2.8,9.2,4.8,14.4,6
		c0-0.1,0.1-0.2,0.1-0.3c1.8-3.9,5.6-6.2,9.6-6.2c1.5,0,2.9,0.3,4.4,0.9c2.5,1.2,4.4,3.2,5.4,5.6c5.2-1.2,10-3.2,14.4-6
		c0-0.1-0.1-0.2-0.1-0.3c-2-5.5,0.7-11.6,6.2-13.7c1.2-0.5,2.5-0.7,3.7-0.7c1.4,0,2.8,0.3,4,0.8C104.7,83.8,106.8,78.9,107.9,73.8
		 M64,82.7c-10.3,0-18.7-8.4-18.7-18.7S53.7,45.3,64,45.3S82.7,53.7,82.7,64S74.3,82.7,64,82.7 M64,41.3
		c-12.6,0-22.7,10.2-22.7,22.7c0,12.6,10.2,22.7,22.7,22.7c12.6,0,22.7-10.2,22.7-22.7C86.7,51.4,76.6,41.3,64,41.3"/>
</g>
</svg>
