<?xml version="1.0" encoding="UTF-8"?>
<svg width="22px" height="22px" viewBox="0 0 22 22" version="1.1" xmlns="http://www.w3.org/2000/svg" xmlns:xlink="http://www.w3.org/1999/xlink">
    <g id="Instagram" fill="white">
        <path d="M11,1.982 C13.937,1.982 14.285,1.993 15.445,2.046 C16.1423814,2.05412396 16.8331504,2.18233232 17.487,2.425 C17.9649953,2.60110526 18.3973105,2.88236644 18.752,3.248 C19.1176336,3.60268953 19.3988947,4.03500471 19.575,4.513 C19.8176677,5.16684955 19.945876,5.85761858 19.954,6.555 C20.007,7.715 20.018,8.063 20.018,11 C20.018,13.937 20.007,14.285 19.954,15.445 C19.945876,16.1423814 19.8176677,16.8331504 19.575,17.487 C19.2048128,18.4464508 18.4464508,19.2048128 17.487,19.575 C16.8331504,19.8176677 16.1423814,19.945876 15.445,19.954 C14.285,20.007 13.937,20.018 11,20.018 C8.063,20.018 7.715,20.007 6.555,19.954 C5.85761858,19.945876 5.16684955,19.8176677 4.513,19.575 C4.03500471,19.3988947 3.60268953,19.1176336 3.248,18.752 C2.88236644,18.3973105 2.60110526,17.9649953 2.425,17.487 C2.18233232,16.8331504 2.05412396,16.1423814 2.046,15.445 C1.993,14.285 1.982,13.937 1.982,11 C1.982,8.063 1.993,7.715 2.046,6.555 C2.05412396,5.85761858 2.18233232,5.16684955 2.425,4.513 C2.60110526,4.03500471 2.88236644,3.60268953 3.248,3.248 C3.60268953,2.88236644 4.03500471,2.60110526 4.513,2.425 C5.16684955,2.18233232 5.85761858,2.05412396 6.555,2.046 C7.715,1.993 8.063,1.982 11,1.982 M11,0 C8.013,0 7.638,0.013 6.465,0.066 C5.55258417,0.0848561341 4.6498993,0.257617172 3.795,0.577 C2.31591777,1.14960646 1.14730942,2.32003055 0.577,3.8 C0.257617172,4.6548993 0.0848561341,5.55758417 0.066,6.47 C0.013,7.638 0,8.013 0,11 C0,13.987 0.013,14.362 0.066,15.535 C0.0848561341,16.4474158 0.257617172,17.3501007 0.577,18.205 C1.14960646,19.6840822 2.32003055,20.8526906 3.8,21.423 C4.6548993,21.7423828 5.55758417,21.9151439 6.47,21.934 C7.638,21.987 8.013,22 11,22 C13.987,22 14.362,21.987 15.535,21.934 C16.4474158,21.9151439 17.3501007,21.7423828 18.205,21.423 C19.6840822,20.8503935 20.8526906,19.6799694 21.423,18.2 C21.7423828,17.3451007 21.9151439,16.4424158 21.934,15.53 C21.987,14.362 22,13.987 22,11 C22,8.013 21.987,7.638 21.934,6.465 C21.9151439,5.55258417 21.7423828,4.6498993 21.423,3.795 C20.8503935,2.31591777 19.6799694,1.14730942 18.2,0.577 C17.3451007,0.257617172 16.4424158,0.0848561341 15.53,0.066 C14.362,0.013 13.987,0 11,0 Z" id="Shape"></path>
        <path d="M11,5.351 C7.88014345,5.351 5.351,7.88014345 5.351,11 C5.351,14.1198566 7.88014345,16.649 11,16.649 C14.1198566,16.649 16.649,14.1198566 16.649,11 C16.649,9.50179205 16.0538392,8.06494679 14.9944462,7.00555379 C13.9350532,5.94616079 12.498208,5.351 11,5.351 Z M11,14.667 C8.97477182,14.667 7.333,13.0252282 7.333,11 C7.333,8.97477182 8.97477182,7.333 11,7.333 C13.0252282,7.333 14.667,8.97477182 14.667,11 C14.667,13.0252282 13.0252282,14.667 11,14.667 L11,14.667 Z" id="Shape"></path>
        <circle id="Oval" cx="16.872" cy="5.128" r="1.32"></circle>
    </g>                      
</svg>