<?xml version="1.0" encoding="UTF-8"?>
<svg width="1314px" height="739px" viewBox="0 0 1314 739" version="1.1" xmlns="http://www.w3.org/2000/svg" xmlns:xlink="http://www.w3.org/1999/xlink">
    <title>C31CA707-98F5-47FB-95A1-7F2F0BE33175</title>
    <defs>
        <radialGradient cx="73.4257871%" cy="12.7573746%" fx="73.4257871%" fy="12.7573746%" r="87.7446086%" gradientTransform="translate(0.734258,0.127574),scale(0.562405,1.000000),rotate(163.764676),scale(1.000000,0.813747),translate(-0.734258,-0.127574)" id="radialGradient-1">
            <stop stop-color="#FFFFFF" stop-opacity="0.281552188" offset="0%"></stop>
            <stop stop-color="#FFFFFF" stop-opacity="0.281552188" offset="0%"></stop>
            <stop stop-color="#FFFFFF" stop-opacity="0.208550727" offset="0%"></stop>
            <stop stop-color="#FFFFFF" stop-opacity="0" offset="100%"></stop>
        </radialGradient>
    </defs>
    <g id="Page-1" stroke="none" stroke-width="1" fill="none" fill-rule="evenodd" opacity="0.531072707">
        <g id="FF-Home---02---rev1" transform="translate(-127.000000, -3656.000000)" fill="url(#radialGradient-1)">
            <g id="footer" transform="translate(0.000000, 3862.000000)">
                <g id="Pattern" transform="translate(1.000000, 0.000000)">
                    <path d="M148,-130.829004 L148,-206 L146.363692,-206 L146.363692,-130.829004 L146.363692,-123.674596 L126,-123.674596 L126,-122 L148,-122 L148,-130.829004 Z M136,-98 C187.907436,-97.5479516 230,-55.3296401 230,-3.5 C230,48.3296401 187.907436,90.5479516 136,91 L136,-98 Z M130.876641,92.7938391 C132.357761,92.8955542 133.889694,93 135.436734,93 C188.682214,93 232,49.9348921 232,-3 C232,-55.65637 189.135408,-98.5392098 136.275142,-98.9897602 L136.275142,-99 L135.436734,-99 L134.598325,-99 L126,-99 L126,-98.5412578 L126,-96.8626163 C126.199131,-96.8824132 126.398261,-96.9022101 126.598079,-96.9206417 C126.977114,-96.955457 127.355462,-96.9909549 127.735183,-97.0216742 C128.148551,-97.0544415 128.563979,-97.0824302 128.979407,-97.110419 C129.368742,-97.1370424 129.758076,-97.1629832 130.148784,-97.1848281 C130.558032,-97.2066729 130.968653,-97.2244219 131.379275,-97.2414882 C131.777536,-97.2585545 132.175111,-97.2749381 132.574059,-97.2872259 C132.98056,-97.298831 133.388434,-97.3056575 133.796309,-97.3131667 C134.063419,-97.3172626 134.330528,-97.3206758 134.598325,-97.3227238 L134.598325,91.0353272 L129.536973,91.0353272 C128.351115,90.9629661 127.173498,90.8619336 126,90.7465654 L126,92.4176978 L126,92.7023637 L129.48204,92.7023637 C129.947594,92.7310351 130.411774,92.7624371 130.876641,92.7938391 L130.876641,92.7938391 Z M497.831232,-122 L597.804133,-122 L637.69688,-122 C650.211553,-122 661.992848,-125.202443 672.269041,-130.829004 C694.730537,-143.127206 710,-167.014548 710,-194.407432 C710,-198.335396 709.676793,-202.2085 709.060509,-206 L707.360935,-206 C707.992284,-202.210557 708.328501,-198.337453 708.328501,-194.407432 C708.328501,-166.509151 692.114754,-142.334482 668.630226,-130.829004 C659.283253,-126.24958 648.785198,-123.674596 637.69688,-123.674596 L597.804133,-123.674596 L497.831232,-123.674596 C496.641119,-123.674596 495.672184,-124.644244 495.672184,-125.836759 L495.672184,-130.829004 L495.672184,-206 L494,-206 L494,-130.829004 L494,-125.836759 C494,-123.721227 495.718748,-122 497.831232,-122 L497.831232,-122 Z M251.816301,-122 L370.183017,-122 C372.287645,-122 374,-123.721227 374,-125.836759 L374,-130.829004 L374,-206 L372.334035,-206 L372.334035,-130.829004 L372.334035,-125.836759 C372.334035,-124.644244 371.368704,-123.674596 370.183017,-123.674596 L251.816301,-123.674596 C250.630614,-123.674596 249.665965,-124.644244 249.665965,-125.836759 L249.665965,-130.829004 L249.665965,-206 L248,-206 L248,-130.829004 L248,-125.836759 C248,-123.721227 249.712355,-122 251.816301,-122 L251.816301,-122 Z M250,-26 L348.787575,-26 L348.787575,-16.1647603 C348.787575,-14.0497656 350.499334,-12.3296613 352.603229,-12.3296613 L375.849731,-12.3296613 C377.035005,-12.3296613 378,-11.3595746 378,-10.1680476 L378,2.4848998 C378,3.67711239 377.035005,4.64651354 375.849731,4.64651354 L352.603229,4.64651354 C350.499334,4.64651354 348.787575,6.36730341 348.787575,8.48229814 L348.787575,88.8383863 C348.787575,90.0305989 347.823262,91 346.637988,91 L252.149587,91 C250.964313,91 250,90.0305989 250,88.8383863 L250,-26 Z M250,-95.8537672 C250,-97.0368159 250.966387,-98 252.154209,-98 L349,-98 L349,-28 L250,-28 L250,-95.8537672 Z M350,-98 L407.826192,-98 C409.02513,-98 410,-97.0368159 410,-95.8537672 L410,-30.1462328 C410,-28.9631841 409.02513,-28 407.826192,-28 L350,-28 L350,-98 Z M251.835255,92 L346.826033,92 C348.940428,92 350.660602,90.2838829 350.660602,88.1746314 L350.660602,8.03674952 C350.660602,6.84777438 351.630728,5.88100563 352.822989,5.88100563 L376.193089,5.88100563 C378.30817,5.88100563 380.028344,4.16488854 380.028344,2.05563706 L380.028344,-10.5629514 C380.028344,-12.6722028 378.30817,-14.3876362 376.193089,-14.3876362 L352.822989,-14.3876362 C351.630728,-14.3876362 350.660602,-15.3550887 350.660602,-16.5433801 L350.660602,-26.3519123 L408.164745,-26.3519123 C410.27914,-26.3519123 412,-28.0673456 412,-30.1765971 L412,-96.1753151 C412,-98.2845666 410.27914,-100 408.164745,-100 L251.835255,-100 L248.837119,-100 L248.837119,-98.5539491 C248.314691,-97.8996368 248,-97.0743964 248,-96.1753151 L248,-28.0208532 L248,-26.3519123 L248,88.1746314 C248,90.2838829 249.72086,92 251.835255,92 L251.835255,92 Z M126,482.294422 L156.048066,533 L158,533 L126,479 L126,482.294422 Z M225.907698,490.540106 L225.896051,490.561319 L225.892625,490.566109 L223.339792,495.168653 L221.213116,499 L163.989502,401.531594 L149,376 L295,376 L225.907698,490.540106 Z M375.167069,375 L298.401584,375 L148.405811,375 L146.466181,375 L126,375 L126,376.667681 L147.447648,376.667681 L163.10245,403.281581 L220.683418,501.167167 L202.989605,533 L204.902505,533 L221.66694,502.838947 L239.409415,533 L241.34973,533 L222.610025,501.143938 L227.76341,491.872286 L297.393387,376.668365 L375.167069,376.668365 C375.944292,376.668365 376.665313,377.087847 377.047756,377.762845 C377.430199,378.437842 377.419233,379.269975 377.017599,379.934041 L309.858423,491.050401 L286.54174,533 L288.45464,533 L311.30732,491.885266 L378.451418,380.794868 C379.163529,379.616355 379.183405,378.139969 378.504878,376.942326 C377.824979,375.744684 376.546057,375 375.167069,375 L375.167069,375 Z M588,201.854541 C588,203.037538 587.031345,204 585.840735,204 L506,204 L506,117 L585.840735,117 C587.031345,117 588,117.962462 588,119.145459 L588,201.854541 Z M401,204 L504,204 L504,117 L401,117 L401,204 Z M504,351 L403.158551,351 C401.96909,351 401,350.030996 401,348.840799 L401,206 L504,206 L504,351 Z M400,204 L320.159265,204 C318.968655,204 318,203.037538 318,201.854541 L318,119.145459 C318,117.962462 318.968655,117 320.159265,117 L400,117 L400,204 Z M585.178914,115 L505.568628,115 L503.900575,115 L401.098742,115 L399.431372,115 L319.821086,115 C317.714502,115 316,116.714238 316,118.822019 L316,201.843314 C316,203.951095 317.714502,205.665333 319.821086,205.665333 L399.431372,205.665333 L399.431372,348.177981 C399.431372,350.285762 401.145874,352 403.253141,352 L505.568628,352 L505.568628,205.665333 L585.178914,205.665333 C587.285498,205.665333 589,203.951095 589,201.843314 L589,118.822019 C589,116.714238 587.285498,115 585.178914,115 L585.178914,115 Z M138,250.120487 L138,250.103352 C148.953976,256.361157 161.309864,259.662097 173.831731,259.662097 L300.809651,259.662783 C302.92555,259.662783 304.647075,257.9424 304.647075,255.828592 L304.647075,214 C332.422616,224.204403 351,250.698289 351,280.301201 C351,319.284651 319.263579,351 280.254228,351 L140.162538,351 C138.970501,351 138,350.030143 138,348.838898 L138,250.120487 Z M138,212.143835 C138,210.961428 138.970665,210 140.162902,210 L280.278209,210 C287.924168,210 295.564638,211.279637 303,213.785877 L303,255.856845 C303,257.038572 302.029335,258 300.837098,258 L173.837771,257.99932 C161.286354,257.99932 148.907118,254.626163 138,248.250414 L138,212.143835 Z M136.28914,348.177981 C136.28914,350.285762 138.004908,352 140.114571,352 L279.793436,352 C319.60829,352 352,319.63719 352,279.857861 C352,249.447055 332.779154,222.259753 304.114402,212.002341 L304.114402,118.822019 C304.114402,116.714238 302.39795,115 300.288286,115 L173.684548,115 C155.424505,115 138.7291,121.81049 126,133.018283 L126,135.259978 C138.564977,123.722866 155.315089,116.668461 173.684548,116.668461 L300.288286,116.668461 C301.47681,116.668461 302.444451,117.634556 302.444451,118.822019 L302.444451,211.407926 L302.444451,211.417491 C295.028147,208.960577 287.414211,207.715039 279.793436,207.715039 L140.114571,207.715039 C138.004908,207.715039 136.28914,209.42996 136.28914,211.537741 L136.28914,246.812499 C132.582013,244.492915 129.148425,241.876124 126,239.011318 L126,241.244814 C129.164837,244.007135 132.599793,246.526907 136.28914,248.765186 L136.28914,348.177981 Z M493.537879,375.010248 L493.537879,375 L492.702456,375 L491.866348,375 L394.831304,375 C392.71878,375 391,376.714822 391,378.821798 L391,533 L392.672215,533 L392.672215,378.821798 C392.672215,377.634404 393.641169,376.667681 394.831304,376.667681 L474.780582,376.667681 C474.485445,376.723703 474.192362,376.785874 473.898595,376.843946 C473.613729,376.900651 473.328864,376.95599 473.045368,377.014745 C472.550962,377.117908 472.05861,377.226536 471.566943,377.33653 C471.32111,377.391869 471.074592,377.444475 470.829443,377.50118 C470.195344,377.648751 469.563298,377.803836 468.933992,377.963704 C468.835385,377.988982 468.736093,378.011528 468.637485,378.036806 C467.902724,378.226051 467.172072,378.424178 466.444843,378.630503 C466.264748,378.68106 466.086707,378.736399 465.907296,378.788322 C465.366326,378.944774 464.82604,379.103958 464.288493,379.269975 C464.038551,379.347176 463.790664,379.427793 463.542091,379.507044 C463.07713,379.654614 462.61217,379.803551 462.150633,379.958636 C461.879463,380.048818 461.609662,380.142416 461.339862,380.235331 C460.900922,380.387 460.461983,380.540719 460.025098,380.698538 C459.751189,380.797601 459.477964,380.897348 459.205425,380.999144 C458.771279,381.160378 458.338503,381.325028 457.906411,381.492411 C457.641404,381.595574 457.375712,381.698053 457.110705,381.803949 C456.664233,381.98158 456.219131,382.164676 455.775398,382.349139 C455.533673,382.449569 455.291264,382.548632 455.050224,382.651112 C454.553763,382.862219 454.060727,383.079476 453.56906,383.298781 C453.384856,383.380765 453.199283,383.460016 453.015764,383.543366 C451.659229,384.158242 450.319813,384.803179 448.997517,385.477493 C448.813998,385.571091 448.633218,385.668105 448.450383,385.763069 C447.97789,386.008337 447.506766,386.25497 447.039067,386.50707 C446.811722,386.630045 446.585747,386.755753 446.359087,386.880095 C445.937952,387.111698 445.517501,387.345351 445.100475,387.583103 C444.860804,387.719743 444.623188,387.857748 444.384887,387.996437 C443.982241,388.23009 443.581649,388.466476 443.183111,388.706278 C442.943441,388.849749 442.704455,388.994586 442.466154,389.14079 C442.066931,389.385374 441.669763,389.633375 441.274649,389.883424 C441.045935,390.027579 440.817906,390.171733 440.590561,390.317937 C440.175589,390.58575 439.763356,390.857662 439.352492,391.131623 C439.152538,391.264847 438.951215,391.396703 438.751946,391.531293 C438.267812,391.85991 437.787101,392.19331 437.30913,392.530125 C437.18861,392.615525 437.066036,392.698192 436.9462,392.783591 C436.339492,393.214688 435.738261,393.651933 435.142509,394.096694 C435.073347,394.147934 435.006924,394.20054 434.938447,394.252463 C434.421443,394.639835 433.908548,395.031989 433.399762,395.429609 C433.222406,395.568298 433.047104,395.710403 432.870433,395.850458 C432.473264,396.165411 432.077466,396.481731 431.685776,396.802833 C431.482398,396.969533 431.28039,397.138966 431.078382,397.307715 C430.716137,397.609004 430.355947,397.912343 429.998496,398.219098 C429.78827,398.398779 429.580099,398.580509 429.371928,398.762239 C429.024064,399.065578 428.678938,399.370967 428.335867,399.679771 C428.129751,399.864917 427.923634,400.050064 427.718887,400.237259 C427.372392,400.554262 427.029321,400.873998 426.686934,401.195783 C426.494513,401.37683 426.302092,401.556511 426.11104,401.738924 C425.744002,402.090087 425.381073,402.445349 425.020197,402.801977 C424.86133,402.959112 424.701093,403.113514 424.542911,403.271333 C424.075211,403.740005 423.612304,404.212777 423.154191,404.691014 C423.106942,404.739521 423.059008,404.787344 423.012443,404.835851 C422.500233,405.37216 421.994871,405.914618 421.494987,406.462541 C421.386793,406.580051 421.282023,406.700976 421.175198,406.819169 C420.793095,407.242068 420.413046,407.667699 420.038475,408.097429 C419.877554,408.281892 419.719371,408.469088 419.559134,408.654917 C419.242084,409.024526 418.926404,409.394818 418.614833,409.769209 C418.4409,409.978267 418.268338,410.189375 418.095775,410.400483 C417.803377,410.757794 417.513033,411.116472 417.225429,411.477883 C417.050127,411.698555 416.876194,411.91991 416.702947,412.141949 C416.420821,412.50336 416.141433,412.867503 415.8641,413.233013 C415.696331,413.454369 415.528562,413.675724 415.362162,413.898446 C415.079351,414.278986 414.799963,414.662259 414.52263,415.046215 C414.370611,415.257323 414.216537,415.467064 414.065887,415.679538 C413.761848,416.107902 413.462602,416.541048 413.165411,416.974877 C413.048315,417.144993 412.929849,417.313743 412.814122,417.484542 C411.989656,418.703363 411.19258,419.942681 410.424265,421.200445 C410.313332,421.381491 410.205823,421.565271 410.096259,421.747684 C409.827143,422.193811 409.560082,422.641305 409.298499,423.091531 C409.164968,423.321768 409.034861,423.554055 408.9027,423.785658 C408.670562,424.193526 408.439794,424.60276 408.213819,425.014728 C408.075494,425.265461 407.939909,425.51756 407.804324,425.769659 C407.589306,426.168646 407.377026,426.569682 407.167486,426.972084 C407.03327,427.230332 406.89974,427.489263 406.767578,427.748878 C406.560777,428.15538 406.3574,428.563931 406.156761,428.973848 C406.031448,429.229364 405.905449,429.484196 405.78219,429.741077 C405.575389,430.172174 405.373381,430.606687 405.172743,431.041199 C405.063864,431.278268 404.952931,431.513971 404.845421,431.751723 C404.618077,432.255239 404.396895,432.762853 404.177768,433.271151 C404.103812,433.442633 404.027118,433.612066 403.954532,433.784231 C403.664873,434.46811 403.382062,435.156089 403.108153,435.847483 C403.060219,435.967042 403.016393,436.088651 402.969144,436.208894 C402.745908,436.777996 402.52678,437.349831 402.314501,437.924399 C402.226165,438.162834 402.141938,438.403319 402.055657,438.642438 C401.889942,439.102229 401.725596,439.562703 401.566729,440.02591 C401.472915,440.299188 401.382525,440.573833 401.290766,440.847794 C401.146279,441.28299 401.003161,441.718869 400.864152,442.156798 C400.773077,442.44374 400.684742,442.731366 400.596406,443.018991 C400.46356,443.450771 400.334823,443.883234 400.20814,444.317063 C400.123913,444.608105 400.039686,444.899146 399.957513,445.191554 C399.833569,445.633582 399.713734,446.076976 399.595953,446.521054 C399.521313,446.80458 399.444618,447.087423 399.372032,447.372316 C399.250827,447.847137 399.135786,448.324008 399.022113,448.800879 C398.960484,449.056394 398.8968,449.311226 398.837909,449.567425 C398.70027,450.165904 398.570163,450.7678 398.44348,451.371062 C398.415405,451.506335 398.383905,451.640924 398.355829,451.77688 C398.20381,452.517465 398.060692,453.261465 397.926477,454.008198 C397.889499,454.213157 397.857315,454.419482 397.821707,454.625124 C397.727208,455.167582 397.634764,455.71004 397.549852,456.25523 C397.506711,456.533974 397.467679,456.814084 397.426593,457.093511 C397.356746,457.569016 397.288269,458.04452 397.225269,458.522074 C397.185553,458.82678 397.148575,459.132851 397.111597,459.438923 C397.056131,459.895981 397.002718,460.353723 396.954099,460.812147 C396.919861,461.127784 396.888361,461.44342 396.857547,461.759057 C396.813036,462.215432 396.772635,462.673173 396.734972,463.131597 C396.708951,463.446551 396.682929,463.760821 396.660332,464.077141 C396.626093,464.549912 396.597333,465.02405 396.569942,465.498871 C396.552823,465.798794 396.533649,466.098717 396.519269,466.398641 C396.493932,466.921969 396.476128,467.446663 396.459009,467.971358 C396.450791,468.225507 396.43915,468.478289 396.432987,468.732438 C396.414499,469.511281 396.403542,470.292858 396.403542,471.076483 C396.403542,471.834831 396.413129,472.591129 396.430933,473.345377 C396.437096,473.594744 396.448052,473.842744 396.45627,474.09211 C396.472019,474.595626 396.487769,475.099824 396.511736,475.60129 C396.525432,475.898481 396.544605,476.194304 396.561725,476.490128 C396.587061,476.94377 396.612398,477.397413 396.644582,477.849005 C396.666495,478.162592 396.693201,478.474813 396.718538,478.787716 C396.752776,479.218813 396.788384,479.650593 396.828786,480.080323 C396.859601,480.402792 396.89247,480.723211 396.926024,481.044313 C396.969849,481.465161 397.015729,481.885327 397.065717,482.304809 C397.10338,482.627278 397.143097,482.949063 397.184183,483.270848 C397.23828,483.687598 397.294432,484.103664 397.353322,484.518364 C397.398517,484.837417 397.444397,485.156469 397.492331,485.474838 C397.556015,485.892954 397.623807,486.309704 397.692969,486.72577 C397.744327,487.037991 397.795685,487.349528 397.850467,487.661066 C397.925107,488.08738 398.005226,488.512328 398.086029,488.936592 C398.14218,489.2331 398.196962,489.53029 398.256537,489.826114 C398.346243,490.274973 398.442111,490.721784 398.537979,491.168594 C398.596185,491.437773 398.650966,491.707635 398.711226,491.976131 C398.829692,492.504242 398.955006,493.028936 399.082373,493.554314 C399.126884,493.737411 399.167285,493.92119 399.213165,494.103604 C399.388467,494.811395 399.571986,495.515087 399.763722,496.216046 C399.808917,496.381379 399.857536,496.544663 399.904101,496.709313 C400.052696,497.244256 400.204031,497.778515 400.362214,498.310041 C400.437539,498.561457 400.516972,498.811507 400.593667,499.062923 C400.729937,499.505634 400.866206,499.948345 401.008639,500.389007 C401.096975,500.662968 401.189419,500.93488 401.280494,501.208159 C401.418818,501.622859 401.557142,502.036875 401.700945,502.448842 C401.798867,502.731002 401.900213,503.011796 402.00156,503.293273 C402.145362,503.693626 402.290534,504.093295 402.43913,504.490915 C402.545269,504.773758 402.652779,505.055918 402.761658,505.337395 C402.914362,505.733649 403.069121,506.128536 403.226618,506.52274 C403.336867,506.798068 403.448485,507.073396 403.561472,507.347358 C403.725818,507.74771 403.893587,508.146014 404.063411,508.543634 C404.176398,508.807347 404.288701,509.070378 404.403743,509.332725 C404.583838,509.744009 404.768042,510.15256 404.9543,510.561111 C405.065233,510.805696 405.175482,511.050963 405.289154,511.294864 C405.491847,511.730743 405.700018,512.164572 405.909558,512.597035 C406.011589,512.808143 406.111566,513.019934 406.214967,513.229675 C406.464224,513.735923 406.719644,514.238755 406.977804,514.740221 C407.046966,514.873444 407.112704,515.008034 407.182551,515.140574 C407.855682,516.433864 408.558259,517.710757 409.288912,518.969887 C409.333422,519.047089 409.379987,519.122923 409.425182,519.200125 C409.742916,519.743949 410.064759,520.284357 410.392081,520.821349 C410.479732,520.96482 410.569437,521.106241 410.657773,521.249029 C410.947432,521.717702 411.23983,522.185008 411.537706,522.648898 C411.643846,522.814231 411.75204,522.978198 411.859549,523.143532 C412.145784,523.58351 412.434758,524.022122 412.727841,524.458001 C412.842198,524.62675 412.957925,524.794816 413.072966,524.963566 C413.367419,525.394662 413.66461,525.823709 413.966595,526.250024 C414.080952,526.412624 414.196679,526.573859 414.312405,526.735776 C414.623292,527.169606 414.938287,527.601385 415.256022,528.029749 C415.364901,528.176636 415.47378,528.323524 415.584028,528.469727 C415.921621,528.919954 416.264692,529.367447 416.610503,529.811524 C416.702947,529.9304 416.794706,530.049277 416.887151,530.166786 C417.269939,530.653905 417.65752,531.136925 418.049895,531.615845 C418.108785,531.688264 418.166991,531.761366 418.226566,531.833784 C418.54841,532.225939 418.875046,532.613311 419.203052,533 L419.207161,533 L421.406651,533 C406.860023,516.376476 398.075073,494.672706 398.075073,471.076483 C398.075073,470.26553 398.085344,469.456626 398.105887,468.649771 C398.112735,468.395622 398.126431,468.143523 398.135333,467.889374 C398.153137,467.338035 398.170256,466.786696 398.198332,466.238089 C398.214081,465.922453 398.238733,465.609549 398.257907,465.295279 C398.287352,464.810893 398.313373,464.325824 398.350351,463.843488 C398.378427,463.475928 398.415405,463.111102 398.447589,462.745592 C398.485251,462.318594 398.518805,461.89023 398.561946,461.465282 C398.600978,461.083376 398.649597,460.704202 398.692738,460.322979 C398.739302,459.916477 398.781073,459.507926 398.833116,459.102791 C398.883104,458.70927 398.94268,458.317799 398.997461,457.925644 C399.052243,457.537589 399.102232,457.147484 399.161807,456.760112 C399.223437,456.354977 399.294653,455.953257 399.362445,455.549488 C399.424075,455.178513 399.481596,454.805488 399.548019,454.435196 C399.621974,454.021179 399.704832,453.611261 399.784265,453.199294 C399.853427,452.843349 399.917796,452.485355 399.990382,452.130776 C400.077348,451.707194 400.172532,451.287029 400.264976,450.865497 C400.339616,450.525948 400.410148,450.18435 400.488212,449.846168 C400.586134,449.422587 400.692959,449.002421 400.797044,448.58089 C400.878532,448.24749 400.956596,447.912724 401.042193,447.580691 C401.151757,447.15506 401.270222,446.732161 401.385949,446.30858 C401.474285,445.985428 401.558512,445.66091 401.649587,445.339125 C401.772161,444.908028 401.903637,444.480347 402.032375,444.051983 C402.125504,443.741129 402.214524,443.428909 402.311077,443.119421 C402.446662,442.684908 402.58978,442.254495 402.731528,441.822715 C402.82945,441.522792 402.923949,441.221503 403.02461,440.922946 C403.172521,440.48775 403.327965,440.056653 403.481354,439.62419 C403.585439,439.333149 403.684731,439.039375 403.790871,438.749699 C403.951108,438.313137 404.118877,437.880674 404.285277,437.447528 C404.393471,437.165368 404.497557,436.881842 404.607805,436.601731 C404.781053,436.162436 404.963202,435.72724 405.142613,435.291361 C405.254231,435.020816 405.36174,434.748221 405.476097,434.479041 C405.66167,434.04043 405.854776,433.605917 406.047197,433.170721 C406.162924,432.908374 406.275227,432.643294 406.393692,432.38163 C406.591592,431.943018 406.798393,431.509189 407.00314,431.073993 C407.122291,430.819844 407.238702,430.565012 407.359907,430.312229 C407.569447,429.877717 407.78652,429.447986 408.002224,429.017573 C408.126852,428.767523 408.248742,428.516107 408.37611,428.267424 C408.596607,427.836327 408.825321,427.40933 409.052665,426.981649 C409.182087,426.739114 409.307401,426.495213 409.438192,426.254045 C409.672385,425.822265 409.914794,425.395268 410.155149,424.967587 C410.286626,424.7353 410.414678,424.500281 410.547524,424.268678 C410.793358,423.840314 411.047408,423.416732 411.30009,422.992468 C411.43499,422.765646 411.566466,422.537459 411.703421,422.312004 C411.962265,421.886373 412.227957,421.464841 412.492964,421.043309 C412.630603,420.824687 412.764819,420.604698 412.903827,420.387441 C413.174997,419.96386 413.453015,419.545744 413.731033,419.126945 C413.870727,418.915837 414.007681,418.70268 414.149429,418.492939 C414.43224,418.073457 414.722584,417.658757 415.012243,417.244057 C415.154676,417.039781 415.294369,416.833456 415.438172,416.630547 C415.733309,416.215163 416.035293,415.804563 416.337278,415.393962 C416.48245,415.196518 416.624198,414.997025 416.770739,414.800948 C417.076833,414.39103 417.389089,413.987261 417.701346,413.582809 C417.849941,413.390148 417.996483,413.194754 418.146448,413.003459 C418.462813,412.600374 418.785341,412.20207 419.108554,411.803767 C419.260573,411.616571 419.409854,411.426643 419.563243,411.24013 C419.891249,410.84251 420.224733,410.450356 420.558218,410.058201 C420.712976,409.876471 420.864996,409.693375 421.021124,409.513011 C421.358032,409.122223 421.701788,408.737584 422.04486,408.352944 C422.203727,408.175313 422.359855,407.995633 422.519407,407.819368 C422.865902,407.437462 423.21856,407.060337 423.571218,406.683896 C423.733509,406.510365 423.893746,406.334783 424.057407,406.162618 C424.412804,405.78891 424.773679,405.420667 425.134554,405.053108 C425.301639,404.882992 425.466669,404.710826 425.635123,404.542077 C425.998053,404.17725 426.367145,403.818573 426.736923,403.459895 C426.908116,403.293195 427.077255,403.125129 427.249818,402.959795 C427.620964,402.604533 427.998274,402.254737 428.375584,401.904941 C428.551571,401.74234 428.725503,401.57769 428.902174,401.415772 C429.282223,401.069392 429.667066,400.72916 430.051908,400.388246 C430.232003,400.229744 430.410044,400.06851 430.591509,399.911375 C430.978405,399.574559 431.370095,399.243892 431.76247,398.913909 C431.947359,398.75814 432.130193,398.600322 432.316451,398.446603 C432.711565,398.118669 433.111473,397.797566 433.51138,397.476464 C433.699693,397.325478 433.886636,397.172442 434.076318,397.022139 C434.476225,396.706502 434.88161,396.395648 435.287681,396.086161 C435.482841,395.937224 435.675947,395.786237 435.871792,395.638667 C436.277862,395.333962 436.688041,395.034722 437.09822,394.736848 C437.299543,394.590645 437.498812,394.442391 437.701505,394.297553 C438.111684,394.003779 438.527341,393.716154 438.943683,393.428528 C439.149799,393.28574 439.355231,393.140903 439.562717,392.999481 C439.979059,392.716638 440.39951,392.439944 440.820645,392.163932 C441.032924,392.023877 441.243834,391.883139 441.457484,391.745133 C441.877249,391.473905 442.301808,391.208824 442.726368,390.944428 C442.945495,390.807788 443.163253,390.669783 443.383749,390.53451 C443.807624,390.275579 444.235607,390.022113 444.664275,389.768647 C444.889565,389.636107 445.113486,389.500835 445.340145,389.369661 C445.768813,389.121661 446.200905,388.879809 446.633681,388.637958 C446.86445,388.508834 447.094533,388.378344 447.326671,388.251269 C447.757393,388.014883 448.192909,387.784646 448.62774,387.555092 C448.866725,387.429384 449.104341,387.301627 449.344012,387.177968 C449.776788,386.954563 450.212989,386.737307 450.649189,386.520051 C450.896392,386.397758 451.142225,386.273417 451.390113,386.152491 C451.824259,385.941384 452.261829,385.736425 452.700083,385.531466 C452.954819,385.41259 453.2075,385.292347 453.463605,385.175521 C453.899121,384.976711 454.33806,384.78405 454.776999,384.591388 C455.039267,384.476611 455.30085,384.359785 455.563803,384.247058 C456.000688,384.060545 456.439628,383.880181 456.879252,383.700501 C457.150422,383.58914 457.420222,383.477096 457.692077,383.368467 C458.128962,383.194253 458.569271,383.026186 459.00958,382.85812 C459.287598,382.752225 459.564931,382.64428 459.844318,382.541117 C460.281203,382.3792 460.720142,382.223431 461.159766,382.067662 C461.448056,381.965866 461.73566,381.862704 462.024635,381.762957 C462.46015,381.61402 462.898405,381.470549 463.336659,381.327761 C463.633166,381.230747 463.928303,381.13305 464.226179,381.038769 C464.661695,380.901447 465.100634,380.76959 465.538889,380.638416 C465.842928,380.546868 466.146282,380.454637 466.451691,380.366504 C466.887206,380.24148 467.325461,380.121237 467.763031,380.001678 C468.075287,379.916961 468.386859,379.830196 468.6998,379.748212 C469.133946,379.634801 469.569461,379.526857 470.005661,379.419595 C470.327505,379.340344 470.649348,379.259727 470.973245,379.183892 C471.402598,379.082096 471.835374,378.987132 472.267466,378.891484 C472.600266,378.818382 472.93238,378.743914 473.26655,378.674228 C473.693848,378.584729 474.123885,378.500696 474.553922,378.417346 C474.894939,378.350393 475.235956,378.28344 475.578343,378.220586 C476.004271,378.142701 476.431569,378.070283 476.858868,377.997864 C477.210156,377.939109 477.560075,377.878988 477.912733,377.823649 C478.334553,377.757379 478.757743,377.696575 479.182302,377.63577 C479.542492,377.583847 479.902683,377.531924 480.264928,377.484101 C480.684008,377.428762 481.105144,377.378888 481.525594,377.329698 C481.894687,377.285974 482.263779,377.241566 482.634241,377.202624 C483.051268,377.158216 483.469664,377.119957 483.88806,377.081015 C484.26537,377.046172 484.64268,377.010646 485.021359,376.979902 C485.434277,376.947109 485.848565,376.919097 486.262852,376.891086 C486.651119,376.864442 487.039385,376.83848 487.429021,376.817301 C487.837145,376.794756 488.246639,376.776993 488.656133,376.759913 C489.052617,376.742833 489.449785,376.726436 489.847638,376.714822 C490.253024,376.702524 490.659779,376.695692 491.066534,376.688177 C491.33291,376.684078 491.599287,376.680662 491.866348,376.678613 L491.865663,533 L493.537879,533 L493.537879,480.311243 L493.537879,376.671781 C545.329984,377.123373 587.327785,419.29911 587.327785,471.076483 C587.327785,494.749224 578.544889,516.411319 564.064683,533 L566.266228,533 C580.44034,516.265115 589,494.650844 589,471.076483 C589,418.378162 546.253058,375.460474 493.537879,375.010248 L493.537879,375.010248 Z M580,26.707881 L585.125413,17.4257186 L597.518366,-3.21188022 L609.993183,-23.987743 L654.436852,-98 L731.849486,-98 C732.623789,-98 733.34147,-97.5797325 733.722141,-96.9041559 C734.102812,-96.2278948 734.091897,-95.3935201 733.692124,-94.7282106 L666.844131,16.5961352 L623.609331,94.8877285 C623.236846,95.564674 622.525988,95.9904174 621.755777,96 L621.729854,96 C620.96783,96 620.259018,95.593422 619.873571,94.9335883 L597.518366,56.6824002 L580,26.707881 Z M579.213116,25 L521.469481,-73.3538788 L507,-98 L597.790699,-98 L653,-98 L597.790699,-6.47466453 L583.907698,16.5401061 L583.896051,16.5606349 L583.892625,16.5661092 L581.339792,21.1679685 L579.213116,25 Z M540.245736,94.887372 C539.87141,95.5643139 539.159027,95.9900549 538.385738,96 C537.635717,96.0140114 536.889802,95.5999064 536.498367,94.9332316 L425.295397,-94.7508158 C424.905331,-95.4154372 424.901225,-96.2450162 425.285132,-96.9144289 C425.667671,-97.5838416 426.385528,-98 427.156764,-98 L504.877033,-98 L520.010902,-72.1844888 L578,26.7311645 L540.245736,94.887372 Z M621.61671,97 C621.631778,97 621.646845,97 621.662598,97 C623.0358,96.9829179 624.302161,96.2278877 624.966503,95.0294055 L668.356287,16.9005282 L735.451456,-94.2043751 C736.163056,-95.383042 736.183602,-96.8596213 735.505562,-98.0581035 C734.826152,-99.2559024 733.548149,-100 732.169467,-100 L655.459824,-100 L597.309993,-100 L505.571827,-100 L503.63359,-100 L426.830118,-100 C425.460339,-100 424.186446,-99.2641019 423.505666,-98.0779188 C422.824886,-96.8917357 422.831735,-95.4233559 423.524843,-94.2440056 L534.81865,95.1107165 C535.504908,96.2791341 536.768529,97 538.12461,97 C538.140362,97 538.15543,97 538.171182,97 C539.544385,96.9829179 540.810745,96.2278877 541.475087,95.0294055 L578.780316,27.8549562 L597.309993,59.3803679 L618.310065,95.1107165 C618.996324,96.2791341 620.259945,97 621.61671,97 L621.61671,97 Z M760.816827,-122 L863,-122 L863,-130.829004 L863,-206 L861.334103,-206 L861.334103,-130.829004 L861.334103,-123.674596 L760.816827,-123.674596 C759.630507,-123.674596 758.665214,-124.644244 758.665214,-125.836759 L758.665214,-130.829004 L758.665214,-206 L757,-206 L757,-130.829004 L757,-125.836759 C757,-123.721227 758.712285,-122 760.816827,-122 L760.816827,-122 Z M751,-95.8403875 C751,-97.0308114 751.96835,-98 753.156905,-98 L833,-98 C832.705255,-97.943835 832.412561,-97.8815056 832.119184,-97.8232858 C831.834697,-97.7664358 831.55021,-97.7109558 831.26709,-97.652051 C830.773341,-97.5486252 830.281643,-97.4397199 829.790629,-97.3294448 C829.545122,-97.2739647 829.298932,-97.2212244 829.054109,-97.1643745 C828.420167,-97.0164277 827.790329,-96.8609465 827.161175,-96.7006708 C827.062699,-96.6753281 826.963538,-96.6527251 826.865062,-96.6273823 C826.131277,-96.4376542 825.401595,-96.239022 824.675332,-96.0321704 C824.495476,-95.9814849 824.317671,-95.9260048 824.138499,-95.8739495 C823.597563,-95.7170985 823.057995,-95.5575077 822.521846,-95.3910675 C822.272236,-95.3136694 822.024677,-95.2328466 821.776435,-95.1533937 C821.311408,-95.0054469 820.847749,-94.8561302 820.386825,-94.7006491 C820.116015,-94.6102371 819.846573,-94.5164005 819.577131,-94.4232488 C819.13809,-94.2711923 818.700418,-94.1170811 818.264113,-93.9588602 C817.990568,-93.859544 817.717706,-93.7595429 817.445529,-93.658172 C817.011959,-93.4958414 816.579758,-93.3307712 816.14824,-93.1629611 C815.882901,-93.0595353 815.618246,-92.9567945 815.353591,-92.8506289 C814.907712,-92.6725448 814.463201,-92.4889812 814.020057,-92.3040477 C813.778653,-92.2033616 813.536566,-92.1040455 813.295846,-92.0013046 C812.800045,-91.7896585 812.307663,-91.5718479 811.81665,-91.3519825 C811.63269,-91.2697898 811.447363,-91.1903369 811.264088,-91.1067744 C809.909355,-90.4903293 808.571718,-89.8437469 807.251178,-89.1677122 C807.067903,-89.0738756 806.886679,-88.9766142 806.704771,-88.8814077 C806.232906,-88.6355146 805.762408,-88.3889366 805.295329,-88.1355092 C805.068286,-88.0122202 804.842611,-87.8861914 804.616253,-87.7615325 C804.195677,-87.5293382 803.775785,-87.2950891 803.359312,-87.0567303 C803.11996,-86.9197425 802.882659,-86.7813849 802.644675,-86.6423423 C802.242563,-86.4080932 801.842503,-86.1711043 801.443811,-85.9306907 C801.205142,-85.7868535 800.966474,-85.6416465 800.72849,-85.4957545 C800.329797,-85.2498614 799.933157,-85.0012285 799.538567,-84.7505409 C799.310157,-84.6060188 799.082431,-84.4614966 798.855388,-84.3149197 C798.440967,-84.0464236 798.029281,-83.7738179 797.618963,-83.4991574 C797.419275,-83.3655943 797.218219,-83.2334011 797.019215,-83.0984681 C796.53504,-82.7690125 796.055651,-82.4347623 795.578315,-82.0970874 C795.457955,-82.0121549 795.335543,-81.9285924 795.215867,-81.842975 C794.609964,-81.4107785 794.009532,-80.9724176 793.413887,-80.5265224 C793.345501,-80.4751519 793.278482,-80.4224116 793.21078,-80.3710412 C792.694463,-79.9819959 792.18225,-79.5888409 791.674139,-79.1902065 C791.497019,-79.0511639 791.32195,-78.9086966 791.145513,-78.7682841 C790.748872,-78.4525272 790.353599,-78.1354005 789.962429,-77.8134792 C789.759322,-77.6463541 789.557582,-77.4764892 789.355842,-77.3073093 C788.994079,-77.0052512 788.634367,-76.7011383 788.27739,-76.3936007 C788.067444,-76.2134618 787.859549,-76.031268 787.651655,-75.8497592 C787.304252,-75.5449613 786.959585,-75.2387936 786.61697,-74.9292012 C786.411127,-74.7435828 786.205284,-74.5579643 786.000809,-74.370291 C785.654774,-74.0524794 785.311475,-73.7319279 784.970227,-73.4093217 C784.778061,-73.2278129 784.585896,-73.0476739 784.395098,-72.8647952 C784.028547,-72.5127366 783.6661,-72.1565683 783.305704,-71.7983453 C783.147047,-71.6414943 782.986339,-71.4866981 782.829051,-71.3284772 C782.361972,-70.858609 781.899681,-70.3846313 781.441492,-69.905174 C781.394989,-69.8565433 781.347119,-69.8085976 781.300616,-69.7599669 C780.789087,-69.2222899 780.284395,-68.6784483 779.785175,-68.1298122 C779.677125,-68.0113178 779.572494,-67.8900836 779.465811,-67.7715892 C779.083531,-67.346927 778.704671,-66.920895 778.330598,-66.4900684 C778.169206,-66.3051349 778.011918,-66.1174616 777.851894,-65.9311582 C777.535265,-65.5606062 777.220004,-65.1893693 776.908846,-64.8140228 C776.735145,-64.6044314 776.562811,-64.3927853 776.390478,-64.1811392 C776.098468,-63.8229161 775.80851,-63.4633231 775.521287,-63.1009904 C775.346218,-62.8797552 775.172517,-62.6578349 774.9995,-62.4352298 C774.717748,-62.0728971 774.438048,-61.7085096 774.161767,-61.3413823 C773.994221,-61.1194621 773.82599,-60.8975418 773.660495,-60.6742517 C773.377376,-60.2927407 773.099043,-59.90849 772.822079,-59.5235543 C772.670261,-59.3119082 772.516392,-59.1016319 772.365942,-58.8886159 C772.062307,-58.4591592 771.763458,-58.0249079 771.465978,-57.5899716 C771.349721,-57.4194218 771.230729,-57.2502419 771.11584,-57.0790072 C770.292468,-55.8570761 769.496451,-54.6145968 768.729157,-53.3536242 C768.618371,-53.1721154 768.511004,-52.9878668 768.401586,-52.8049881 C768.132828,-52.357723 767.866121,-51.9090879 767.604885,-51.4577132 C767.471532,-51.2268887 767.341598,-50.9940095 767.209612,-50.7618152 C766.977783,-50.3529066 766.747321,-49.9426282 766.521646,-49.52961 C766.383506,-49.2782374 766.248101,-49.0254949 766.112696,-48.7727525 C765.897963,-48.3727481 765.685965,-47.970689 765.476703,-47.5672599 C765.342666,-47.308353 765.209312,-47.0487611 765.077327,-46.7884843 C764.8708,-46.3809457 764.667692,-45.9713522 764.467321,-45.5603888 C764.342174,-45.3042216 764.216343,-45.0487394 764.093247,-44.7912023 C763.886721,-44.3590059 763.684981,-43.9233847 763.484609,-43.4877635 C763.375875,-43.2500897 763.265089,-43.0137858 763.157722,-42.775427 C762.93068,-42.270627 762.709792,-41.7617173 762.490955,-41.2521228 C762.417098,-41.0802031 762.340506,-40.9103382 762.268016,-40.7377336 C761.978742,-40.0521097 761.696306,-39.3623762 761.422761,-38.669218 C761.374891,-38.5493537 761.331123,-38.4274345 761.283937,-38.3068853 C761.060997,-37.7356462 760.842161,-37.1630372 760.630163,-36.5870036 C760.541945,-36.3479599 760.45783,-36.1068613 760.371663,-35.8671327 C760.206168,-35.4061688 760.042041,-34.9445199 759.883385,-34.4801313 C759.789695,-34.2061558 759.699425,-33.9308103 759.607788,-33.6561498 C759.463493,-33.2198437 759.320565,-32.7828526 759.181741,-32.3438067 C759.090787,-32.0561324 759.002569,-31.7677731 758.91435,-31.4794138 C758.781681,-31.0465324 758.653114,-30.612966 758.5266,-30.1780298 C758.442485,-29.8862458 758.358369,-29.5944618 758.276306,-29.3013079 C758.152527,-28.8588373 758.03285,-28.413627 757.915226,-27.9684167 C757.840001,-27.684167 757.764092,-27.4006023 757.691603,-27.1149828 C757.570559,-26.6389502 757.45567,-26.1615477 757.341465,-25.6827754 C757.280601,-25.4266082 757.217002,-25.171126 757.158189,-24.9142739 C757.020733,-24.3142674 756.890799,-23.7108362 756.764284,-23.1060351 C756.736246,-22.9704172 756.704788,-22.8354842 756.676749,-22.6991813 C756.524932,-21.9567075 756.382004,-21.210809 756.247967,-20.4621707 C756.211039,-20.256689 756.178897,-20.0498375 756.143336,-19.8436708 C756.048963,-19.2998293 755.956641,-18.7559878 755.871842,-18.2094065 C755.828759,-17.9299514 755.789779,-17.6491264 755.748747,-17.3689864 C755.678993,-16.8922689 755.610607,-16.4155514 755.547691,-15.936779 C755.508027,-15.6312963 755.471098,-15.3244436 755.43417,-15.017591 C755.378777,-14.5593668 755.325436,-14.1004577 755.276197,-13.6408637 C755.242688,-13.3244219 755.21123,-13.0079801 755.180457,-12.6915383 C755.136005,-12.2339991 755.095657,-11.77509 755.058045,-11.3154959 C755.032058,-10.9997391 755.006071,-10.6846672 754.983504,-10.3675404 C754.949311,-9.89356266 754.920588,-9.41821503 754.893234,-8.94149752 C754.875453,-8.64149425 754.856989,-8.34080605 754.842628,-8.04011785 C754.817325,-7.51545461 754.798861,-6.9894215 754.782448,-6.46338838 C754.774242,-6.20859109 754.762616,-5.95516368 754.756461,-5.70036639 C754.737997,-4.91953598 754.727055,-4.13596582 754.727055,-3.35034084 C754.727055,-2.5900586 754.736629,-1.83183118 754.75441,-1.07565857 C754.760564,-0.825655856 754.771506,-0.577023016 754.779713,-0.327020298 C754.795441,0.177779711 754.81117,0.683264658 754.835106,1.18600985 C754.848783,1.48395829 754.867931,1.78053686 754.884344,2.07711543 C754.910331,2.53191489 754.935633,2.98671436 754.967775,3.43945901 C754.989659,3.75384599 755.016329,4.06686309 755.040948,4.38056513 C755.075825,4.81276161 755.111386,5.24564303 755.151734,5.67646963 C755.181824,5.99976081 755.215334,6.32099718 755.248843,6.64291849 C755.29261,7.06484089 755.338429,7.48607834 755.388351,7.90663086 C755.425963,8.22992205 755.465628,8.55252829 755.506659,8.87513454 C755.560001,9.2929473 755.616761,9.71007513 755.675574,10.1258331 C755.720709,10.4456996 755.766527,10.7655661 755.814398,11.0847476 C755.877997,11.5039302 755.9457,11.921743 756.01477,12.3388708 C756.06606,12.6518879 756.117349,12.9642201 756.172058,13.2765523 C756.246599,13.7039542 756.326611,14.1286163 756.407307,14.5539634 C756.463384,14.8519118 756.518093,15.1505452 756.577589,15.4471238 C756.667175,15.8971287 756.762916,16.3443938 756.858657,16.7923439 C756.916102,17.0622099 756.971495,17.3334457 757.031675,17.6026267 C757.149299,18.1307146 757.27513,18.6560628 757.401645,19.181411 C757.446096,19.3663445 757.487128,19.5519629 757.532946,19.7362115 C757.708015,20.4444384 757.891291,21.1506105 758.082089,21.8526729 C758.127907,22.019798 758.177829,22.1855532 758.223648,22.3519934 C758.372731,22.8869307 758.522497,23.4211831 758.680469,23.9520108 C758.755694,24.2054382 758.835022,24.4561259 758.912299,24.7081834 C759.047704,25.1520238 759.183792,25.5951793 759.325352,26.0355951 C759.414254,26.3109405 759.506576,26.5842312 759.59753,26.8582068 C759.734986,27.2739647 759.873811,27.6890377 760.017422,28.1027408 C760.115214,28.3849357 760.216426,28.6657607 760.316954,28.9465856 C760.460565,29.3493297 760.606228,29.750704 760.75531,30.1507083 C760.859941,30.4329032 760.967308,30.7137281 761.075358,30.9938682 C761.228544,31.3938725 761.383781,31.791822 761.542437,32.1890866 C761.651855,32.4637472 761.762641,32.7377227 761.874111,33.0110134 C762.039606,33.4130725 762.207836,33.8144468 762.378118,34.2144511 C762.490272,34.4774677 762.601741,34.7404842 762.715947,35.0028159 C762.896486,35.4151491 763.08113,35.8261125 763.266457,36.2363909 C763.377242,36.4802292 763.487344,36.7254373 763.600182,36.9692756 C763.803289,37.4076365 764.011184,37.8425728 764.22113,38.277509 C764.322341,38.4884702 764.422186,38.7001163 764.525449,38.9103926 C764.774375,39.4179324 765.029456,39.9213625 765.287273,40.4241077 C765.355659,40.5576708 765.421994,40.6926037 765.491064,40.8261668 C766.163985,42.1227563 766.865629,43.4029072 767.595311,44.6645647 C767.639762,44.7419628 767.686265,44.8179911 767.7314,44.8953892 C768.048029,45.4406006 768.369445,45.9830722 768.697015,46.5214342 C768.783866,46.6645865 768.873452,46.804999 768.960986,46.9474663 C769.250944,47.4187043 769.543638,47.8885724 769.841119,48.3543309 C769.946433,48.5194012 770.0538,48.6824166 770.160483,48.846117 C770.447705,49.2892726 770.736979,49.7310582 771.031041,50.1694191 C771.143878,50.3365442 771.258083,50.5036693 771.371605,50.6701095 C771.667034,51.1050457 771.965882,51.5372422 772.268149,51.9666989 C772.381671,52.1276596 772.495876,52.2879353 772.610081,52.4475261 C772.921923,52.8845171 773.237184,53.3180835 773.555864,53.749595 C773.663915,53.896172 773.771965,54.0420639 773.880699,54.1879559 C774.219212,54.6400157 774.561827,55.0886507 774.907862,55.5352309 C774.9995,55.6537253 775.091137,55.7722197 775.183459,55.8900292 C775.566422,56.3797606 775.954857,56.8653823 776.347394,57.3468944 C776.404839,57.4181281 776.461599,57.4893617 776.519728,57.5605954 C777.647418,58.9373226 778.822979,60.2736385 780.024527,61.5852966 C781.808043,63.533263 783.660629,65.4168451 785.59733,67.2127551 C785.600749,67.2161798 785.604168,67.2189195 785.607588,67.2223442 C786.143736,67.718925 786.685356,68.2100262 787.232447,68.694278 C787.244756,68.705922 787.25775,68.716881 787.270059,68.7278401 C787.816466,69.211407 788.369028,69.6888094 788.926376,70.1607323 C788.929796,70.1634721 788.932531,70.1662119 788.93595,70.1689516 C789.604769,70.7340262 790.283845,71.286772 790.968392,71.8340382 C791.136623,71.9682862 791.304169,72.1032192 791.473083,72.2360974 C792.132328,72.755966 792.797727,73.2696703 793.470648,73.7724154 C793.631356,73.8922798 793.794115,74.0094043 793.955507,74.1285837 C794.510804,74.5381772 795.071572,74.9422912 795.636443,75.3402407 C795.838183,75.482708 796.038555,75.6265452 796.241662,75.7669577 C796.891332,76.2183324 797.547841,76.660803 798.209821,77.0957392 C798.463534,77.2628643 798.719299,77.4265648 798.97438,77.591635 C799.488645,77.9224606 800.005646,78.2484915 800.526066,78.5704128 C800.843379,78.7663054 801.160691,78.960828 801.480055,79.1532959 C802.028514,79.4834364 802.581075,79.8080975 803.136372,80.1272791 C803.461207,80.3142674 803.78741,80.4992009 804.114297,80.6820796 C804.636085,80.9738636 805.160608,81.2601681 805.687866,81.5423629 C806.136481,81.7820916 806.587831,82.0170256 807.040548,82.2505898 C807.439924,82.4560715 807.839984,82.6594984 808.24278,82.8595005 C808.626427,83.0499136 809.010074,83.2410115 809.396457,83.42663 C810.005096,83.7190989 810.617153,84.0054034 811.233314,84.2848585 C811.654574,84.4766414 812.079253,84.6629448 812.503932,84.8485633 C812.839025,84.9944553 813.174802,85.1382924 813.511947,85.2814447 C814.222481,85.5821329 814.938486,85.8746018 815.65791,86.1588515 C815.981377,86.2862501 816.303477,86.4150186 816.628312,86.5389926 C817.098126,86.7191315 817.570676,86.8951609 818.044593,87.0677655 C818.34139,87.1759858 818.640238,87.2800965 818.938402,87.3862621 C819.728948,87.6650322 820.524965,87.9348982 821.324401,88.1938051 C821.618463,88.2890116 821.912524,88.3842181 822.207953,88.4766849 C822.701702,88.6314811 823.196135,88.7835375 823.69262,88.9307994 C823.974372,89.013677 824.258175,89.0917601 824.540611,89.1718979 C825.363298,89.406832 826.189405,89.631492 827.020983,89.8451929 C827.346502,89.9280705 827.672021,90.0095783 827.998907,90.0897161 C828.713545,90.2650605 829.431601,90.4315007 830.153077,90.5904065 C830.577756,90.6842431 831.003119,90.7780798 831.42985,90.8664369 C831.63706,90.9089031 831.840852,90.9589037 832.048062,91 L753.156905,91 C751.96835,91 751,90.0314963 751,88.8403875 L751,-95.8403875 Z M834.959122,-96.6773062 C835.311192,-96.7362144 835.661889,-96.7964925 836.014646,-96.8519757 C836.438091,-96.9184187 836.862222,-96.9793818 837.28704,-97.0403449 C837.648718,-97.0924033 838.00971,-97.1444616 838.372761,-97.1924101 C838.792775,-97.2478934 839.214847,-97.2978969 839.636234,-97.3472153 C840.006147,-97.391054 840.376061,-97.4355776 840.747348,-97.4746214 C841.165303,-97.519145 841.58463,-97.5575038 842.003957,-97.5965476 C842.382107,-97.6314815 842.760256,-97.6671004 843.139778,-97.6979244 C843.553615,-97.7308034 843.968825,-97.7588875 844.384034,-97.7869716 C844.773164,-97.8136858 845.162295,-97.839715 845.552111,-97.8616343 C845.96183,-97.8835536 846.372236,-97.9013631 846.782641,-97.9184875 C847.180007,-97.935612 847.578059,-97.9520515 847.976797,-97.9643811 C848.383085,-97.9760257 848.790745,-97.9828755 849.198405,-97.9904103 C849.465375,-97.9945202 849.732344,-97.9979451 850,-98 L850,91 L844.940621,91 C795.065381,87.9299256 756,46.488716 756,-3.35581199 C756,-4.16888167 756.010294,-4.97989642 756.030883,-5.78885623 C756.037746,-6.0436683 756.051472,-6.29642543 756.060394,-6.55055251 C756.078238,-7.10401528 756.095395,-7.65679307 756.123533,-8.20683094 C756.139318,-8.52329109 756.164025,-8.83701132 756.183241,-9.15210151 C756.212752,-9.63775139 756.238831,-10.1240862 756.275891,-10.6076812 C756.304029,-10.9761997 756.341089,-11.3419783 756.373345,-11.7084419 C756.411092,-12.1365536 756.44472,-12.5660352 756.487957,-12.9920919 C756.527076,-13.374995 756.575117,-13.7551582 756.61904,-14.1373763 C756.665708,-14.5449386 756.707572,-14.9545558 756.75973,-15.3607482 C756.80983,-15.7552959 756.869538,-16.1477887 756.924442,-16.5409664 C756.979345,-16.9300343 757.029445,-17.3211571 757.089153,-17.70954 C757.15092,-18.1157324 757.222294,-18.5184999 757.290238,-18.9233223 C757.352004,-19.2952657 757.409653,-19.669949 757.476224,-20.0405225 C757.550344,-20.4556195 757.633386,-20.8666067 757.712997,-21.2796489 C757.781626,-21.6365228 757.846824,-21.9954516 757.919572,-22.3509555 C758.006045,-22.7756423 758.102127,-23.1969042 758.194777,-23.619536 C758.269583,-23.9599704 758.340272,-24.3024598 758.41851,-24.6415242 C758.51665,-25.066211 758.623712,-25.4874729 758.728029,-25.9101047 C758.809699,-26.2436893 758.887937,-26.5800138 758.973724,-26.9129135 C759.083531,-27.3403402 759.20226,-27.763657 759.318245,-28.1883438 C759.406777,-28.5123387 759.491191,-28.8377035 759.582469,-29.1603285 C759.705316,-29.59255 759.837085,-30.0213467 759.966109,-30.4508283 C760.059445,-30.7624936 760.148664,-31.0755289 760.245431,-31.3858242 C760.380632,-31.8214706 760.524754,-32.2530072 760.666818,-32.6859137 C760.764958,-32.9866194 760.859667,-33.288695 760.960553,-33.5880306 C761.108106,-34.024362 761.264582,-34.4565836 761.418312,-34.8901751 C761.52263,-35.181976 761.622143,-35.4765168 761.728519,-35.7669478 C761.889112,-36.2046492 762.057255,-36.6382407 762.224025,-37.0725171 C762.33246,-37.3554133 762.436777,-37.6396795 762.547271,-37.9205207 C762.720904,-38.360962 762.902772,-38.7972934 763.083268,-39.2343098 C763.195135,-39.5055614 763.302883,-39.7788679 763.416808,-40.0487495 C763.602795,-40.4885058 763.797017,-40.9241522 763.989866,-41.3604836 C764.10585,-41.6235154 764.218403,-41.8892872 764.337132,-42.151634 C764.535472,-42.5913903 764.742734,-43.0263517 764.947936,-43.4626832 C765.067352,-43.7174952 765.183336,-43.9729923 765.305497,-44.2264344 C765.515504,-44.6620808 765.73306,-45.0929324 765.949243,-45.524469 C766.074149,-45.7751712 766.19631,-46.0272433 766.323961,-46.2765755 C766.544949,-46.7087971 766.774172,-47.1369088 767.002022,-47.5657054 C767.131732,-47.8088728 767.257325,-48.0534102 767.388407,-48.2952077 C767.623121,-48.7281142 767.865384,-49.1562259 768.10696,-49.5850225 C768.238729,-49.8179153 768.367067,-50.0535479 768.500208,-50.2857557 C768.746589,-50.7152373 769.000518,-51.1399241 769.254448,-51.5652959 C769.389649,-51.7927088 769.521418,-52.0214917 769.658677,-52.2475346 C769.918097,-52.6742763 770.18438,-53.0969082 770.449977,-53.51954 C770.587923,-53.7387332 770.722437,-53.9592963 770.861755,-54.1771195 C771.133529,-54.6018063 771.412165,-55.0210133 771.690115,-55.4409052 C771.830806,-55.6525636 771.968065,-55.8662769 772.110129,-56.0765654 C772.393569,-56.4971423 772.683873,-56.9129244 772.974863,-57.3287064 C773.117612,-57.533515 773.257617,-57.7403786 773.401739,-57.9438173 C773.697533,-58.3602843 774.00019,-58.7719565 774.302847,-59.1836286 C774.447655,-59.3815875 774.590405,-59.5816013 774.737272,-59.7781901 C775.044047,-60.1891773 775.356998,-60.5939997 775.66995,-60.9995071 C775.818876,-61.1926711 775.965057,-61.388575 776.116043,-61.580369 C776.433112,-61.9851914 776.756357,-62.383849 777.079603,-62.7831916 C777.232647,-62.9708757 777.38226,-63.1612998 777.53599,-63.348299 C777.864727,-63.7469566 778.198953,-64.1401343 778.53318,-64.5333121 C778.688283,-64.7155164 778.84064,-64.8997757 778.99643,-65.0799251 C779.334774,-65.4717329 779.679295,-65.8573758 780.02313,-66.2430188 C780.18235,-66.4211133 780.338826,-66.6012627 780.498733,-66.7779872 C780.845999,-67.1615752 781.199442,-67.5389985 781.552885,-67.9164217 C781.715537,-68.0904063 781.876131,-68.2664458 782.040156,-68.4390605 C782.396344,-68.8137438 782.758022,-69.1829473 783.1197,-69.5514658 C783.287157,-69.7220255 783.452554,-69.8946401 783.620697,-70.0638299 C783.985121,-70.4296085 784.355034,-70.7892223 784.725635,-71.1488361 C784.897209,-71.3159709 785.066724,-71.4844756 785.239671,-71.6502405 C785.611644,-72.0064294 785.989793,-72.3571385 786.367943,-72.7078475 C786.544321,-72.8708725 786.71864,-73.0359523 786.895705,-73.1982923 C787.276599,-73.5455765 787.662298,-73.8873808 788.047997,-74.2285002 C788.228493,-74.3874152 788.40693,-74.5490702 788.588112,-74.7066153 C788.97587,-75.0443098 789.369118,-75.3758395 789.762366,-75.7066842 C789.947666,-75.8628593 790.130907,-76.0210894 790.31758,-76.1752096 C790.712887,-76.5039993 791.113684,-76.8259393 791.515168,-77.1478793 C791.703899,-77.2992596 791.891258,-77.4526948 792.081363,-77.6027051 C792.48216,-77.9198502 792.888448,-78.2315155 793.295422,-78.5418109 C793.491016,-78.6911362 793.684552,-78.8425165 793.880833,-78.9904719 C794.287807,-79.2959724 794.698898,-79.5959931 795.10999,-79.8953287 C795.311761,-80.0412292 795.511474,-80.1898696 795.714617,-80.335085 C796.125709,-80.6296259 796.542291,-80.9180019 796.95956,-81.2063779 C797.166135,-81.3495385 797.372024,-81.4947539 797.579972,-81.6365445 C797.99724,-81.9201257 798.418626,-82.1975421 798.840699,-82.4742734 C799.053451,-82.6146941 799.26483,-82.7557997 799.478268,-82.8941654 C799.899655,-83.1661019 800.325159,-83.4318736 800.750663,-83.6969604 C800.970278,-83.8339561 801.18852,-83.9723218 801.409507,-84.1079476 C801.834325,-84.3675545 802.26326,-84.6216816 802.692882,-84.8758087 C802.918674,-85.0086945 803.143093,-85.1443203 803.370257,-85.2758362 C803.799879,-85.5244835 804.232932,-85.7669659 804.666672,-86.0094484 C804.897954,-86.1389093 805.128549,-86.2697403 805.361204,-86.3971463 C805.792884,-86.6341489 806.229369,-86.8643017 806.665168,-87.0951396 C806.904685,-87.2211756 807.14283,-87.3492666 807.383034,-87.4732478 C807.816773,-87.6972358 808.253944,-87.915059 808.691115,-88.1328822 C808.938868,-88.2554934 809.184563,-88.3801595 809.433688,-88.5014008 C809.868801,-88.7130592 810.307344,-88.9185528 810.746574,-89.1240464 C811.00119,-89.2432327 811.25512,-89.3637889 811.511795,-89.4809203 C811.94828,-89.6802491 812.388196,-89.873413 812.828112,-90.066577 C813.090964,-90.1816534 813.353129,-90.2987848 813.616667,-90.4118063 C814.053838,-90.5988055 814.49444,-90.7796398 814.935043,-90.9597892 C815.206816,-91.0714407 815.477217,-91.1837772 815.749677,-91.2926888 C816.187534,-91.4673584 816.628823,-91.6358632 817.070112,-91.8043679 C817.348748,-91.9105396 817.626698,-92.0187662 817.906707,-92.122198 C818.343878,-92.284538 818.784481,-92.4407131 819.225083,-92.5968882 C819.514014,-92.6989501 819.801573,-92.8023818 820.091876,-92.9023887 C820.528361,-93.0517141 820.967591,-93.1955596 821.406821,-93.3387201 C821.703301,-93.4359871 821.999781,-93.5339391 822.29832,-93.6284661 C822.734805,-93.7661468 823.174721,-93.8983477 823.613951,-94.0298636 C823.918667,-94.1216508 824.222696,-94.2141229 824.528784,-94.3024851 C824.965269,-94.4278362 825.404499,-94.5483925 825.843042,-94.6682637 C826.155994,-94.7532011 826.468259,-94.8401934 826.781896,-94.9223908 C827.217008,-95.0360973 827.653493,-95.1443239 828.090664,-95.2518656 C828.413224,-95.3313231 828.735783,-95.4121506 829.059715,-95.4881832 C829.490709,-95.590245 829.923763,-95.6854571 830.357502,-95.7813541 C830.691042,-95.8546468 831.023896,-95.9293095 831.358809,-95.9991773 C831.787058,-96.0889095 832.218053,-96.1731619 832.649047,-96.2567293 C832.990823,-96.3231722 833.332598,-96.3909851 833.675747,-96.4540031 C834.102623,-96.5320907 834.530872,-96.6046984 834.959122,-96.6773062 L834.959122,-96.6773062 Z M851,5.74408204 L851,-98 C902.90843,-97.5479516 945,-55.3296401 945,-3.5 C945,48.3296401 902.907744,90.5479516 851,91 L851,5.74408204 Z M752.831304,92.7023637 L844.763421,92.7023637 C845.227013,92.7310351 845.690604,92.7624371 846.154195,92.7938391 C847.63125,92.8955542 849.158978,93 850.702456,93 C903.801108,93 947,49.9348921 947,-3 C947,-55.65637 904.253058,-98.5392098 851.537879,-98.9897602 L851.537879,-99 L850.702456,-99 L849.866348,-99 L752.831304,-99 C750.71878,-99 749,-97.2872259 749,-95.1812441 L749,88.8829252 C749,90.9889069 750.71878,92.7023637 752.831304,92.7023637 L752.831304,92.7023637 Z M1298.89638,16.5606349 L1298.89295,16.5661092 L1296.33944,21.1679685 L1294.21346,25 L1236.4701,-73.3538788 L1222,-98 L1312.79096,-98 L1368,-98 L1312.79096,-6.47466453 L1298.90734,16.5401061 L1298.89638,16.5606349 Z M1255.24574,94.887372 C1254.87141,95.5643139 1254.15903,95.9900549 1253.38574,96 C1252.64461,96.0140114 1251.88912,95.5999064 1251.49768,94.9332316 L1140.2954,-94.7508158 C1139.90533,-95.4154372 1139.90123,-96.2450162 1140.28513,-96.9144289 C1140.66767,-97.5838416 1141.38553,-98 1142.15676,-98 L1219.87635,-98 L1235.0109,-72.1844888 L1293,26.7311645 L1255.24574,94.887372 Z M1312.96484,-3.70803606 L1325.46391,-24.4477911 L1369.99399,-98.3314176 L1440,-98.3314176 L1440,-100 L1370.99878,-100 L1312.96484,-100 L1221.40842,-100 L1219.47402,-100 L1142.82271,-100 C1141.45564,-100 1140.18427,-99.2641019 1139.50484,-98.0779188 C1138.82473,-96.8910524 1138.83224,-95.4226726 1139.52466,-94.2440056 L1250.5973,95.1107165 C1251.2822,96.2791341 1252.54331,97 1253.89671,97 C1253.91243,97 1253.92747,97 1253.9425,97 C1255.31299,96.9829179 1256.57752,96.2278877 1257.24055,95.0294055 L1294.47187,27.8549562 L1312.96484,59.3803679 L1333.9233,95.1107165 C1334.6082,96.2791341 1335.86932,97 1337.22271,97 C1337.23844,97 1337.25347,97 1337.26919,97 C1338.63968,96.9829179 1339.90353,96.2278877 1340.56655,95.0294055 L1383.86969,16.9005282 L1440,-76.2312417 L1440,-79.4638639 L1382.42539,16.0655538 L1339.10653,94.2210792 C1338.73264,94.8968482 1338.02108,95.3218516 1337.24869,95.3314176 C1336.46058,95.3457666 1335.7538,94.932379 1335.36351,94.2668593 L1312.96484,56.0821503 L1295.41173,26.1597257 L1300.54779,16.8936954 L1312.96484,-3.70803606 Z M1212.83123,-122 L1312.80413,-122 L1352.69688,-122 C1365.21155,-122 1376.99285,-125.202443 1387.26904,-130.829004 C1409.73054,-143.127206 1425,-167.014548 1425,-194.407432 C1425,-198.335396 1424.67679,-202.2085 1424.06051,-206 L1422.36094,-206 C1422.99228,-202.210557 1423.32782,-198.337453 1423.32782,-194.407432 C1423.32782,-166.509151 1407.11475,-142.334482 1383.63023,-130.829004 C1374.28257,-126.24958 1363.7852,-123.674596 1352.69688,-123.674596 L1312.80413,-123.674596 L1212.83123,-123.674596 C1211.64112,-123.674596 1210.67218,-124.644244 1210.67218,-125.836759 L1210.67218,-130.829004 L1210.67218,-206 L1209,-206 L1209,-130.829004 L1209,-125.836759 C1209,-123.721227 1210.71875,-122 1212.83123,-122 L1212.83123,-122 Z M966.816321,-122 L1085.18368,-122 C1087.28832,-122 1089,-123.721227 1089,-125.836759 L1089,-130.829004 L1089,-206 L1087.33471,-206 L1087.33471,-130.829004 L1087.33471,-125.836759 C1087.33471,-124.644244 1086.36937,-123.674596 1085.18368,-123.674596 L966.816321,-123.674596 C965.629946,-123.674596 964.665291,-124.644244 964.665291,-125.836759 L964.665291,-130.829004 L964.665291,-206 L963,-206 L963,-130.829004 L963,-125.836759 C963,-123.721227 964.712364,-122 966.816321,-122 L966.816321,-122 Z M965,-26 L1063.78773,-26 L1063.78773,-16.1647603 C1063.78773,-14.0497656 1065.49948,-12.3296613 1067.60336,-12.3296613 L1090.84906,-12.3296613 C1092.03501,-12.3296613 1093,-11.3595746 1093,-10.1680476 L1093,2.4848998 C1093,3.67711239 1092.03501,4.64651354 1090.84906,4.64651354 L1067.60336,4.64651354 C1065.49948,4.64651354 1063.78773,6.36730341 1063.78773,8.48229814 L1063.78773,88.8383863 C1063.78773,90.0305989 1062.82342,91 1061.63747,91 L967.150258,91 C965.964308,91 965,90.0305989 965,88.8383863 L965,-26 Z M965,-95.8537672 C965,-97.0368159 965.96638,-98 967.154878,-98 L1064,-98 L1064,-28 L965,-28 L965,-95.8537672 Z M1065,-98 L1122.82619,-98 C1124.02513,-98 1125,-97.0368159 1125,-95.8537672 L1125,-30.1462328 C1125,-28.9631841 1124.02513,-28 1122.82619,-28 L1065,-28 L1065,-98 Z M966.835255,92 L1061.82535,92 C1063.93974,92 1065.6606,90.2838829 1065.6606,88.1746314 L1065.6606,8.03674952 C1065.6606,6.84777438 1066.63073,5.88100563 1067.82299,5.88100563 L1091.1924,5.88100563 C1093.30748,5.88100563 1095.02834,4.16488854 1095.02834,2.05563706 L1095.02834,-10.5629514 C1095.02834,-12.6722028 1093.30748,-14.3876362 1091.1924,-14.3876362 L1067.82299,-14.3876362 C1066.63073,-14.3876362 1065.6606,-15.3550887 1065.6606,-16.5433801 L1065.6606,-26.3519123 L1123.16475,-26.3519123 C1125.27914,-26.3519123 1127,-28.0673456 1127,-30.1765971 L1127,-96.1753151 C1127,-98.2845666 1125.27914,-100 1123.16475,-100 L966.835255,-100 L963.837119,-100 L963.837119,-98.5539491 C963.314691,-97.8996368 963,-97.0743964 963,-96.1753151 L963,-28.0208532 L963,-26.3519123 L963,88.1746314 C963,90.2838829 964.72086,92 966.835255,92 L966.835255,92 Z M940.907698,490.540106 L940.896051,490.561319 L940.892625,490.566109 L938.339107,495.168653 L936.213116,499 L878.989502,401.531594 L864,376 L1010,376 L940.907698,490.540106 Z M1090.16947,375 L1013.45914,375 L863.571827,375 L861.63359,375 L784.830118,375 C783.460339,375 782.186446,375.736485 781.505666,376.92183 C780.824886,378.107858 780.831735,379.57673 781.524843,380.755243 L871.018627,533 L872.957548,533 L782.966534,379.911496 C782.576832,379.247429 782.572723,378.419396 782.956946,377.75123 C783.339799,377.083065 784.058248,376.667681 784.830118,376.667681 L862.613667,376.667681 L878.257906,403.281581 L935.7975,501.167167 L918.116401,533 L920.027927,533 L936.780316,502.838947 L954.510042,533 L956.448964,533 L937.722039,501.143938 L942.872406,491.872286 L1012.45235,376.668365 L1090.16947,376.668365 C1090.94682,376.668365 1091.66732,377.087847 1092.04949,377.762845 C1092.43166,378.437842 1092.4207,379.269975 1092.01935,379.934041 L1024.90843,491.050401 L1001.6085,533 L1003.52003,533 L1026.35629,491.885266 L1093.45146,380.794868 C1094.16306,379.616355 1094.1836,378.139969 1093.50556,376.942326 C1092.82615,375.744684 1091.54815,375 1090.16947,375 L1090.16947,375 Z M1303,201.854541 C1303,203.037538 1302.03135,204 1300.84074,204 L1221,204 L1221,117 L1300.84074,117 C1302.03135,117 1303,117.962462 1303,119.145459 L1303,201.854541 Z M1116,204 L1219,204 L1219,117 L1116,117 L1116,204 Z M1219,351 L1118.15855,351 C1116.96841,351 1116,350.030996 1116,348.840799 L1116,206 L1219,206 L1219,351 Z M1115,204 L1035.15995,204 C1033.96934,204 1033,203.037538 1033,201.854541 L1033,119.145459 C1033,117.962462 1033.96934,117 1035.15995,117 L1115,117 L1115,204 Z M1300.17959,115 L1220.5691,115 L1218.90104,115 L1116.09896,115 L1114.43158,115 L1034.82178,115 C1032.71451,115 1031,116.714238 1031,118.822019 L1031,201.843314 C1031,203.951095 1032.71451,205.665333 1034.82178,205.665333 L1114.43158,205.665333 L1114.43158,348.177981 C1114.43158,350.285762 1116.14609,352 1118.25336,352 L1220.5691,352 L1220.5691,205.665333 L1300.17959,205.665333 C1302.28618,205.665333 1304,203.951095 1304,201.843314 L1304,118.822019 C1304,116.714238 1302.28618,115 1300.17959,115 L1300.17959,115 Z M1066,280.301201 C1066,319.284651 1034.26416,351 995.254686,351 L855.162544,351 C853.970504,351 853,350.030143 853,348.838898 L853,250.120487 L853,250.103352 C863.954011,256.361157 876.309939,259.662097 888.831846,259.662097 L1015.81086,259.662783 C1017.92608,259.662783 1019.64693,257.9424 1019.64693,255.828592 L1019.64693,214 C1047.42324,224.204403 1066,250.698289 1066,280.301201 L1066,280.301201 Z M1018,213.785877 L1018,255.856845 C1018,257.038572 1017.03002,258 1015.83778,258 L888.837771,257.99932 C876.287726,257.99932 863.907804,254.626163 853,248.250414 L853,212.143835 C853,210.961428 853.970665,210 855.162902,210 L995.278209,210 C1002.92417,210 1010.56464,211.279637 1018,213.785877 L1018,213.785877 Z M852.091783,211.764282 L852.091783,247 C831.342075,234.011056 819,211.839355 819,187.39568 C819,148.578994 850.595712,117 889.432109,117 L1015.84773,117 C1017.03448,117 1018,117.965026 1018,119.151174 L1018,211.634611 L1018,211.644166 C1010.59475,209.189971 1002.99217,207.945811 995.382763,207.945811 L855.912193,207.945811 C853.805676,207.945811 852.091783,209.658834 852.091783,211.764282 L852.091783,211.764282 Z M1015.19031,115 L888.34433,115 C848.453512,115 816,147.36281 816,187.142139 C816,212.538681 829.031558,235.5357 850.876889,248.765186 L850.876889,348.177981 C850.876889,350.285762 852.596616,352 854.710304,352 L994.65567,352 C1034.54649,352 1067,319.63719 1067,279.857861 C1067,249.447055 1047.7418,222.259753 1019.02235,212.002341 L1019.02235,118.822019 C1019.02235,116.714238 1017.30331,115 1015.19031,115 L1015.19031,115 Z M763.8473,222.895597 C765.03429,222.895597 766,223.864602 766,225.054799 L766,242.11475 C766,243.304948 765.03429,244.273267 763.8473,244.273267 L729.803629,244.273267 L729.803629,348.840799 C729.803629,350.030996 728.837236,351 727.650245,351 L609.153383,351 C607.966393,351 607,350.030996 607,348.840799 L607,206 L729.804312,206 L729.804312,222.895597 L763.8473,222.895597 Z M607,119.145459 C607,117.962462 607.967933,117 609.156815,117 L730,117 L730,204 L607,204 L607,119.145459 Z M732,117 L803.84474,117 C805.032765,117 806,117.962462 806,119.145459 L806,204 L732,204 L732,117 Z M808,205.665333 L808,118.822019 C808,116.714238 806.283569,115 804.173932,115 L732.29992,115 L730.630674,115 L609.825385,115 C607.716431,115 606,116.714238 606,118.822019 L606,203.996872 L606,205.665333 L606,348.177981 C606,350.285079 607.716431,352 609.825385,352 L728.473852,352 C730.583489,352 732.299236,350.285079 732.299236,348.177981 L732.299236,245.519135 L764.717216,245.519135 C766.82617,245.519135 768.541917,243.804897 768.541917,241.697116 L768.541917,224.676357 C768.541917,222.568576 766.82617,220.854338 764.717216,220.854338 L732.29992,220.854338 L732.29992,205.665333 L808,205.665333 Z M768,444.853767 C768,446.037497 767.02513,447 765.826192,447 L708,447 L708,377 L765.826192,377 C767.02513,377 768,377.963184 768,379.146233 L768,444.853767 Z M706,447 L607,447 L607,379.146233 C607,377.963184 607.967064,377 609.154878,377 L706,377 L706,447 Z M765.164745,375 L608.835255,375 L605.837119,375 L605.837119,376.445643 C605.314691,377.098778 605,377.924079 605,378.821798 L605,446.924822 L605,448.592504 L605,533 L606.673553,533 L606.673553,448.592504 L705.987049,448.592504 L705.987049,458.393633 C705.987049,460.501293 707.707909,462.215432 709.822989,462.215432 L733.193089,462.215432 C734.384664,462.215432 735.35479,463.182154 735.35479,464.369548 L735.35479,476.979297 C735.35479,478.166691 734.384664,479.133413 733.193089,479.133413 L709.822989,479.133413 C707.707909,479.133413 705.987049,480.847552 705.987049,482.955212 L705.987049,533 L707.660602,533 L707.660602,482.955212 C707.660602,481.767817 708.630728,480.801095 709.822989,480.801095 L733.193089,480.801095 C735.30817,480.801095 737.028344,479.086956 737.028344,476.979297 L737.028344,464.369548 C737.028344,462.261889 735.30817,460.54775 733.193089,460.54775 L709.822989,460.54775 C708.630728,460.54775 707.660602,459.581028 707.660602,458.393633 L707.660602,448.592504 L765.164745,448.592504 C767.27914,448.592504 769,446.878365 769,444.770706 L769,378.821798 C769,376.714822 767.27914,375 765.164745,375 L765.164745,375 Z M1208.53823,375.010248 L1208.53823,375 L1207.70281,375 L1206.8667,375 L1109.83132,375 C1107.71879,375 1106,376.714822 1106,378.821798 L1106,533 L1107.67154,533 L1107.67154,378.821798 C1107.67154,377.634404 1108.64049,376.667681 1109.83132,376.667681 L1189.78087,376.667681 C1189.48573,376.723703 1189.19265,376.785874 1188.89888,376.843946 C1188.61402,376.900651 1188.32915,376.95599 1188.04497,377.014745 C1187.55124,377.117908 1187.05889,377.226536 1186.56722,377.33653 C1186.32139,377.391869 1186.07487,377.444475 1185.82972,377.50118 C1185.19493,377.648751 1184.56357,377.803836 1183.93426,377.963704 C1183.83565,377.988982 1183.73636,378.011528 1183.63707,378.036806 C1182.90299,378.226051 1182.17234,378.424178 1181.4451,378.630503 C1181.26501,378.68106 1181.08697,378.736399 1180.90756,378.788322 C1180.3659,378.944774 1179.8263,379.103958 1179.28875,379.269975 C1179.0388,379.347176 1178.79092,379.427793 1178.54234,379.507044 C1178.07669,379.654614 1177.61242,379.803551 1177.15088,379.958636 C1176.87971,380.048818 1176.60991,380.142416 1176.3401,380.235331 C1175.90048,380.387 1175.46222,380.540719 1175.02534,380.698538 C1174.75143,380.797601 1174.4782,380.897348 1174.20566,380.999144 C1173.77083,381.160378 1173.33805,381.325028 1172.90664,381.492411 C1172.64095,381.595574 1172.37526,381.698053 1172.11093,381.803949 C1171.66446,381.98158 1171.21936,382.164676 1170.77562,382.349139 C1170.5339,382.449569 1170.29149,382.548632 1170.05045,382.651112 C1169.55398,382.862219 1169.06094,383.079476 1168.56928,383.298781 C1168.38507,383.380765 1168.1995,383.460016 1168.01529,383.543366 C1166.65944,384.158242 1165.31933,384.803179 1163.99772,385.477493 C1163.8142,385.571091 1163.63273,385.668105 1163.4499,385.763069 C1162.97809,386.008337 1162.50696,386.25497 1162.03858,386.50707 C1161.81123,386.630045 1161.58594,386.755753 1161.35928,386.880095 C1160.93814,387.111698 1160.51769,387.345351 1160.10066,387.583103 C1159.86099,387.719743 1159.62337,387.857748 1159.38507,387.996437 C1158.98242,388.23009 1158.58183,388.466476 1158.18261,388.706278 C1157.94294,388.849749 1157.70463,388.994586 1157.46633,389.14079 C1157.06711,389.385374 1156.66994,389.633375 1156.27414,389.883424 C1156.04611,390.027579 1155.81739,390.171733 1155.59073,390.317937 C1155.17576,390.58575 1154.76352,390.857662 1154.35266,391.131623 C1154.1527,391.264847 1153.95138,391.396703 1153.75211,391.531293 C1153.26729,391.85991 1152.78726,392.19331 1152.30929,392.530125 C1152.18877,392.615525 1152.06619,392.698192 1151.94636,392.783591 C1151.33965,393.214688 1150.73842,393.651933 1150.14198,394.096694 C1150.0735,394.147934 1150.00639,394.20054 1149.9386,394.252463 C1149.42159,394.639835 1148.9087,395.031989 1148.39991,395.429609 C1148.22255,395.568298 1148.04725,395.710403 1147.87058,395.850458 C1147.47341,396.165411 1147.07761,396.481731 1146.68592,396.802833 C1146.48254,396.969533 1146.28053,397.138966 1146.07852,397.307715 C1145.71627,397.609004 1145.35608,397.912343 1144.99795,398.219098 C1144.7884,398.398779 1144.58023,398.580509 1144.37206,398.762239 C1144.0242,399.065578 1143.67907,399.370967 1143.336,399.679771 C1143.12988,399.864917 1142.92376,400.050064 1142.71901,400.237259 C1142.37252,400.554262 1142.02876,400.873998 1141.68706,401.195783 C1141.49464,401.37683 1141.30153,401.556511 1141.11116,401.738924 C1140.74412,402.090087 1140.38119,402.445349 1140.01963,402.801977 C1139.86145,402.959112 1139.70052,403.113514 1139.54303,403.271333 C1139.07533,403.740005 1138.61242,404.212777 1138.15362,404.691014 C1138.10705,404.739521 1138.05912,404.787344 1138.01255,404.835851 C1137.50034,405.37216 1136.99429,405.914618 1136.49441,406.462541 C1136.3869,406.580051 1136.28213,406.700976 1136.17462,406.819169 C1135.79251,407.242068 1135.41315,407.667699 1135.03858,408.097429 C1134.87697,408.281892 1134.71879,408.469088 1134.55923,408.654917 C1134.24218,409.024526 1133.9265,409.394818 1133.61493,409.769209 C1133.441,409.978267 1133.26843,410.189375 1133.09587,410.400483 C1132.80347,410.757794 1132.51312,411.116472 1132.22552,411.477883 C1132.05022,411.698555 1131.87628,411.91991 1131.70304,412.141949 C1131.42091,412.50336 1131.14084,412.867503 1130.86419,413.233013 C1130.69573,413.454369 1130.52796,413.675724 1130.36225,413.898446 C1130.07875,414.278986 1129.80005,414.662259 1129.52271,415.046215 C1129.37001,415.257323 1129.21662,415.467064 1129.06597,415.679538 C1128.76193,416.107902 1128.46268,416.541048 1128.1648,416.974877 C1128.04839,417.144993 1127.92924,417.313743 1127.81351,417.484542 C1126.98973,418.703363 1126.19265,419.942681 1125.42365,421.200445 C1125.3134,421.381491 1125.20589,421.565271 1125.09633,421.747684 C1124.82721,422.193811 1124.56015,422.641305 1124.29856,423.091531 C1124.16503,423.321768 1124.03492,423.554055 1123.90276,423.785658 C1123.67062,424.193526 1123.43985,424.60276 1123.21388,425.014728 C1123.07555,425.265461 1122.93997,425.51756 1122.80438,425.769659 C1122.58936,426.168646 1122.37708,426.569682 1122.16754,426.972084 C1122.03333,427.230332 1121.89979,427.489263 1121.76763,427.748878 C1121.56083,428.15538 1121.35745,428.563931 1121.15681,428.973848 C1121.0315,429.229364 1120.9055,429.484196 1120.78224,429.741077 C1120.57544,430.172174 1120.37343,430.606687 1120.17279,431.041199 C1120.06391,431.278268 1119.95229,431.513971 1119.84547,431.751723 C1119.61744,432.255239 1119.39694,432.762853 1119.17781,433.271151 C1119.10386,433.442633 1119.02716,433.612066 1118.95458,433.784231 C1118.66492,434.46811 1118.3821,435.156089 1118.10819,435.847483 C1118.06026,435.967042 1118.01643,436.088651 1117.96919,436.208894 C1117.74595,436.777996 1117.52682,437.349831 1117.31386,437.924399 C1117.2262,438.162834 1117.14198,438.403319 1117.0557,438.642438 C1116.88998,439.102229 1116.72563,439.562703 1116.56677,440.02591 C1116.47295,440.299188 1116.38256,440.573833 1116.2908,440.847794 C1116.14631,441.28299 1116.0032,441.718869 1115.86419,442.156798 C1115.77311,442.44374 1115.68478,442.731366 1115.59644,443.018991 C1115.46359,443.450771 1115.33486,443.883234 1115.20817,444.317063 C1115.12326,444.608105 1115.03972,444.899146 1114.95754,445.191554 C1114.8336,445.633582 1114.71376,446.076976 1114.59598,446.521054 C1114.52066,446.80458 1114.44465,447.087423 1114.37206,447.372316 C1114.25086,447.847137 1114.13581,448.324008 1114.02146,448.800879 C1113.96051,449.056394 1113.89683,449.311226 1113.83794,449.567425 C1113.7003,450.165904 1113.57019,450.7678 1113.44351,451.371062 C1113.41543,451.506335 1113.38325,451.640924 1113.35585,451.77688 C1113.20383,452.517465 1113.06072,453.261465 1112.92582,454.008198 C1112.88952,454.213157 1112.85665,454.419482 1112.82105,454.625124 C1112.72723,455.167582 1112.63479,455.71004 1112.54987,456.25523 C1112.50605,456.533974 1112.4677,456.814084 1112.42661,457.093511 C1112.35677,457.569016 1112.28829,458.04452 1112.22529,458.522074 C1112.18557,458.82678 1112.1486,459.132851 1112.11162,459.438923 C1112.05615,459.895981 1112.00274,460.353723 1111.95344,460.812147 C1111.91988,461.127784 1111.88838,461.44342 1111.85757,461.759057 C1111.81306,462.215432 1111.77265,462.673173 1111.73499,463.131597 C1111.70897,463.446551 1111.68295,463.760821 1111.66035,464.077141 C1111.62611,464.549912 1111.59735,465.02405 1111.56996,465.498871 C1111.55216,465.798794 1111.53367,466.098717 1111.51929,466.398641 C1111.49395,466.921969 1111.47546,467.446663 1111.45903,467.971358 C1111.45081,468.225507 1111.43917,468.478289 1111.43301,468.732438 C1111.41452,469.511281 1111.40356,470.292858 1111.40356,471.076483 C1111.40356,471.834831 1111.41315,472.591129 1111.43095,473.345377 C1111.43711,473.594744 1111.44807,473.842744 1111.45629,474.09211 C1111.47204,474.595626 1111.48779,475.099824 1111.51176,475.60129 C1111.52545,475.898481 1111.54462,476.194304 1111.56106,476.490128 C1111.58708,476.94377 1111.61242,477.397413 1111.6446,477.849005 C1111.66651,478.162592 1111.69254,478.474813 1111.71787,478.787716 C1111.7528,479.218813 1111.7884,479.650593 1111.82881,480.080323 C1111.85894,480.402792 1111.89249,480.723211 1111.92604,481.044313 C1111.96987,481.465161 1112.01575,481.885327 1112.06505,482.304809 C1112.1034,482.627278 1112.14312,482.949063 1112.1842,483.270848 C1112.23762,483.687598 1112.29445,484.103664 1112.35334,484.518364 C1112.39785,484.837417 1112.44442,485.156469 1112.49235,485.474838 C1112.55604,485.892954 1112.62383,486.309704 1112.69231,486.72577 C1112.74435,487.037991 1112.79571,487.349528 1112.84981,487.661066 C1112.92513,488.08738 1113.00525,488.512328 1113.08605,488.936592 C1113.1422,489.2331 1113.19699,489.53029 1113.25588,489.826114 C1113.34627,490.274973 1113.44214,490.721784 1113.53801,491.168594 C1113.59621,491.437773 1113.65099,491.707635 1113.71125,491.976131 C1113.82972,492.504242 1113.95503,493.028936 1114.0824,493.554314 C1114.12691,493.737411 1114.16731,493.92119 1114.21319,494.103604 C1114.3885,494.811395 1114.57202,495.515087 1114.76375,496.216046 C1114.80895,496.381379 1114.85757,496.544663 1114.90345,496.709313 C1115.05273,497.244256 1115.20406,497.778515 1115.36225,498.310041 C1115.43689,498.561457 1115.51701,498.811507 1115.5937,499.062923 C1115.72997,499.505634 1115.86624,499.948345 1116.00799,500.389007 C1116.09701,500.662968 1116.18945,500.93488 1116.28053,501.208159 C1116.41817,501.622859 1116.55718,502.036875 1116.7003,502.448842 C1116.7989,502.731002 1116.90025,503.011796 1117.0016,503.293273 C1117.1454,503.693626 1117.29057,504.093295 1117.43917,504.490915 C1117.54531,504.773758 1117.65282,505.055918 1117.7617,505.337395 C1117.91372,505.733649 1118.06916,506.128536 1118.22666,506.52274 C1118.33691,506.798068 1118.44853,507.073396 1118.56152,507.347358 C1118.72586,507.74771 1118.89363,508.146014 1119.06346,508.543634 C1119.17644,508.807347 1119.28875,509.070378 1119.40379,509.332725 C1119.58388,509.744009 1119.76809,510.15256 1119.95366,510.561111 C1120.06528,510.805696 1120.17553,511.050963 1120.28852,511.294864 C1120.4919,511.730743 1120.70007,512.164572 1120.90892,512.597035 C1121.01096,512.808143 1121.11093,513.019934 1121.21502,513.229675 C1121.46428,513.735923 1121.7197,514.238755 1121.97786,514.740221 C1122.04634,514.873444 1122.11276,515.008034 1122.18192,515.140574 C1122.85574,516.433864 1123.55832,517.710757 1124.28898,518.969887 C1124.33349,519.047089 1124.38005,519.122923 1124.42525,519.200125 C1124.74298,519.743949 1125.06414,520.284357 1125.39215,520.821349 C1125.4798,520.96482 1125.5695,521.106241 1125.65784,521.249029 C1125.9475,521.717702 1126.2399,522.185008 1126.53709,522.648898 C1126.64323,522.814231 1126.75211,522.978198 1126.85894,523.143532 C1127.14586,523.58351 1127.43483,524.022122 1127.72792,524.458001 C1127.84227,524.62675 1127.95732,524.794816 1128.07236,524.963566 C1128.3675,525.394662 1128.66469,525.823709 1128.96667,526.250024 C1129.08103,526.412624 1129.19676,526.573859 1129.31249,526.735776 C1129.62337,527.169606 1129.93837,527.601385 1130.25611,528.029749 C1130.36499,528.176636 1130.47386,528.323524 1130.58343,528.469727 C1130.92171,528.919954 1131.26478,529.367447 1131.61059,529.811524 C1131.70304,529.9304 1131.79411,530.049277 1131.88724,530.166786 C1132.27003,530.653905 1132.65761,531.136925 1133.0493,531.615845 C1133.10888,531.688264 1133.16709,531.761366 1133.22666,531.833784 C1133.5485,532.225939 1133.87514,532.613311 1134.20315,533 L1134.20657,533 L1136.40676,533 C1121.86008,516.376476 1113.0751,494.672706 1113.0751,471.076483 C1113.0751,470.26553 1113.08537,469.456626 1113.10591,468.649771 C1113.11276,468.395622 1113.12646,468.143523 1113.13467,467.889374 C1113.15316,467.338035 1113.17028,466.786696 1113.19767,466.238089 C1113.21411,465.922453 1113.23876,465.609549 1113.25793,465.295279 C1113.28738,464.810893 1113.3134,464.325824 1113.35038,463.843488 C1113.37845,463.475928 1113.41543,463.111102 1113.44761,462.745592 C1113.48528,462.318594 1113.51883,461.89023 1113.56197,461.465282 C1113.601,461.083376 1113.64894,460.704202 1113.69276,460.322979 C1113.73933,459.916477 1113.7811,459.507926 1113.83314,459.102791 C1113.88313,458.70927 1113.94271,458.317799 1113.99749,457.925644 C1114.05227,457.537589 1114.10226,457.147484 1114.16115,456.760112 C1114.22346,456.354977 1114.29468,455.953257 1114.36179,455.549488 C1114.4241,455.178513 1114.48163,454.805488 1114.54736,454.435196 C1114.622,454.021179 1114.70486,453.611261 1114.7843,453.199294 C1114.85277,452.843349 1114.91714,452.485355 1114.98973,452.130776 C1115.07669,451.707194 1115.17256,451.287029 1115.26501,450.865497 C1115.33965,450.525948 1115.41018,450.18435 1115.48824,449.846168 C1115.58617,449.422587 1115.69299,449.002421 1115.79708,448.58089 C1115.87857,448.24749 1115.95663,447.912724 1116.04223,447.580691 C1116.15179,447.15506 1116.27026,446.732161 1116.38598,446.30858 C1116.47432,445.985428 1116.55786,445.66091 1116.64962,445.339125 C1116.7722,444.908028 1116.90367,444.480347 1117.03241,444.051983 C1117.12554,443.741129 1117.21456,443.428909 1117.31112,443.119421 C1117.44602,442.684908 1117.58982,442.254495 1117.73157,441.822715 C1117.82949,441.522792 1117.92399,441.221503 1118.02465,440.922946 C1118.17188,440.48775 1118.32801,440.056653 1118.4814,439.62419 C1118.5848,439.333149 1118.68478,439.039375 1118.79092,438.749699 C1118.95115,438.313137 1119.11892,437.880674 1119.28532,437.447528 C1119.39352,437.165368 1119.4976,436.881842 1119.60785,436.601731 C1119.7811,436.162436 1119.96257,435.72724 1120.14266,435.291361 C1120.25428,435.020816 1120.36179,434.748221 1120.47546,434.479041 C1120.66104,434.04043 1120.85483,433.605917 1121.04725,433.170721 C1121.16298,432.908374 1121.27528,432.643294 1121.39375,432.38163 C1121.59165,431.943018 1121.79845,431.509189 1122.0032,431.073993 C1122.12235,430.819844 1122.23807,430.565012 1122.35996,430.312229 C1122.5695,429.877717 1122.78658,429.447986 1123.00228,429.017573 C1123.12691,428.767523 1123.2488,428.516107 1123.37617,428.267424 C1123.59667,427.836327 1123.82538,427.40933 1124.05273,426.981649 C1124.18215,426.739114 1124.30746,426.495213 1124.43826,426.254045 C1124.67245,425.822265 1124.91417,425.395268 1125.15522,424.967587 C1125.28669,424.7353 1125.41475,424.500281 1125.54759,424.268678 C1125.79343,423.840314 1126.04679,423.416732 1126.30016,422.992468 C1126.43506,422.765646 1126.56654,422.537459 1126.70349,422.312004 C1126.96234,421.886373 1127.22803,421.464841 1127.49304,421.043309 C1127.63068,420.824687 1127.76489,420.604698 1127.9039,420.387441 C1128.17507,419.96386 1128.45309,419.545744 1128.73043,419.126945 C1128.87081,418.915837 1129.00776,418.70268 1129.14951,418.492939 C1129.43232,418.073457 1129.72198,417.658757 1130.01164,417.244057 C1130.15407,417.039781 1130.29445,416.833456 1130.43826,416.630547 C1130.73339,416.215163 1131.03538,415.804563 1131.33668,415.393962 C1131.48185,415.196518 1131.62429,414.997025 1131.77083,414.800948 C1132.07692,414.39103 1132.38918,413.987261 1132.70075,413.582809 C1132.85003,413.390148 1132.99589,413.194754 1133.14654,413.003459 C1133.46291,412.600374 1133.78544,412.20207 1134.10797,411.803767 C1134.26067,411.616571 1134.40995,411.426643 1134.56334,411.24013 C1134.89066,410.84251 1135.22483,410.450356 1135.55832,410.058201 C1135.71308,409.876471 1135.8651,409.693375 1136.02054,409.513011 C1136.35814,409.122223 1136.70121,408.737584 1137.04497,408.352944 C1137.20383,408.175313 1137.35996,407.995633 1137.51952,407.819368 C1137.86601,407.437462 1138.21867,407.060337 1138.57065,406.683896 C1138.73362,406.510365 1138.89386,406.334783 1139.05752,406.162618 C1139.41223,405.78891 1139.7738,405.420667 1140.13467,405.053108 C1140.30176,404.882992 1140.46679,404.710826 1140.63456,404.542077 C1140.99817,404.17725 1141.36727,403.818573 1141.73636,403.459895 C1141.90756,403.293195 1142.07738,403.125129 1142.24994,402.959795 C1142.62109,402.604533 1142.9984,402.254737 1143.37571,401.904941 C1143.5517,401.74234 1143.72563,401.57769 1143.90231,401.415772 C1144.28236,401.069392 1144.6672,400.72916 1145.05204,400.388246 C1145.23214,400.229744 1145.41018,400.06851 1145.59096,399.911375 C1145.97786,399.574559 1146.37024,399.243892 1146.76261,398.913909 C1146.9475,398.75814 1147.13034,398.600322 1147.31659,398.446603 C1147.71102,398.118669 1148.11093,397.797566 1148.51153,397.476464 C1148.69984,397.325478 1148.88678,397.172442 1149.07647,397.022139 C1149.47638,396.706502 1149.88176,396.395648 1150.28783,396.086161 C1150.48231,395.937224 1150.6761,395.786237 1150.87195,395.638667 C1151.27802,395.333962 1151.68751,395.034722 1152.09838,394.736848 C1152.2997,394.590645 1152.49897,394.442391 1152.70098,394.297553 C1153.11185,394.003779 1153.52751,393.716154 1153.94316,393.428528 C1154.14997,393.28574 1154.35471,393.140903 1154.56289,392.999481 C1154.97923,392.716638 1155.39968,392.439944 1155.82082,392.163932 C1156.0331,392.023877 1156.24401,391.883139 1156.45697,391.745133 C1156.87743,391.473905 1157.30199,391.208824 1157.72655,390.944428 C1157.94567,390.807788 1158.16343,390.669783 1158.38393,390.53451 C1158.80781,390.275579 1159.23579,390.022113 1159.66446,389.768647 C1159.88975,389.636107 1160.11367,389.500835 1160.34033,389.369661 C1160.76832,389.121661 1161.2011,388.879809 1161.63387,388.637958 C1161.86464,388.508834 1162.09404,388.378344 1162.32687,388.251269 C1162.75759,388.014883 1163.19311,387.784646 1163.62794,387.555092 C1163.86693,387.429384 1164.10454,387.301627 1164.34421,387.177968 C1164.77631,386.954563 1165.21319,386.737307 1165.6494,386.520051 C1165.89591,386.397758 1166.14175,386.273417 1166.39032,386.152491 C1166.82447,385.941384 1167.26204,385.736425 1167.7003,385.531466 C1167.95435,385.41259 1168.20772,385.292347 1168.46382,385.175521 C1168.89934,384.976711 1169.33828,384.78405 1169.77722,384.591388 C1170.03949,384.476611 1170.30107,384.359785 1170.56403,384.247058 C1171.00023,384.060545 1171.43985,383.880181 1171.87948,383.700501 C1172.15065,383.58914 1172.42045,383.477096 1172.69231,383.368467 C1173.12919,383.194253 1173.5695,383.026186 1174.00982,382.85812 C1174.28783,382.752225 1174.56517,382.64428 1174.84456,382.541117 C1175.28076,382.3792 1175.72038,382.223431 1176.16001,382.067662 C1176.44761,381.965866 1176.73522,381.862704 1177.02488,381.762957 C1177.4604,381.61402 1177.89865,381.470549 1178.33691,381.327761 C1178.63273,381.230747 1178.92856,381.13305 1179.22643,381.038769 C1179.66195,380.901447 1180.10089,380.76959 1180.53915,380.638416 C1180.84319,380.546868 1181.14654,380.454637 1181.45195,380.366504 C1181.88747,380.24148 1182.32504,380.121237 1182.7633,380.001678 C1183.07555,379.916961 1183.38713,379.830196 1183.70007,379.748212 C1184.13422,379.634801 1184.56973,379.526857 1185.00593,379.419595 C1185.32778,379.340344 1185.64962,379.259727 1185.97284,379.183892 C1186.40288,379.082096 1186.83497,378.987132 1187.26706,378.891484 C1187.59986,378.818382 1187.93266,378.743914 1188.26683,378.674228 C1188.69413,378.584729 1189.12417,378.500696 1189.55421,378.417346 C1189.89523,378.350393 1190.23625,378.28344 1190.57864,378.220586 C1191.00457,378.142701 1191.43186,378.070283 1191.85916,377.997864 C1192.21045,377.939109 1192.56037,377.878988 1192.91235,377.823649 C1193.33486,377.757379 1193.75805,377.696575 1194.18192,377.63577 C1194.5428,377.583847 1194.90299,377.531924 1195.26455,377.484101 C1195.68432,377.428762 1196.10477,377.378888 1196.52591,377.329698 C1196.895,377.285974 1197.26409,377.241566 1197.63456,377.202624 C1198.05159,377.158216 1198.46998,377.119957 1198.88838,377.081015 C1199.26569,377.046172 1199.643,377.010646 1200.02168,376.979902 C1200.4346,376.947109 1200.84889,376.919097 1201.26318,376.891086 C1201.65145,376.864442 1202.03972,376.83848 1202.42867,376.817301 C1202.83748,376.794756 1203.24698,376.776993 1203.65647,376.759913 C1204.05296,376.742833 1204.45013,376.726436 1204.84798,376.714822 C1205.25337,376.702524 1205.66012,376.695692 1206.06688,376.688177 C1206.33326,376.684078 1206.59963,376.680662 1206.8667,376.678613 L1206.86601,533 L1208.53755,533 L1208.53823,480.311243 L1208.53823,376.671781 C1260.33052,377.123373 1302.32846,419.29911 1302.32846,471.076483 C1302.32846,494.749224 1293.54554,516.411319 1279.06528,533 L1281.26683,533 C1295.441,516.265115 1304,494.650844 1304,471.076483 C1304,418.378162 1261.25291,375.460474 1208.53823,375.010248 L1208.53823,375.010248 Z M1321,118.822019 L1321,203.996872 L1321,205.665333 L1321,348.177981 C1321,350.285079 1322.71488,352 1324.82262,352 L1440,352 L1440,350.332222 L1324.82262,350.332222 C1323.6345,350.332222 1322.66774,349.365444 1322.66774,348.177981 L1322.66774,205.665333 L1440,205.665333 L1440,203.996872 L1322.66774,203.996872 L1322.66774,118.822019 C1322.66774,117.634556 1323.6345,116.668461 1324.82262,116.668461 L1440,116.668461 L1440,115 L1324.82262,115 C1322.71488,115 1321,116.714238 1321,118.822019 L1321,118.822019 Z M1421,447 L1322,447 L1322,379.146233 C1322,377.963184 1322.96706,377 1324.15488,377 L1421,377 L1421,447 Z M1321.83421,375 L1321.83421,376.445643 C1321.3136,377.098778 1321,377.924079 1321,378.821798 L1321,446.924822 L1321,448.592504 L1321,533 L1322.66774,533 L1322.66774,448.592504 L1421.63639,448.592504 L1421.63639,458.393633 C1421.63639,460.501293 1423.35127,462.215432 1425.45833,462.215432 L1440,462.215432 L1440,460.54775 L1425.45833,460.54775 C1424.27089,460.54775 1423.30413,459.581028 1423.30413,458.393633 L1423.30413,448.592504 L1440,448.592504 L1440,446.924822 L1423.30413,446.924822 L1423.30413,376.667681 L1440,376.667681 L1440,375 L1324.82262,375 L1321.83421,375 Z M1422,482.831264 L1422,533 L1423.63472,533 L1423.63472,482.831264 C1423.63472,481.640928 1424.58233,480.671812 1425.74626,480.671812 L1440,480.671812 L1440,479 L1425.74626,479 C1423.68093,479 1422,480.718384 1422,482.831264 L1422,482.831264 Z"></path>
                </g>
            </g>
        </g>
    </g>
</svg>