<?xml version="1.0" encoding="UTF-8"?>
<svg width="24px" height="20px" viewBox="0 0 24 20" version="1.1" xmlns="http://www.w3.org/2000/svg" xmlns:xlink="http://www.w3.org/1999/xlink">
<path d="M24,2.3 C23.1,2.7 22.2,3 21.2,3.1 C22.2,2.5 23,1.5 23.4,0.4 C22.4,1 21.4,1.4 20.3,1.6 C19.4,0.6 18.1,0 16.7,0 C14,0 11.8,2.2 11.8,4.9 C11.8,5.3 11.8,5.7 11.9,6 C7.7,5.8 4.1,3.8 1.7,0.8 C1.2,1.6 1,2.4 1,3.3 C1,5 1.9,6.5 3.2,7.4 C2.4,7.4 1.6,7.2 1,6.8 C1,6.8 1,6.8 1,6.9 C1,9.3 2.7,11.3 4.9,11.7 C4.5,11.8 4.1,11.9 3.6,11.9 C3.3,11.9 3,11.9 2.7,11.8 C3.3,13.8 5.1,15.2 7.3,15.2 C5.6,16.5 3.5,17.3 1.2,17.3 C0.8,17.3 0.4,17.3 0,17.2 C2.2,18.6 4.8,19.4 7.5,19.4 C16.6,19.4 21.5,11.9 21.5,5.4 C21.5,5.2 21.5,5 21.5,4.8 C22.5,4.1 23.3,3.2 24,2.3 Z" id="Path" fill="#EDF1F2"></path>                           
</svg>